<?xml version="1.0" standalone="no"?>
<!DOCTYPE svg PUBLIC "-//W3C//DTD SVG 1.1//EN" "http://www.w3.org/Graphics/SVG/1.1/DTD/svg11.dtd" >
<svg xmlns="http://www.w3.org/2000/svg" xmlns:xlink="http://www.w3.org/1999/xlink" version="1.1">
<metadata>
Created by FontForge 20170731 at Tue May 30 07:33:47 2017
 By Aleksey,,,
Copyright (c) 2017 by TypeType. Designers Ivan Gladkikh, Pavel Emelyanov. Technical designers Olexa Volochay, Nadyr Rakhimov, Dmitriy Greshnev. All rights reserved.
</metadata>
<defs>
<font id="TTNorms-Black" horiz-adv-x="1280" >
  <font-face 
    font-family="TT Norms Black"
    font-weight="900"
    font-stretch="normal"
    units-per-em="2048"
    panose-1="2 0 9 3 4 0 0 2 0 4"
    ascent="1638"
    descent="-410"
    x-height="1004"
    cap-height="1434"
    bbox="-379 -532 2945 2060"
    underline-thickness="0"
    underline-position="0"
    unicode-range="U+000D-FB06"
  />
<missing-glyph horiz-adv-x="0" 
 />
    <glyph glyph-name="ij" unicode="ij" horiz-adv-x="1310" 
d="M768 41q-102 -41 -236 -41q-193 0 -306 115.5t-113 314.5v574h409v-553q0 -55 36 -89t97 -34q27 0 55.5 8t43.5 16l14 6v646h410v-943q0 -492 -390 -491q-59 0 -115.5 10t-82.5 21l-27 10v307q47 -20 103 -20q102 0 102 143zM543 1311q0 -86 -63.5 -145.5t-162 -59.5
t-162 59.5t-63.5 145.5t63.5 145.5t162 59.5t162 -59.5t63.5 -145.5zM1198 1311q0 -86 -63.5 -145.5t-162 -59.5t-159.5 59.5t-61 145.5t61 145.5t159.5 59.5t162 -59.5t63.5 -145.5z" />
    <glyph glyph-name="uniFB00" unicode="ff" horiz-adv-x="1556" 
d="M1495 963v-359h-205v-604h-409v604h-308v-604h-409v604h-133v359h133v51q0 205 101.5 312.5t287.5 107.5q57 0 113.5 -10.5t83.5 -20.5l28 -10v-338q-41 20 -102 20q-45 0 -74 -26.5t-29 -65.5v-20h308v92q0 205 101 312.5t288 107.5q57 0 113.5 -10.5t82.5 -20.5l29 -10
v-338q-41 20 -102 20q-45 0 -74 -26.5t-29 -65.5v-61h205z" />
    <glyph glyph-name="uniFB01" unicode="fi" horiz-adv-x="1433" 
d="M1300 963v-963h-409v604h-318v-604h-409v604h-133v359h133v92q0 205 101.5 312.5t287.5 107.5q57 0 113.5 -10.5t83.5 -20.5l28 -10v-338q-41 20 -102 20q-45 0 -74 -26.5t-29 -65.5v-61h727zM1321 1290q0 -86 -63.5 -145.5t-162 -59.5t-162 59.5t-63.5 145.5t63.5 145.5
t162 59.5t162 -59.5t63.5 -145.5z" />
    <glyph glyph-name="uniFB02" unicode="fl" horiz-adv-x="1433" 
d="M891 973q0 55 -45 94t-119 39q-68 0 -111 -39t-43 -94v-10h209v-359h-209v-604h-409v604h-133v359h133q0 225 152.5 368.5t410.5 143.5q272 0 422.5 -139.5t150.5 -372.5v-963h-409v973z" />
    <glyph glyph-name="uniFB03" unicode="ffi" horiz-adv-x="2150" 
d="M2017 963v-963h-409v604h-318v-604h-409v604h-308v-604h-409v604h-133v359h133v51q0 205 101.5 312.5t287.5 107.5q57 0 113.5 -10.5t83.5 -20.5l28 -10v-338q-41 20 -102 20q-45 0 -74 -26.5t-29 -65.5v-20h308v92q0 205 101 312.5t288 107.5q57 0 113.5 -10.5
t82.5 -20.5l29 -10v-338q-41 20 -102 20q-45 0 -74 -26.5t-29 -65.5v-61h727zM2038 1290q0 -86 -63.5 -145.5t-162 -59.5t-162 59.5t-63.5 145.5t63.5 145.5t162 59.5t162 -59.5t63.5 -145.5z" />
    <glyph glyph-name="uniFB06" unicode="st" horiz-adv-x="1863" 
d="M1536 993h205v-348h-205v-194q0 -45 28.5 -74t73.5 -29q27 0 52.5 5t38.5 12l12 4v-349q-92 -41 -225 -40q-186 0 -288 107.5t-102 311.5v246h-102v348h102q0 55 -43 94t-110.5 39t-110.5 -41t-43 -102q0 -27 20.5 -57.5t41.5 -48.5l20 -17l-164 -194q-51 51 -112 51
q-35 0 -58.5 -16.5t-23.5 -34.5q0 -20 42 -39t102.5 -40.5t120.5 -52t102 -92t42 -145.5q0 -131 -125 -229.5t-335 -98.5q-94 0 -179.5 21.5t-137.5 51.5t-92 59.5t-56 50.5l-17 22l185 195q8 -10 25.5 -25.5t65.5 -41.5t93 -26q37 0 59.5 18.5t22.5 43.5q0 20 -42 38.5
t-102.5 39t-121 51.5t-102.5 92.5t-42 147.5q0 127 99.5 215t279.5 102q0 188 150.5 319.5t402.5 131.5q256 0 404.5 -134.5t148.5 -347.5z" />
    <glyph glyph-name="c_t.liga" unicode="ct" horiz-adv-x="1976" 
d="M1239 993q0 53 -40 93t-93 40q-55 0 -94 -41t-39 -102q0 -37 25.5 -78t50.5 -63l26 -23l-246 -246q-6 10 -19 25.5t-59 41.5t-96 26q-76 0 -125 -47.5t-49 -117t49.5 -116.5t124.5 -47q49 0 93.5 23.5t62.5 46.5l18 22l246 -246q-6 -8 -17 -22.5t-52 -52t-89.5 -65.5
t-127 -51.5t-164.5 -23.5q-242 0 -408 157t-166 376q0 209 151.5 358.5t381.5 163.5q0 190 146.5 320.5t385.5 130.5q242 0 387.5 -135.5t145.5 -346.5h204v-348h-204v-194q0 -45 27.5 -74t74.5 -29q27 0 52.5 5t37.5 12l12 4v-349q-92 -41 -225 -40q-186 0 -287.5 107.5
t-101.5 311.5v246h-102v348h102z" />
    <glyph glyph-name="s_p.liga" unicode="sp" horiz-adv-x="2283" 
d="M1495 123v-553h-410v1413q0 68 -35.5 105.5t-97 37.5t-97.5 -33.5t-36 -88.5q0 -37 20.5 -73t41.5 -54l20 -17l-164 -194q-51 51 -112 51q-35 0 -58.5 -16.5t-23.5 -34.5q0 -20 42 -39t102.5 -40.5t120.5 -52t102 -92t42 -145.5q0 -131 -125 -229.5t-335 -98.5
q-94 0 -179.5 21.5t-137.5 51.5t-92 59.5t-56 50.5l-17 22l185 195q8 -10 25.5 -25.5t65.5 -41.5t93 -26q37 0 59.5 18.5t22.5 43.5q0 20 -42 38.5t-102.5 39t-121 51.5t-102.5 92.5t-42 147.5q0 123 108.5 220t270.5 97q0 188 143.5 319.5t368.5 131.5q248 0 400.5 -140.5
t152.5 -351.5v-102l10 15q6 9 31 33.5t54.5 44t77.5 35t104 15.5q182 0 311 -147.5t129 -374.5q0 -229 -129 -375.5t-311 -146.5q-55 0 -103.5 14t-79 35.5t-53.5 43t-33 36.5zM1495 501.5q0 -69.5 42 -111.5t112 -42q61 0 102 43t41 110.5t-41 110.5t-102 43
q-70 0 -112 -42t-42 -111.5z" />
    <glyph glyph-name="f_t.liga" unicode="ft" horiz-adv-x="1628" 
d="M942 1096v153h358v-286h205v-359h-205v-153q0 -45 28 -74t75 -29q27 0 52.5 5t37.5 12l12 4v-349q-92 -41 -225 -40q-186 0 -287.5 107.5t-101.5 311.5v205h-318v-604h-409v604h-133v359h133v92q0 205 101.5 312.5t287.5 107.5q57 0 113.5 -10.5t83.5 -20.5l28 -10v-338
q-41 20 -102 20q-45 0 -74 -26.5t-29 -65.5v-61h236q53 0 93 40t40 93z" />
    <glyph glyph-name=".notdef" horiz-adv-x="0" 
 />
    <glyph glyph-name="glyph1" horiz-adv-x="0" 
 />
    <glyph glyph-name="glyph1" horiz-adv-x="0" 
 />
    <glyph glyph-name="uni000D" unicode="&#xd;" horiz-adv-x="0" 
 />
    <glyph glyph-name="space" unicode=" " horiz-adv-x="440" 
 />
    <glyph glyph-name="exclam" unicode="!" horiz-adv-x="716" 
d="M532 481h-348l-71 953h491zM133 184q0 86 63.5 145.5t162 59.5t162 -59.5t63.5 -145.5t-63.5 -145t-162 -59t-162 59t-63.5 145z" />
    <glyph glyph-name="quotedbl" unicode="&#x22;" horiz-adv-x="1013" 
d="M451 1434v-543h-359v543h359zM922 1434v-543h-359v543h359z" />
    <glyph glyph-name="numbersign" unicode="#" horiz-adv-x="1556" 
d="M31 328l61 286h205l41 205h-205l62 287h204l72 328h369l-72 -328h174l72 328h368l-71 -328h215l-62 -287h-215l-41 -205h215l-61 -286h-215l-72 -328h-368l71 328h-174l-72 -328h-368l72 328h-205zM707 819l-41 -205h174l41 205h-174z" />
    <glyph glyph-name="dollar" unicode="$" 
d="M707 451q0 29 -35 50t-89.5 39.5t-122 40t-134 56.5t-120.5 81t-89 124t-35 176q0 156 108.5 272.5t280.5 161.5v176h379v-174q104 -23 189 -69t116 -80l33 -35l-266 -277q-8 12 -25.5 28.5t-71 45.5t-108.5 29q-59 0 -91 -26t-32 -66q0 -33 46 -58.5t115.5 -42
t150.5 -51.5t150.5 -79t116 -131t46.5 -202q0 -164 -100.5 -279.5t-268.5 -170.5v-185h-379v168q-131 20 -243.5 79t-159.5 106l-48 47l267 266q14 -14 38.5 -36.5t97.5 -59.5t140.5 -37t105.5 33t38 80z" />
    <glyph glyph-name="percent" unicode="%" horiz-adv-x="1843" 
d="M276 0l902 1434h389l-901 -1434h-390zM317 1096q0 -47 28 -75t75 -28t74.5 28t27.5 75t-27.5 74.5t-74.5 27.5t-75 -27.5t-28 -74.5zM809 1095.5q0 -147.5 -114.5 -258t-274.5 -110.5t-274.5 110.5t-114.5 258t114.5 258t274.5 110.5t274.5 -110.5t114.5 -258zM1526 338
q0 47 -28 74.5t-75 27.5t-74.5 -27.5t-27.5 -74.5t27.5 -74.5t74.5 -27.5t75 27.5t28 74.5zM1034 337.5q0 147.5 115 258.5t274.5 111t274 -111t114.5 -258.5t-114.5 -258t-274 -110.5t-274.5 110.5t-115 258z" />
    <glyph glyph-name="ampersand" unicode="&#x26;" horiz-adv-x="1413" 
d="M1249 358q41 -41 82 -41l62 11v-328q-78 -41 -195 -41q-78 0 -146.5 33t-99.5 65l-30 35q-14 -14 -42 -36.5t-125.5 -59.5t-211.5 -37q-217 0 -354.5 121t-137.5 289q0 74 29 143.5t71 114.5t82.5 79.5t69.5 51.5l29 14q-18 16 -44 46t-70 115t-44 163q0 158 123 268.5
t317 110.5q197 0 319 -109t122 -260q0 -57 -23.5 -113.5t-56.5 -94.5t-65.5 -68.5t-57.5 -47.5l-23 -14l113 -133q41 47 41 113h389q0 -102 -30.5 -199.5t-61.5 -142.5zM584 287q37 0 67.5 12t42.5 25l13 14l-144 184q-10 -6 -25.5 -16t-41 -45t-25.5 -72q0 -47 30 -74.5
t83 -27.5zM696 1055q0 39 -23.5 65.5t-58 26.5t-58.5 -26.5t-24 -65.5q0 -29 20.5 -59.5t41.5 -47.5l20 -16q82 57 82 123z" />
    <glyph glyph-name="quotesingle" unicode="'" horiz-adv-x="552" 
d="M461 1434v-543h-369v543h369z" />
    <glyph glyph-name="parenleft" unicode="(" horiz-adv-x="839" 
d="M532 512q0 -201 70 -402.5t139 -304.5l68 -102l-317 -184q-16 16 -42 47t-93.5 131t-119 208.5t-93.5 274.5t-42 332t40 330t97.5 278.5t115 204.5t96.5 135l41 45l317 -184q-10 -14 -29.5 -41t-66.5 -113t-84 -176t-67 -221t-30 -258z" />
    <glyph glyph-name="parenright" unicode=")" horiz-adv-x="839" 
d="M307 512q0 201 -69.5 402.5t-139.5 304.5l-67 102l317 184q16 -16 42 -47t93.5 -131t118.5 -208.5t93 -274.5t42 -332t-40 -330t-97 -278.5t-114.5 -204.5t-96.5 -135l-41 -45l-317 184q10 14 29.5 41t66.5 113t84 176t66.5 221t29.5 258z" />
    <glyph glyph-name="asterisk" unicode="*" horiz-adv-x="901" 
d="M297 1434h307l-20 -185l174 62l82 -256l-164 -41l112 -144l-225 -174l-112 164l-113 -164l-225 174l112 144l-164 41l82 256l174 -62z" />
    <glyph glyph-name="plus" unicode="+" horiz-adv-x="1085" 
d="M727 1085v-297h297v-378h-297v-297h-369v297h-297v378h297v297h369z" />
    <glyph glyph-name="comma" unicode="," horiz-adv-x="614" 
d="M236 399l317 -184l-307 -481l-256 143z" />
    <glyph glyph-name="hyphen" unicode="-" horiz-adv-x="890" 
d="M829 788v-368h-768v368h768z" />
    <glyph glyph-name="period" unicode="." horiz-adv-x="593" 
d="M72 184q0 86 63.5 145.5t161.5 59.5t161.5 -59.5t63.5 -145.5t-63.5 -145t-161.5 -59t-161.5 59t-63.5 145z" />
    <glyph glyph-name="slash" unicode="/" horiz-adv-x="1136" 
d="M1075 1454l-614 -1884h-400l615 1884h399z" />
    <glyph glyph-name="zero" unicode="0" horiz-adv-x="1454" 
d="M543 717q0 -178 53 -263t131 -85t131 85t53 263t-53 263t-131 85t-131 -85t-53 -263zM1372 717q0 -336 -188.5 -547t-456.5 -211t-456.5 211t-188.5 547t188.5 547t456.5 211t456.5 -211t188.5 -547z" />
    <glyph glyph-name="one" unicode="1" horiz-adv-x="890" 
d="M328 1434h409v-1434h-461v963h-225v276q57 8 106.5 31.5t79 50.5t52 52.5t30.5 43.5z" />
    <glyph glyph-name="two" unicode="2" horiz-adv-x="1269" 
d="M1178 0h-1117q0 145 35 266t89.5 201t121 143.5t134 107.5t121.5 81t89 74.5t35 78.5q0 39 -30.5 65.5t-82.5 26.5q-41 0 -76.5 -22.5t-50.5 -46.5l-16 -23l-389 174q6 14 19.5 38t63.5 83.5t111.5 105.5t169 84t230.5 38q248 0 400.5 -136.5t152.5 -334.5
q0 -98 -36 -178.5t-95.5 -134.5t-119.5 -96t-124.5 -85t-95.5 -80h461v-430z" />
    <glyph glyph-name="three" unicode="3" horiz-adv-x="1218" 
d="M911 758q10 -4 26.5 -11.5t58.5 -36t75 -65.5t59.5 -102.5t26.5 -143.5q0 -178 -159.5 -309t-424.5 -131q-109 0 -208 24.5t-162.5 59.5t-111.5 68.5t-71 58.5l-20 25l256 266q12 -14 34.5 -34.5t90.5 -54.5t131 -34q68 0 105.5 32.5t37.5 80.5q0 102 -143 102h-143v348
h143q51 0 82 26.5t31 65.5t-36 71t-87 32q-49 0 -98.5 -23.5t-71.5 -46.5l-25 -22l-266 266q6 8 19.5 22.5t62.5 49t106.5 61.5t152.5 49.5t202 22.5q242 0 392 -124t150 -286q0 -63 -22.5 -117.5t-54 -88.5t-62.5 -57.5t-53 -33.5z" />
    <glyph glyph-name="four" unicode="4" horiz-adv-x="1290" 
d="M1116 584h133v-379h-133v-205h-461v205h-624v409l594 820h491v-850zM655 584v317l-215 -317h215z" />
    <glyph glyph-name="five" unicode="5" horiz-adv-x="1300" 
d="M778 942q201 0 331 -133t130 -338q0 -219 -159.5 -365.5t-424.5 -146.5q-109 0 -209 24.5t-165.5 59.5t-114.5 68.5t-72 58.5l-22 25l266 276q12 -12 32.5 -30.5t85 -50.5t128.5 -32q68 0 110.5 37t42.5 86q0 55 -41 94t-102 39q-41 0 -77 -15t-50 -30l-16 -16l-314 61
l58 820h962v-379h-553l-20 -154q81 41 194 41z" />
    <glyph glyph-name="six" unicode="6" horiz-adv-x="1320" 
d="M1075 1434l-297 -451q20 -2 53 -10t118 -44t149.5 -87t118 -149.5t53.5 -221.5q0 -213 -168 -362.5t-436.5 -149.5t-436.5 149.5t-168 362.5q0 96 39 195.5t76 152.5l39 51l369 564h491zM799 471q0 61 -39 102t-94.5 41t-94.5 -41t-39 -102q0 -53 40 -93t93.5 -40
t93.5 40t40 93z" />
    <glyph glyph-name="seven" unicode="7" horiz-adv-x="1146" 
d="M61 1434h1045v-369l-512 -1065h-492l492 1014h-533v420z" />
    <glyph glyph-name="eight" unicode="8" horiz-adv-x="1310" 
d="M655.5 317q59.5 0 101.5 38t42 85t-42 85t-101.5 38t-101.5 -38t-42 -85t42 -85t101.5 -38zM655.5 911q51.5 0 87 32t35.5 71t-35.5 70.5t-87 31.5t-87.5 -31.5t-36 -70.5t36 -71t87.5 -32zM655.5 -41q-272.5 0 -433.5 132t-161 319q0 74 25 137t59.5 100t68.5 63.5
t58 37.5l25 10q-8 4 -20.5 11t-44 34.5t-56 60.5t-44 87.5t-19.5 113.5q0 162 150.5 286t392 124t392 -124t150.5 -286q0 -59 -19.5 -113.5t-46 -88.5t-53 -58.5t-47.5 -34.5l-18 -12q10 -4 25.5 -11.5t56.5 -35t71.5 -63.5t56 -100.5t25.5 -137.5q0 -186 -160.5 -318.5
t-433 -132.5z" />
    <glyph glyph-name="nine" unicode="9" horiz-adv-x="1320" 
d="M246 0l297 451q-20 2 -53 10t-118 44t-149.5 87t-118 149.5t-53.5 221.5q0 213 168 362.5t436.5 149.5t436.5 -149.5t168 -362.5q0 -96 -38 -195.5t-77 -153.5l-39 -51l-369 -563h-491zM522 963q0 -61 39 -102.5t94.5 -41.5t94 41t38.5 103q0 53 -39.5 93t-93 40
t-93.5 -40t-40 -93z" />
    <glyph glyph-name="colon" unicode=":" horiz-adv-x="593" 
d="M72 184q0 86 63.5 145.5t161.5 59.5t161.5 -59.5t63.5 -145.5t-63.5 -145t-161.5 -59t-161.5 59t-63.5 145zM72 819q0 86 63.5 145.5t161.5 59.5t161.5 -59.5t63.5 -145.5t-63.5 -145.5t-161.5 -59.5t-161.5 59.5t-63.5 145.5z" />
    <glyph glyph-name="semicolon" unicode=";" horiz-adv-x="655" 
d="M133 819q0 86 63.5 145.5t162 59.5t162 -59.5t63.5 -145.5t-63.5 -145.5t-162 -59.5t-162 59.5t-63.5 145.5zM236 389l317 -184l-307 -471l-256 143z" />
    <glyph glyph-name="less" unicode="&#x3c;" horiz-adv-x="1075" 
d="M61 348v307l953 359v-359l-461 -153l461 -154v-358z" />
    <glyph glyph-name="equal" unicode="=" horiz-adv-x="1034" 
d="M963 543v-328h-891v328h891zM963 993v-327h-891v327h891z" />
    <glyph glyph-name="greater" unicode="&#x3e;" horiz-adv-x="1075" 
d="M1014 655v-307l-953 -358v358l461 154l-461 153v359z" />
    <glyph glyph-name="question" unicode="?" horiz-adv-x="1177" 
d="M348 573q0 72 30 127.5t72 89t83.5 60.5t71.5 54.5t30 58.5q0 82 -92 81q-49 0 -88 -22.5t-54 -46.5l-12 -23l-389 174q6 14 18.5 38t60.5 83.5t108.5 105.5t167 84t229.5 38q252 0 407.5 -131.5t155.5 -309.5q0 -92 -33 -164.5t-83 -118.5t-102 -85t-98.5 -86.5
t-62.5 -98.5h-399q-21 51 -21 92zM328 184q0 86 63.5 145.5t161.5 59.5t161.5 -59.5t63.5 -145.5t-63.5 -145t-161.5 -59t-161.5 59t-63.5 145z" />
    <glyph glyph-name="at" unicode="@" horiz-adv-x="1822" 
d="M901 614q-39 0 -70.5 -33.5t-31.5 -78.5t31.5 -79t70.5 -34t71 34t32 79t-32 78.5t-71 33.5zM840 881q45 0 84 -15.5t55 -29.5l14 -17v51h277v-389q0 -45 26.5 -73.5t65.5 -28.5q49 0 81 43t32 131q0 217 -161 369.5t-403 152.5q-223 0 -388 -167t-165 -396t165 -396
t388 -167q96 0 185.5 30.5t132.5 61.5l41 31l164 -195q-8 -8 -23.5 -20.5t-67 -44t-107.5 -56t-144 -44t-181 -19.5q-344 0 -586.5 241.5t-242.5 577.5t242.5 577.5t586.5 241.5q356 0 598 -228.5t242 -549.5q0 -203 -101.5 -316.5t-267.5 -113.5q-78 0 -141 30.5t-90 61.5
l-25 31q-4 -4 -10 -13.5t-29.5 -30t-51 -36.5t-71.5 -29.5t-94 -13.5q-150 0 -249 104.5t-99 274.5q0 164 95.5 271.5t222.5 107.5z" />
    <glyph glyph-name="A" unicode="A" horiz-adv-x="1515" 
d="M860 625l-102 358l-103 -358h205zM963 276h-410l-82 -276h-491l522 1434h512l522 -1434h-492z" />
    <glyph glyph-name="B" unicode="B" horiz-adv-x="1474" 
d="M860 0h-706v1434h665q242 0 382 -112t140 -267q0 -59 -21.5 -112.5t-51 -85.5t-59 -56.5t-50.5 -34.5l-22 -8q10 -4 29.5 -11.5t66.5 -35t84 -63.5t66.5 -100.5t29.5 -137.5q0 -170 -147.5 -290t-405.5 -120zM614 348h205q53 0 88 33t35 80t-35 79.5t-88 32.5h-205v-225z
M768 1085h-154v-184h154q45 0 73.5 26.5t28.5 65.5t-28.5 65.5t-73.5 26.5z" />
    <glyph glyph-name="C" unicode="C" horiz-adv-x="1540" 
d="M532 716.5q0 -147.5 102.5 -247.5t256.5 -100q59 0 117.5 16t98.5 41t70.5 49.5t47.5 40.5l14 16l270 -286q-8 -12 -24.5 -31.5t-75.5 -69t-125.5 -87.5t-176.5 -68.5t-226 -30.5q-342 0 -575.5 223.5t-233.5 534.5t233.5 534.5t575.5 223.5q117 0 224 -30t177 -72
t123 -84t78 -72l22 -29l-276 -287q-6 6 -16.5 17.5t-44 40t-70.5 50t-93.5 39t-113.5 17.5q-154 0 -256.5 -100.5t-102.5 -248z" />
    <glyph glyph-name="D" unicode="D" horiz-adv-x="1576" 
d="M154 1434h573q334 0 556 -210t222 -507t-222 -507t-556 -210h-573v1434zM727 1024h-113v-614h113q137 0 227 88t90 219t-90 219t-227 88z" />
    <glyph glyph-name="E" unicode="E" horiz-adv-x="1392" 
d="M614 379h697v-379h-1157v1434h1136v-379h-676v-154h512v-348h-512v-174z" />
    <glyph glyph-name="F" unicode="F" horiz-adv-x="1361" 
d="M154 1434h1146v-400h-686v-184h523v-399h-523v-451h-460v1434z" />
    <glyph glyph-name="G" unicode="G" horiz-adv-x="1658" 
d="M881 -41q-342 0 -575.5 223.5t-233.5 534.5t233.5 534.5t575.5 223.5q117 0 224 -30t177 -72t123 -84t78 -72l22 -29l-276 -287q-6 6 -16.5 17.5t-44 40t-70.5 50t-93.5 39t-113.5 17.5q-154 0 -256.5 -100.5t-102.5 -247.5q0 -145 101.5 -246.5t247.5 -101.5
q59 0 107 15t69 30l18 16v123h-205v256h666v-563q-10 -12 -28.5 -31.5t-81 -69t-133 -87.5t-183 -68.5t-229.5 -30.5z" />
    <glyph glyph-name="H" unicode="H" horiz-adv-x="1658" 
d="M1505 1434v-1434h-461v522h-430v-522h-460v1434h460v-502h430v502h461z" />
    <glyph glyph-name="I" unicode="I" horiz-adv-x="768" 
d="M154 0v1434h460v-1434h-460z" />
    <glyph glyph-name="J" unicode="J" horiz-adv-x="1095" 
d="M502 1434h461v-912q0 -254 -155 -408.5t-409 -154.5q-78 0 -151.5 19.5t-123.5 46t-89 53t-58 45.5l-18 20l266 277q51 -51 123 -51q70 0 112 42t42 111v912z" />
    <glyph glyph-name="K" unicode="K" horiz-adv-x="1536" 
d="M614 1434v-492l402 492h510l-492 -594l533 -840h-512l-318 502l-123 -154v-348h-460v1434h460z" />
    <glyph glyph-name="L" unicode="L" horiz-adv-x="1259" 
d="M1219 0h-1065v1434h460v-1014h605v-420z" />
    <glyph glyph-name="M" unicode="M" horiz-adv-x="1925" 
d="M1311 768l-348 -440l-349 440v-768h-460v1434h409l400 -512l399 512h410v-1434h-461v768z" />
    <glyph glyph-name="N" unicode="N" horiz-adv-x="1699" 
d="M1085 1434h461v-1434h-389l-543 696v-696h-460v1434h389l542 -697v697z" />
    <glyph glyph-name="O" unicode="O" horiz-adv-x="1761" 
d="M532 716.5q0 -145.5 101.5 -246.5t247 -101t247 101t101.5 246.5t-101.5 247t-247 101.5t-247 -101.5t-101.5 -247zM1690 717q0 -311 -233.5 -534.5t-575.5 -223.5t-575.5 223.5t-233.5 534.5t233.5 534.5t575.5 223.5t575.5 -223.5t233.5 -534.5z" />
    <glyph glyph-name="P" unicode="P" horiz-adv-x="1443" 
d="M154 1434h675q250 0 401.5 -147.5t151.5 -375t-151.5 -375t-401.5 -147.5h-215v-389h-460v1434zM799 1024h-185v-225h185q53 0 88 32.5t35 79.5t-35 80t-88 33z" />
    <glyph glyph-name="Q" unicode="Q" horiz-adv-x="1761" 
d="M1690 717q0 -121 -39 -231.5t-95.5 -182.5t-111.5 -127t-94 -80l-39 -24q10 -12 29.5 -28.5t94 -45.5t162.5 -29l82 11v-359q-41 -10 -92 -10q-129 0 -243.5 36t-187.5 87t-127 102t-77 86l-22 37h-49q-342 0 -575.5 223.5t-233.5 534.5t233.5 534.5t575.5 223.5
t575.5 -223.5t233.5 -534.5zM532 716.5q0 -145.5 101.5 -246.5t247 -101t247 101t101.5 246.5t-101.5 247t-247 101.5t-247 -101.5t-101.5 -247z" />
    <glyph glyph-name="R" unicode="R" horiz-adv-x="1495" 
d="M154 0v1434h706q242 0 392.5 -146.5t150.5 -365.5q0 -86 -23.5 -161t-56.5 -121t-65.5 -79t-57.5 -45l-22 -14l276 -502h-481l-215 410h-144v-410h-460zM942 921.5q0 47.5 -29.5 75t-83.5 27.5h-215v-205h215q53 0 83 27.5t30 75z" />
    <glyph glyph-name="S" unicode="S" 
d="M707 451q0 29 -35 50t-89.5 39.5t-122 40t-134 56.5t-120.5 81t-89 124t-35 176q0 184 157.5 320.5t415.5 136.5q102 0 195.5 -21.5t152 -51.5t102.5 -59.5t62 -52.5l21 -20l-266 -277q-8 12 -25.5 28.5t-71 45.5t-108.5 29q-59 0 -91 -26t-32 -66q0 -33 46 -58.5
t115.5 -42t150.5 -51.5t150.5 -79t116 -131t46.5 -202q0 -199 -161 -340t-433 -141q-109 0 -211.5 25.5t-171 61.5t-120.5 72t-77 62l-25 25l267 266q14 -14 38.5 -36.5t97.5 -59.5t140.5 -37t105.5 33t38 80z" />
    <glyph glyph-name="T" unicode="T" horiz-adv-x="1300" 
d="M41 1434h1219v-420h-379v-1014h-461v1014h-379v420z" />
    <glyph glyph-name="U" unicode="U" horiz-adv-x="1617" 
d="M809 369q86 0 150.5 68.5t64.5 166.5v830h461v-830q0 -279 -189.5 -462t-486.5 -183t-486.5 183.5t-189.5 461.5v830h461v-830q0 -98 64.5 -166.5t150.5 -68.5z" />
    <glyph glyph-name="V" unicode="V" horiz-adv-x="1495" 
d="M1004 0h-512l-492 1434h492l256 -922l256 922h491z" />
    <glyph glyph-name="W" unicode="W" horiz-adv-x="2211" 
d="M1341 0l-235 717l-236 -717h-399l-471 1434h492l215 -768l215 768h368l215 -768l215 768h492l-471 -1434h-400z" />
    <glyph glyph-name="X" unicode="X" horiz-adv-x="1474" 
d="M737 451l-245 -451h-502l450 748l-409 686h501l205 -390l205 390h502l-410 -686l451 -748h-502z" />
    <glyph glyph-name="Y" unicode="Y" horiz-adv-x="1443" 
d="M973 1434h491l-512 -922v-512h-460v512l-512 922h491l246 -492h10z" />
    <glyph glyph-name="Z" unicode="Z" horiz-adv-x="1382" 
d="M666 1014h-543v420h1147v-420l-574 -594h594v-420h-1198v420z" />
    <glyph glyph-name="bracketleft" unicode="[" horiz-adv-x="870" 
d="M594 1075v-1126h205v-379h-635v1884h635v-379h-205z" />
    <glyph glyph-name="backslash" unicode="\" horiz-adv-x="1136" 
d="M676 -430l-615 1884h400l614 -1884h-399z" />
    <glyph glyph-name="bracketright" unicode="]" horiz-adv-x="870" 
d="M276 -49v1126h-204v379h635v-1884h-635v379h204z" />
    <glyph glyph-name="asciicircum" unicode="^" horiz-adv-x="962" 
d="M328 1434h307l287 -646h-328l-113 267l-112 -267h-328z" />
    <glyph glyph-name="underscore" unicode="_" horiz-adv-x="727" 
d="M748 -154v-378h-768v378h768z" />
    <glyph glyph-name="grave" unicode="`" horiz-adv-x="737" 
d="M492 1464l184 -348h-359l-256 348h431z" />
    <glyph glyph-name="a" unicode="a" horiz-adv-x="1146" 
d="M1024 0h-410v113q-8 -14 -27.5 -37t-88 -59.5t-150.5 -36.5q-123 0 -210 85t-87 201q0 242 318 318l256 61q0 33 -33 57.5t-90 24.5q-49 0 -98.5 -23.5t-71.5 -46.5l-25 -22l-194 205q6 8 17 21t52 46t88 58.5t124 47t159 21.5q211 0 341 -117.5t130 -291.5v-625z
M512 276q47 0 80 37t33 97v30l-113 -30q-61 -16 -61 -72q0 -62 61 -62z" />
    <glyph glyph-name="b" unicode="b" horiz-adv-x="1320" 
d="M522 501.5q0 -69.5 42 -111.5t112 -42q61 0 102 43t41 110.5t-41 110.5t-102 43q-70 0 -112 -42t-42 -111.5zM522 1434v-553q4 6 10.5 15t31 33.5t54 44t77.5 35t104 15.5q182 0 311 -146.5t129 -375.5q0 -227 -129 -374.5t-311 -147.5q-55 0 -103.5 14t-79 35.5t-53 43
t-31.5 36.5l-10 14v-123h-409v1434h409z" />
    <glyph glyph-name="c" unicode="c" horiz-adv-x="1116" 
d="M51 502q0 219 166 375.5t408 156.5q86 0 163.5 -22.5t128 -54t88 -62.5t54.5 -53l16 -23l-246 -246q-6 10 -19 25.5t-59 41.5t-96 26q-76 0 -125 -47.5t-49 -117t49.5 -116.5t124.5 -47q49 0 93.5 23.5t62.5 46.5l18 22l246 -246q-6 -8 -17 -22.5t-52 -52t-89.5 -65.5
t-127 -51.5t-164.5 -23.5q-242 0 -408 157t-166 376z" />
    <glyph glyph-name="d" unicode="d" horiz-adv-x="1320" 
d="M778 501.5q0 69.5 -42 111.5t-111 42q-61 0 -102.5 -43t-41.5 -110.5t41 -110.5t103 -43q70 0 111.5 42t41.5 111.5zM778 881v553h410v-1434h-410v123q-4 -6 -10 -15.5t-30.5 -34t-54.5 -44t-78 -34.5t-103 -15q-182 0 -311.5 147t-129.5 375q0 229 129 375.5t312 146.5
q55 0 103 -14.5t79 -36t53.5 -43t32.5 -35.5z" />
    <glyph glyph-name="e" unicode="e" horiz-adv-x="1208" 
d="M1126 410h-645q18 -45 69.5 -79t135.5 -34q55 0 103.5 17.5t70.5 35.5l21 19l163 -256q-18 -16 -52 -40t-143.5 -64t-223.5 -40q-242 0 -408 157t-166 376t160 375.5t393 156.5q227 0 385 -151.5t158 -360.5q0 -33 -5 -60.5t-12 -39.5zM604 727q-45 0 -81 -32.5
t-52 -80.5h266q-16 47 -52 80t-81 33z" />
    <glyph glyph-name="f" unicode="f" horiz-adv-x="839" 
d="M778 963v-359h-205v-604h-409v604h-133v359h133v71q0 205 101.5 312.5t287.5 107.5q57 0 113.5 -10t83.5 -21l28 -10v-338q-41 20 -102 21q-45 0 -74 -27t-29 -65v-41h205z" />
    <glyph glyph-name="g" unicode="g" horiz-adv-x="1290" 
d="M768 133v62l-11 -16q-7 -11 -34 -37.5t-57.5 -47t-79.5 -37t-105 -16.5q-166 0 -298 144.5t-132 347t133 347t301 144.5q84 0 155 -36t99 -70l29 -37v123h410v-871q0 -242 -170 -402.5t-441 -160.5q-92 0 -177 22.5t-138 53t-94 62.5t-60 54l-16 23l225 225
q8 -10 24.5 -25.5t75 -41t125.5 -25.5q106 0 171 60.5t65 154.5zM481 532.5q0 -61.5 41 -102.5t102.5 -41t102.5 41t41 102.5t-41 102.5t-102.5 41t-102.5 -41t-41 -102.5z" />
    <glyph glyph-name="h" unicode="h" 
d="M522 1434v-553q10 16 30.5 39.5t92.5 63.5t154 40q158 0 258 -112.5t100 -307.5v-604h-409v512q0 53 -32 88t-77 35t-81 -44t-36 -110v-481h-409v1434h409z" />
    <glyph glyph-name="i" unicode="i" horiz-adv-x="655" 
d="M522 1004v-1004h-409v1004h409zM543 1311q0 -86 -63.5 -145.5t-162 -59.5t-162 59.5t-63.5 145.5t63.5 145.5t162 59.5t162 -59.5t63.5 -145.5z" />
    <glyph glyph-name="j" unicode="j" horiz-adv-x="655" 
d="M113 51v953h409v-943q0 -492 -389 -491q-59 0 -115.5 10t-83.5 21l-26 10v358q47 -20 102 -20q47 0 75 27.5t28 74.5zM543 1311q0 -86 -63.5 -145.5t-162 -59.5t-160 59.5t-61.5 145.5t61.5 145.5t160 59.5t162 -59.5t63.5 -145.5z" />
    <glyph glyph-name="k" unicode="k" horiz-adv-x="1218" 
d="M1208 1004l-346 -431l357 -573h-431l-194 338l-72 -82v-256h-409v1434h409v-727l236 297h450z" />
    <glyph glyph-name="l" unicode="l" horiz-adv-x="655" 
d="M522 1434v-1434h-409v1434h409z" />
    <glyph glyph-name="m" unicode="m" horiz-adv-x="1843" 
d="M1116 481v-481h-409v512q0 113 -93 113q-41 0 -71.5 -39t-30.5 -105v-481h-410v1004h410v-123l10 15q6 9 29.5 33.5t51.5 44t72 35t93 15.5q57 0 106.5 -16.5t79 -41t52 -49t30.5 -40.5l8 -17q4 6 13.5 17.5t40 40t65.5 50t92.5 39t116.5 17.5q158 0 253 -108.5
t95 -311.5v-604h-409v512q0 113 -92 113q-41 0 -72 -39t-31 -105z" />
    <glyph glyph-name="n" unicode="n" horiz-adv-x="1269" 
d="M512 1004v-123q10 16 30.5 39.5t92.5 63.5t153 40q158 0 258.5 -112.5t100.5 -307.5v-604h-410v512q0 53 -31.5 88t-76.5 35t-81 -44t-36 -110v-481h-410v1004h410z" />
    <glyph glyph-name="o" unicode="o" horiz-adv-x="1269" 
d="M481 501.5q0 -67.5 41 -110.5t102.5 -43t102.5 43t41 110.5t-41 110.5t-102.5 43t-102.5 -43t-41 -110.5zM1198 502q0 -219 -166 -376t-407.5 -157t-407.5 157t-166 376t166 375.5t407.5 156.5t407.5 -156.5t166 -375.5z" />
    <glyph glyph-name="p" unicode="p" horiz-adv-x="1310" 
d="M512 501.5q0 -69.5 42 -111.5t112 -42q61 0 102 43t41 110.5t-41 110.5t-102 43q-70 0 -112 -42t-42 -111.5zM512 123v-553h-410v1434h410v-123l10 15q6 9 31 33.5t54.5 44t77.5 35t103 15.5q182 0 311.5 -147.5t129.5 -374.5q0 -229 -129 -375.5t-312 -146.5
q-55 0 -103 14t-79 35.5t-53.5 43t-32.5 36.5z" />
    <glyph glyph-name="q" unicode="q" horiz-adv-x="1310" 
d="M778 501.5q0 69.5 -42 111.5t-111 42q-61 0 -102.5 -43t-41.5 -110.5t41 -110.5t103 -43q70 0 111.5 42t41.5 111.5zM778 -430v553q-4 -6 -10 -15.5t-30.5 -34t-54.5 -44t-78 -34.5t-103 -15q-182 0 -311.5 146t-129.5 376q0 227 129 374.5t312 147.5q55 0 103 -14.5
t79 -36t53.5 -43t32.5 -35.5l8 -14v123h410v-1434h-410z" />
    <glyph glyph-name="r" unicode="r" horiz-adv-x="870" 
d="M819 1018v-424q-41 20 -102 20q-94 0 -149.5 -59t-55.5 -166v-389h-410v1004h410v-123l10 15q6 9 31 32.5t52.5 42t74.5 33t98 14.5h41z" />
    <glyph glyph-name="s" unicode="s" horiz-adv-x="1003" 
d="M922 860l-185 -194q-51 51 -112 51q-35 0 -58.5 -16.5t-23.5 -34.5q0 -20 42 -39t102.5 -40.5t120.5 -52t102 -92t42 -145.5q0 -131 -125 -229.5t-335 -98.5q-94 0 -179.5 21.5t-137.5 51.5t-92 59.5t-56 50.5l-17 22l185 195q8 -10 25.5 -25.5t65.5 -41.5t93 -26
q37 0 59.5 18.5t22.5 43.5q0 20 -42 38.5t-102.5 39t-121 51.5t-102.5 92.5t-42 147.5q0 127 125 227t326 100q84 0 157.5 -18.5t119.5 -44t80 -50t48 -42.5z" />
    <glyph glyph-name="t" unicode="t" horiz-adv-x="911" 
d="M225 1126v154h359v-287h204v-348h-204v-194q0 -45 27.5 -74t74.5 -29q27 0 52.5 5t37.5 12l12 4v-349q-92 -41 -225 -40q-186 0 -287.5 107.5t-101.5 311.5v246h-143v348h61q53 0 93 40t40 93z" />
    <glyph glyph-name="u" unicode="u" 
d="M737 0v113q-10 -14 -28.5 -37t-89 -59.5t-154.5 -36.5q-160 0 -261.5 111.5t-101.5 301.5v611h410v-523q0 -53 28.5 -82.5t77.5 -29.5q53 0 86 37.5t33 105.5v492h410v-1004h-410z" />
    <glyph glyph-name="v" unicode="v" horiz-adv-x="1126" 
d="M768 0h-430l-358 1004h419l154 -533l154 533h419z" />
    <glyph glyph-name="w" unicode="w" horiz-adv-x="1638" 
d="M666 1004h286l133 -451l134 451h419l-348 -1004h-327l-154 420l-154 -420h-327l-348 1004h419l133 -451z" />
    <glyph glyph-name="x" unicode="x" horiz-adv-x="1105" 
d="M676 0l-133 256l-133 -256h-430l296 512l-286 492h440l113 -236l112 236h441l-287 -492l297 -512h-430z" />
    <glyph glyph-name="y" unicode="y" horiz-adv-x="1126" 
d="M174 -51q94 0 158 92l-352 963h419l154 -533l154 533h419l-368 -1014q-152 -420 -461 -420q-57 0 -113.5 10t-85.5 21l-26 10v358q41 -20 102 -20z" />
    <glyph glyph-name="z" unicode="z" horiz-adv-x="1105" 
d="M993 1004v-349l-389 -307h410v-348h-942v348l389 307h-369v349h901z" />
    <glyph glyph-name="braceleft" unicode="{" horiz-adv-x="942" 
d="M481 512q8 -2 21.5 -6t46.5 -22.5t58.5 -44t47 -75t21.5 -108.5v-184q0 -47 32.5 -80t79.5 -33h72v-389h-225q-178 0 -283.5 109.5t-105.5 300.5v204q0 61 -43 102.5t-111 41.5v368q68 0 111 41t43 103v204q0 190 105.5 300t283.5 110h225v-389h-72q-47 0 -79.5 -33
t-32.5 -80v-184q0 -96 -49 -159.5t-99 -80.5z" />
    <glyph glyph-name="bar" unicode="|" horiz-adv-x="870" 
d="M655 1454v-1884h-440v1884h440z" />
    <glyph glyph-name="braceright" unicode="}" horiz-adv-x="942" 
d="M461 512q-8 2 -21.5 6t-46.5 22.5t-58.5 44t-47 75t-21.5 108.5v184q0 47 -32.5 80t-79.5 33h-72v389h225q178 0 283.5 -109.5t105.5 -300.5v-204q0 -61 43 -102.5t111 -41.5v-368q-68 0 -111 -41t-43 -103v-204q0 -190 -105.5 -300t-283.5 -110h-225v389h72
q47 0 79.5 33t32.5 80v184q0 96 49.5 159.5t98.5 80.5z" />
    <glyph glyph-name="asciitilde" unicode="~" horiz-adv-x="1208" 
d="M481 481q-49 0 -93 -23.5t-62 -45.5l-19 -23l-266 195q2 10 9 27.5t33 61.5t59.5 77.5t94 61.5t132.5 28q92 0 194.5 -46t163.5 -46q49 0 93 23.5t63 45.5l18 23l266 -195q-2 -10 -9 -27.5t-32.5 -61.5t-59.5 -78t-94.5 -61.5t-131.5 -27.5q-92 0 -195 46t-164 46z" />
    <glyph glyph-name="uni00A0" unicode="&#xa0;" horiz-adv-x="440" 
 />
    <glyph glyph-name="exclamdown" unicode="&#xa1;" horiz-adv-x="696" 
d="M174 522h348l72 -952h-492zM123 819q0 86 63.5 145.5t161.5 59.5t161.5 -59.5t63.5 -145.5t-63.5 -145.5t-161.5 -59.5t-161.5 59.5t-63.5 145.5z" />
    <glyph glyph-name="cent" unicode="&#xa2;" horiz-adv-x="1116" 
d="M51 502q0 172 107.5 311t281.5 193v182h369v-182q78 -25 142.5 -69t88.5 -77l25 -31l-246 -245q-6 8 -17 22.5t-54 37t-93 22.5q-76 0 -125 -47.5t-49 -117t49.5 -116.5t124.5 -47q49 0 90 20.5t58 40.5l16 21l246 -246q-4 -4 -10 -13t-30 -33t-51.5 -45.5t-71.5 -45
t-93 -39.5v-193h-369v193q-174 51 -281.5 191.5t-107.5 312.5z" />
    <glyph glyph-name="sterling" unicode="&#xa3;" horiz-adv-x="1239" 
d="M215 983q0 225 139.5 358.5t382.5 133.5q86 0 166 -20.5t133.5 -49.5t94 -56.5t59.5 -48.5l18 -20l-317 -297q-41 61 -113 61q-53 0 -88 -32.5t-35 -79.5v-92h287v-267h-287q0 -45 -12 -86t-25 -59l-14 -18h594v-410h-1106v410q123 0 123 102v61h-123v267h123v143z" />
    <glyph glyph-name="currency" unicode="&#xa4;" horiz-adv-x="1474" 
d="M666 840h184q53 0 88 32.5t35 79.5t-35 80t-88 33h-184v-225zM881 532h-215v-71h389v-307h-389v-154h-461v154h-133v307h133v71h-133v308h133v594h672q256 0 406.5 -130t150.5 -320.5t-149.5 -321t-403.5 -130.5z" />
    <glyph glyph-name="yen" unicode="&#xa5;" horiz-adv-x="1443" 
d="M1229 502h-277v-72h277v-287h-277v-143h-460v143h-277v287h277v72h-277v286h123l-358 646h491l246 -492h10l246 492h491l-358 -646h123v-286z" />
    <glyph glyph-name="brokenbar" unicode="&#xa6;" horiz-adv-x="870" 
d="M215 348h440v-778h-440v778zM655 676h-440v778h440v-778z" />
    <glyph glyph-name="section" unicode="&#xa7;" horiz-adv-x="1146" 
d="M1024 1300l-184 -194q-51 51 -123 51q-43 0 -67.5 -18.5t-24.5 -42.5q0 -29 46 -56.5t112.5 -58.5t133 -72t112.5 -114.5t46 -169.5q0 -51 -19.5 -99.5t-46 -79t-53 -54t-47.5 -34.5l-18 -10q6 -4 16.5 -10t37 -29.5t47 -51.5t36.5 -72t16 -93q0 -139 -125.5 -238.5
t-345.5 -99.5q-94 0 -179 22.5t-137 53.5t-92 62.5t-56 54.5l-17 22l184 195q8 -12 23.5 -28.5t64 -45.5t97.5 -29t75.5 19.5t26.5 52.5q0 39 -49 75t-119.5 70.5t-142.5 78.5t-121 119t-49 169q0 82 49 148.5t98 91.5l47 26q-16 8 -39.5 25.5t-63.5 78t-40 132.5
q0 131 125 229.5t336 98.5q84 0 159.5 -18.5t123 -43t82 -50.5t49.5 -44zM696 604q0 49 -41 88t-82 53l-41 13q-6 -2 -16 -7.5t-27.5 -29t-17.5 -55.5q0 -49 41 -88t82 -54l41 -12q6 2 16.5 7t27.5 28.5t17 56.5z" />
    <glyph glyph-name="dieresis" unicode="&#xa8;" horiz-adv-x="1003" 
d="M61 1311q0 78 59.5 136t135.5 58t135.5 -58t59.5 -136t-59.5 -136.5t-135.5 -58.5t-135.5 58.5t-59.5 136.5zM553 1311q0 78 59.5 136t135 58t135 -58t59.5 -136t-59.5 -136.5t-135 -58.5t-135 58.5t-59.5 136.5z" />
    <glyph glyph-name="copyright" unicode="&#xa9;" horiz-adv-x="1751" 
d="M870.5 154q231.5 0 397.5 166.5t166 396t-166 396.5t-397.5 167t-397.5 -167t-166 -396.5t166 -396t397.5 -166.5zM471 717q0 170 122 289.5t298 119.5q66 0 125 -16t96 -41t64.5 -49.5t40.5 -40.5l12 -16l-154 -154q-6 8 -17 22.5t-54 37t-93 22.5q-70 0 -122 -52.5
t-52 -122t52.5 -121.5t121.5 -52q49 0 90 23.5t58 45.5l16 23l154 -164q-4 -6 -11.5 -17.5t-37 -40t-64.5 -50t-94 -39t-127 -17.5q-178 0 -301 120t-123 290zM870.5 -51q-335.5 0 -562 222t-226.5 545.5t226.5 546t562 222.5t562 -222.5t226.5 -546t-226.5 -545.5
t-562 -222z" />
    <glyph glyph-name="ordfeminine" unicode="&#xaa;" horiz-adv-x="819" 
d="M287 727q-98 0 -162 61.5t-64 153.5q0 82 58.5 139.5t167.5 75.5l184 31q0 18 -24.5 34.5t-67.5 16.5q-37 0 -73 -13.5t-52 -25.5l-18 -12l-144 143q4 4 11.5 13.5t36 30t61 36.5t89 29.5t120.5 13.5q152 0 239.5 -84t87.5 -223v-399h-266v61q-6 -8 -20.5 -22.5
t-61.5 -37t-102 -22.5zM471 1038q-14 0 -36.5 -3t-59.5 -21.5t-37 -50.5q0 -16 13.5 -28.5t27.5 -12.5q39 0 65.5 27.5t26.5 68.5v20z" />
    <glyph glyph-name="guillemotleft" unicode="&#xab;" horiz-adv-x="1300" 
d="M717 870l-277 -378l277 -379h-379l-277 379l277 378h379zM1239 870l-276 -378l276 -379h-379l-276 379l276 378h379z" />
    <glyph glyph-name="logicalnot" unicode="&#xac;" horiz-adv-x="1013" 
d="M952 891v-574h-358v215h-533v359h891z" />
    <glyph glyph-name="uni00AD" unicode="&#xad;" horiz-adv-x="890" 
d="M829 788v-368h-768v368h768z" />
    <glyph glyph-name="registered" unicode="&#xae;" horiz-adv-x="1751" 
d="M1096 614l153 -286h-286l-113 215h-41v-215h-266v778h368q135 0 221.5 -80t86.5 -197q0 -68 -31 -122t-62 -72zM809 870v-102h72q61 0 61 51t-61 51h-72zM870.5 154q231.5 0 397.5 166.5t166 396t-166 396.5t-397.5 167t-397.5 -167t-166 -396.5t166 -396t397.5 -166.5z
M870.5 -51q-335.5 0 -562 222t-226.5 545.5t226.5 546t562 222.5t562 -222.5t226.5 -546t-226.5 -545.5t-562 -222z" />
    <glyph glyph-name="macron" unicode="&#xaf;" horiz-adv-x="819" 
d="M758 1516v-308h-697v308h697z" />
    <glyph glyph-name="degree" unicode="&#xb0;" horiz-adv-x="839" 
d="M317 1116q0 -39 32 -70.5t71 -31.5t70.5 31.5t31.5 70.5t-31.5 71t-70.5 32t-71 -32t-32 -71zM778 1116q0 -133 -107.5 -235.5t-251 -102.5t-251 102.5t-107.5 235.5t107.5 235.5t251 102.5t251 -102.5t107.5 -235.5z" />
    <glyph glyph-name="plusminus" unicode="&#xb1;" horiz-adv-x="1105" 
d="M72 0v328h962v-328h-962zM737 1341v-297h297v-378h-297v-297h-368v297h-297v378h297v297h368z" />
    <glyph glyph-name="uni00B2" unicode="&#xb2;" horiz-adv-x="706" 
d="M655 1413q0 -53 -26.5 -100t-56 -71.5t-76.5 -56.5t-62 -44h211v-240h-594q0 100 32 177t77 118t90 70.5t76.5 52t31.5 43.5q0 16 -14 28.5t-37 12.5q-18 0 -32.5 -11.5t-20.5 -23.5l-4 -12l-219 88q4 8 10 22.5t33.5 49t61.5 61.5t93.5 49.5t128.5 22.5q141 0 219 -66
t78 -170z" />
    <glyph glyph-name="uni00B3" unicode="&#xb3;" horiz-adv-x="716" 
d="M532 1280q6 -2 14.5 -4t32 -14.5t41 -28.5t32 -46t14.5 -67q0 -92 -84 -160.5t-224 -68.5q-109 0 -190.5 30.5t-110.5 61.5l-26 31l133 143q55 -61 133 -61q61 0 61 51t-71 51h-72v164h72q23 0 37 12t14 28.5t-14.5 29t-36.5 12.5q-25 0 -50.5 -13.5t-39.5 -25.5l-13 -12
l-133 143q8 12 27.5 30.5t98.5 50.5t179 32q135 0 214 -61.5t79 -143.5q0 -49 -29.5 -90t-58.5 -58z" />
    <glyph glyph-name="acute" unicode="&#xb4;" horiz-adv-x="737" 
d="M61 1116l185 348h430l-256 -348h-359z" />
    <glyph glyph-name="mu" unicode="&#xb5;" horiz-adv-x="1269" 
d="M1137 1004v-584q0 -61 51 -62l41 11v-359q-51 -31 -154 -30q-100 0 -168.5 38.5t-87.5 75.5l-20 39q-14 -16 -39 -41.5t-99.5 -67.5t-148.5 -42v-412h-410v1434h410v-512q0 -123 102 -123q47 0 80 37.5t33 105.5v492h410z" />
    <glyph glyph-name="paragraph" unicode="&#xb6;" horiz-adv-x="1423" 
d="M440 -205v819q-162 0 -285.5 124t-123.5 286t124 286t285 124h840v-1639h-358v1229h-123v-1229h-359z" />
    <glyph glyph-name="periodcentered" unicode="&#xb7;" horiz-adv-x="450" 
d="M0 506q0 86 63.5 145.5t162 59.5t162 -59.5t63.5 -145.5t-63.5 -145.5t-162 -59.5t-162 59.5t-63.5 145.5z" />
    <glyph glyph-name="cedilla" unicode="&#xb8;" horiz-adv-x="675" 
d="M276 41h179l-66 -123q8 0 23.5 -3t54.5 -17.5t68.5 -35t54 -62.5t24.5 -97q0 -102 -74.5 -168.5t-201.5 -66.5q-78 0 -146.5 28.5t-99.5 57.5l-31 26l93 154q66 -61 133 -62q61 0 61 52q0 16 -14.5 28t-36.5 12l-51 -10l-62 82z" />
    <glyph glyph-name="uni00B9" unicode="&#xb9;" horiz-adv-x="512" 
d="M184 1638h256v-737h-286v430h-123v205q49 6 88 31.5t53 48.5z" />
    <glyph glyph-name="ordmasculine" unicode="&#xba;" horiz-adv-x="839" 
d="M317 1085q0 -45 28 -73.5t75 -28.5t74.5 28.5t27.5 73.5t-27.5 74t-74.5 29t-75 -29t-28 -74zM799 1085.5q0 -147.5 -113 -258t-266.5 -110.5t-266 110.5t-112.5 258t112.5 258t266 110.5t266.5 -110.5t113 -258z" />
    <glyph glyph-name="guillemotright" unicode="&#xbb;" horiz-adv-x="1300" 
d="M860 492l-276 378h379l276 -378l-276 -379h-379zM338 492l-277 378h379l277 -378l-277 -379h-379z" />
    <glyph glyph-name="onequarter" unicode="&#xbc;" horiz-adv-x="1617" 
d="M154 0l890 1434h390l-891 -1434h-389zM205 1434h256v-738h-287v430h-123v205q49 6 88 32t54 48zM1516 737v-379h71v-245h-71v-113h-277v113h-317v225l327 399h267zM1147 338h102v133z" />
    <glyph glyph-name="onehalf" unicode="&#xbd;" horiz-adv-x="1689" 
d="M154 0l890 1434h390l-891 -1434h-389zM205 1434h256v-738h-287v430h-123v205q49 6 88 32t54 48zM1638 512q0 -53 -26.5 -100t-56 -72t-76.5 -56.5t-62 -43.5h211v-240h-594q0 100 32 177t77 118t90 70.5t76.5 52t31.5 43.5q0 16 -14 28.5t-37 12.5q-18 0 -32.5 -11.5
t-20.5 -23.5l-4 -12l-219 88q4 8 10 22.5t33.5 49t61.5 61t93.5 49.5t128.5 23q141 0 219 -66t78 -170z" />
    <glyph glyph-name="threequarters" unicode="&#xbe;" horiz-adv-x="1710" 
d="M246 0l891 1434h389l-891 -1434h-389zM1608 737v-379h71v-245h-71v-113h-277v113h-317v225l327 399h267zM1239 338h102v133zM512 1075q6 -2 14.5 -4t32 -14.5t40.5 -28.5t31.5 -46t14.5 -67q0 -92 -84 -160.5t-223 -68.5q-109 0 -190.5 31t-110.5 61l-27 31l133 143
q55 -61 133 -61q61 0 61.5 51t-71.5 51h-71v164h71q23 0 37 12.5t14 28.5t-14 28.5t-37 12.5q-25 0 -50.5 -13.5t-39.5 -25.5l-12 -12l-133 143q8 12 27.5 30.5t98.5 50.5t179 32q135 0 214 -61.5t79 -143.5q0 -49 -30 -90t-58 -57z" />
    <glyph glyph-name="questiondown" unicode="&#xbf;" horiz-adv-x="1064" 
d="M819 430q0 -72 -29.5 -127t-71.5 -89t-84 -60.5t-72 -54t-30 -58.5q0 -82 93 -82q49 0 88 22.5t53 47.5l12 22l389 -174q-6 -14 -18 -37.5t-60.5 -83t-108.5 -105.5t-166.5 -84t-229.5 -38q-252 0 -408 131t-156 309q0 92 33 165t83 119t102.5 85t98.5 86t62 98h400
q20 -51 20 -92zM840 819q0 -86 -63.5 -145.5t-162 -59.5t-162 59.5t-63.5 145.5t63.5 145.5t162 59.5t162 -59.5t63.5 -145.5z" />
    <glyph glyph-name="Agrave" unicode="&#xc0;" horiz-adv-x="1515" 
d="M860 625l-102 358l-103 -358h205zM963 276h-410l-82 -276h-491l522 1434h512l522 -1434h-492zM737 1935l185 -348h-359l-256 348h430z" />
    <glyph glyph-name="Aacute" unicode="&#xc1;" horiz-adv-x="1515" 
d="M860 625l-102 358l-103 -358h205zM963 276h-410l-82 -276h-491l522 1434h512l522 -1434h-492zM584 1587l184 348h430l-256 -348h-358z" />
    <glyph glyph-name="Acircumflex" unicode="&#xc2;" horiz-adv-x="1515" 
d="M860 625l-102 358l-103 -358h205zM963 276h-410l-82 -276h-491l522 1434h512l522 -1434h-492zM840 1587l-92 133l-93 -133h-368l286 348h349l286 -348h-368z" />
    <glyph glyph-name="Atilde" unicode="&#xc3;" horiz-adv-x="1515" 
d="M860 625l-102 358l-103 -358h205zM963 276h-410l-82 -276h-491l522 1434h512l522 -1434h-492zM696 1649q-31 0 -51 -22.5t-20 -59.5h-246q0 369 225 368q70 0 136.5 -41t88.5 -41q31 0 51.5 22.5t20.5 59.5h246q0 -369 -225 -368q-70 0 -136.5 41t-89.5 41z" />
    <glyph glyph-name="Adieresis" unicode="&#xc4;" horiz-adv-x="1515" 
d="M860 625l-102 358l-103 -358h205zM963 276h-410l-82 -276h-491l522 1434h512l522 -1434h-492zM317 1761q0 78 58.5 136.5t136.5 58.5t136.5 -58.5t58.5 -136.5t-58.5 -136t-136.5 -58t-136.5 58t-58.5 136zM809 1761q0 78 58.5 136.5t136 58.5t136 -58.5t58.5 -136.5
t-58.5 -136t-136 -58t-136 58t-58.5 136z" />
    <glyph glyph-name="Aring" unicode="&#xc5;" horiz-adv-x="1515" 
d="M860 625l-102 358l-103 -358h205zM963 276h-410l-82 -276h-491l522 1434h512l522 -1434h-492zM686 1792q0 -82 82 -82t82 82t-82 82t-82 -82zM1055 1792q0 -109 -83 -187.5t-204 -78.5t-204 78.5t-83 187.5t83 187.5t204 78.5t204 -78.5t83 -187.5z" />
    <glyph glyph-name="AE" unicode="&#xc6;" horiz-adv-x="2129" 
d="M1413 379h635v-379h-1096v291h-426l-157 -291h-471l798 1434h1332v-379h-615v-154h451v-348h-451v-174zM952 1055l-225 -400h225v400z" />
    <glyph glyph-name="Ccedilla" unicode="&#xc7;" horiz-adv-x="1540" 
d="M532 716.5q0 -147.5 102.5 -247.5t256.5 -100q59 0 117.5 16t98.5 41t70.5 49.5t47.5 40.5l14 16l270 -286q-8 -10 -23.5 -28.5t-71.5 -67t-119.5 -85t-167 -68.5t-214.5 -36l-22 -43q8 0 23.5 -3t54.5 -17.5t68.5 -35t54 -62.5t24.5 -97q0 -102 -74.5 -168.5
t-201.5 -66.5q-78 0 -146.5 28.5t-99.5 57.5l-31 26l92 154q66 -61 133 -62q61 0 62 52q0 16 -14.5 28t-36.5 12l-51 -10l-62 82l59 133q-293 45 -483 257t-190 491q0 311 233.5 534.5t575.5 223.5q117 0 224 -30t177 -72t123 -84t78 -72l22 -29l-276 -287q-6 6 -16.5 17.5
t-44 40t-70.5 50t-93.5 39t-113.5 17.5q-154 0 -256.5 -100.5t-102.5 -248z" />
    <glyph glyph-name="Egrave" unicode="&#xc8;" horiz-adv-x="1392" 
d="M614 379h697v-379h-1157v1434h1136v-379h-676v-154h512v-348h-512v-174zM737 1935l185 -348h-359l-256 348h430z" />
    <glyph glyph-name="Eacute" unicode="&#xc9;" horiz-adv-x="1392" 
d="M614 379h697v-379h-1157v1434h1136v-379h-676v-154h512v-348h-512v-174zM543 1587l184 348h430l-256 -348h-358z" />
    <glyph glyph-name="Ecircumflex" unicode="&#xca;" horiz-adv-x="1392" 
d="M614 379h697v-379h-1157v1434h1136v-379h-676v-154h512v-348h-512v-174zM809 1587l-92 133l-92 -133h-369l287 348h348l287 -348h-369z" />
    <glyph glyph-name="Edieresis" unicode="&#xcb;" horiz-adv-x="1392" 
d="M614 379h697v-379h-1157v1434h1136v-379h-676v-154h512v-348h-512v-174zM276 1761q0 78 58.5 136.5t136.5 58.5t136.5 -58.5t58.5 -136.5t-58.5 -136t-136.5 -58t-136.5 58t-58.5 136zM768 1761q0 78 58.5 136.5t136 58.5t136 -58.5t58.5 -136.5t-58.5 -136t-136 -58
t-136 58t-58.5 136z" />
    <glyph glyph-name="Igrave" unicode="&#xcc;" horiz-adv-x="768" 
d="M154 0v1434h460v-1434h-460zM379 1935l184 -348h-358l-256 348h430z" />
    <glyph glyph-name="Iacute" unicode="&#xcd;" horiz-adv-x="768" 
d="M154 0v1434h460v-1434h-460zM195 1587l184 348h430l-256 -348h-358z" />
    <glyph glyph-name="Icircumflex" unicode="&#xce;" horiz-adv-x="768" 
d="M154 0v1434h460v-1434h-460zM471 1587l-92 133l-92 -133h-369l287 348h348l287 -348h-369z" />
    <glyph glyph-name="Idieresis" unicode="&#xcf;" horiz-adv-x="768" 
d="M154 0v1434h460v-1434h-460zM-61 1761q0 78 59 136.5t135 58.5t135.5 -58.5t59.5 -136.5t-59.5 -136t-135.5 -58t-135 58t-59 136zM430 1761q0 78 59.5 136.5t135 58.5t135 -58.5t59.5 -136.5t-59.5 -136t-135 -58t-135 58t-59.5 136z" />
    <glyph glyph-name="Eth" unicode="&#xd0;" horiz-adv-x="1607" 
d="M184 1434h574q334 0 556 -210t222 -507t-222 -507t-556 -210h-574v553h-143v328h143v553zM758 1024h-113v-143h195v-328h-195v-143h113q137 0 227 88t90 219t-90 219t-227 88z" />
    <glyph glyph-name="Ntilde" unicode="&#xd1;" horiz-adv-x="1699" 
d="M1085 1434h461v-1434h-389l-543 696v-696h-460v1434h389l542 -697v697zM778 1649q-31 0 -51 -22.5t-20 -59.5h-246q0 369 225 368q70 0 136.5 -41t88.5 -41q31 0 51.5 22.5t20.5 59.5h246q0 -369 -225 -368q-70 0 -136.5 41t-89.5 41z" />
    <glyph glyph-name="Ograve" unicode="&#xd2;" horiz-adv-x="1761" 
d="M532 716.5q0 -145.5 101.5 -246.5t247 -101t247 101t101.5 246.5t-101.5 247t-247 101.5t-247 -101.5t-101.5 -247zM1690 717q0 -311 -233.5 -534.5t-575.5 -223.5t-575.5 223.5t-233.5 534.5t233.5 534.5t575.5 223.5t575.5 -223.5t233.5 -534.5zM870 1935l185 -348
h-359l-256 348h430z" />
    <glyph glyph-name="Oacute" unicode="&#xd3;" horiz-adv-x="1761" 
d="M532 716.5q0 -145.5 101.5 -246.5t247 -101t247 101t101.5 246.5t-101.5 247t-247 101.5t-247 -101.5t-101.5 -247zM1690 717q0 -311 -233.5 -534.5t-575.5 -223.5t-575.5 223.5t-233.5 534.5t233.5 534.5t575.5 223.5t575.5 -223.5t233.5 -534.5zM696 1587l185 348h430
l-256 -348h-359z" />
    <glyph glyph-name="Ocircumflex" unicode="&#xd4;" horiz-adv-x="1761" 
d="M532 716.5q0 -145.5 101.5 -246.5t247 -101t247 101t101.5 246.5t-101.5 247t-247 101.5t-247 -101.5t-101.5 -247zM1690 717q0 -311 -233.5 -534.5t-575.5 -223.5t-575.5 223.5t-233.5 534.5t233.5 534.5t575.5 223.5t575.5 -223.5t233.5 -534.5zM963 1587l-93 133
l-92 -133h-368l286 348h348l287 -348h-368z" />
    <glyph glyph-name="Otilde" unicode="&#xd5;" horiz-adv-x="1761" 
d="M532 716.5q0 -145.5 101.5 -246.5t247 -101t247 101t101.5 246.5t-101.5 247t-247 101.5t-247 -101.5t-101.5 -247zM1690 717q0 -311 -233.5 -534.5t-575.5 -223.5t-575.5 223.5t-233.5 534.5t233.5 534.5t575.5 223.5t575.5 -223.5t233.5 -534.5zM819 1659
q-31 0 -51 -22.5t-20 -59.5h-246q0 369 225 369q70 0 136.5 -41t88.5 -41q31 0 51.5 22.5t20.5 59.5h246q0 -369 -226 -369q-70 0 -136 41t-89 41z" />
    <glyph glyph-name="Odieresis" unicode="&#xd6;" horiz-adv-x="1761" 
d="M532 716.5q0 -145.5 101.5 -246.5t247 -101t247 101t101.5 246.5t-101.5 247t-247 101.5t-247 -101.5t-101.5 -247zM1690 717q0 -311 -233.5 -534.5t-575.5 -223.5t-575.5 223.5t-233.5 534.5t233.5 534.5t575.5 223.5t575.5 -223.5t233.5 -534.5zM430 1761
q0 78 59.5 136.5t135 58.5t135 -58.5t59.5 -136.5t-59.5 -136t-135 -58t-135 58t-59.5 136zM922 1761q0 78 59 136.5t135 58.5t135.5 -58.5t59.5 -136.5t-59.5 -136t-135.5 -58t-135 58t-59 136z" />
    <glyph glyph-name="multiply" unicode="&#xd7;" horiz-adv-x="1085" 
d="M788 635l226 -225l-246 -246l-225 225l-226 -225l-245 246l225 225l-225 225l245 246l226 -225l225 225l246 -246z" />
    <glyph glyph-name="Oslash" unicode="&#xd8;" horiz-adv-x="1761" 
d="M543 594l481 461q-51 31 -143 30q-147 0 -253 -107.5t-106 -260.5q0 -33 5 -63.5t10 -45.5zM1690 717q0 -311 -233.5 -534.5t-575.5 -223.5q-119 0 -231.5 30.5t-166.5 61.5l-53 31l-174 -164l-215 225l164 154q-14 20 -37 55t-59.5 145.5t-36.5 219.5q0 311 233.5 534.5
t575.5 223.5q123 0 235.5 -31t163.5 -62l51 -30l174 164l215 -226l-164 -153q14 -20 37 -55t60 -145.5t37 -219.5zM1219 840l-482 -461q51 -31 144 -31q147 0 252.5 107.5t105.5 261.5q0 33 -5 63.5t-9 44.5z" />
    <glyph glyph-name="Ugrave" unicode="&#xd9;" horiz-adv-x="1617" 
d="M809 369q86 0 150.5 68.5t64.5 166.5v830h461v-830q0 -279 -189.5 -462t-486.5 -183t-486.5 183.5t-189.5 461.5v830h461v-830q0 -98 64.5 -166.5t150.5 -68.5zM819 1935l185 -348h-359l-256 348h430z" />
    <glyph glyph-name="Uacute" unicode="&#xda;" horiz-adv-x="1617" 
d="M809 369q86 0 150.5 68.5t64.5 166.5v830h461v-830q0 -279 -189.5 -462t-486.5 -183t-486.5 183.5t-189.5 461.5v830h461v-830q0 -98 64.5 -166.5t150.5 -68.5zM635 1587l184 348h430l-256 -348h-358z" />
    <glyph glyph-name="Ucircumflex" unicode="&#xdb;" horiz-adv-x="1617" 
d="M809 369q86 0 150.5 68.5t64.5 166.5v830h461v-830q0 -279 -189.5 -462t-486.5 -183t-486.5 183.5t-189.5 461.5v830h461v-830q0 -98 64.5 -166.5t150.5 -68.5zM901 1587l-92 133l-92 -133h-369l287 348h348l287 -348h-369z" />
    <glyph glyph-name="Udieresis" unicode="&#xdc;" horiz-adv-x="1617" 
d="M809 369q86 0 150.5 68.5t64.5 166.5v830h461v-830q0 -279 -189.5 -462t-486.5 -183t-486.5 183.5t-189.5 461.5v830h461v-830q0 -98 64.5 -166.5t150.5 -68.5zM369 1761q0 78 59 136.5t135 58.5t135.5 -58.5t59.5 -136.5t-59.5 -136t-135.5 -58t-135 58t-59 136z
M860 1761q0 78 59.5 136.5t135 58.5t135 -58.5t59.5 -136.5t-59.5 -136t-135 -58t-135 58t-59.5 136z" />
    <glyph glyph-name="Yacute" unicode="&#xdd;" horiz-adv-x="1443" 
d="M973 1434h491l-512 -922v-512h-460v512l-512 922h491l246 -492h10zM543 1587l184 348h430l-256 -348h-358z" />
    <glyph glyph-name="Thorn" unicode="&#xde;" horiz-adv-x="1423" 
d="M614 1321h103q279 0 462 -171t183 -412.5t-183.5 -412.5t-461.5 -171h-103v-195h-460v1516h460v-154zM614 963v-451h21q127 0 196.5 61.5t69.5 164t-69.5 164t-196.5 61.5h-21z" />
    <glyph glyph-name="germandbls" unicode="&#xdf;" horiz-adv-x="1300" 
d="M973 778q10 -4 28.5 -11t64.5 -34.5t81 -63.5t63.5 -100.5t28.5 -138.5q0 -180 -147.5 -305t-397.5 -125h-80v358h82q45 0 74 28t29 75t-29 74.5t-74 27.5h-82v338h21q45 0 73.5 28.5t28.5 74.5q0 39 -28.5 65.5t-73.5 26.5q-47 0 -80 -37t-33 -96v-963h-409v967
q0 223 141 355t395 132q219 0 353.5 -114.5t134.5 -274.5q0 -90 -41 -162t-82 -98z" />
    <glyph glyph-name="agrave" unicode="&#xe0;" horiz-adv-x="1146" 
d="M1024 0h-410v113q-8 -14 -27.5 -37t-88 -59.5t-150.5 -36.5q-123 0 -210 85t-87 201q0 242 318 318l256 61q0 33 -33 57.5t-90 24.5q-49 0 -98.5 -23.5t-71.5 -46.5l-25 -22l-194 205q6 8 17 21t52 46t88 58.5t124 47t159 21.5q211 0 341 -117.5t130 -291.5v-625z
M512 276q47 0 80 37t33 97v30l-113 -30q-61 -16 -61 -72q0 -62 61 -62zM604 1475l184 -349h-358l-256 349h430z" />
    <glyph glyph-name="aacute" unicode="&#xe1;" horiz-adv-x="1146" 
d="M1024 0h-410v113q-8 -14 -27.5 -37t-88 -59.5t-150.5 -36.5q-123 0 -210 85t-87 201q0 242 318 318l256 61q0 33 -33 57.5t-90 24.5q-49 0 -98.5 -23.5t-71.5 -46.5l-25 -22l-194 205q6 8 17 21t52 46t88 58.5t124 47t159 21.5q211 0 341 -117.5t130 -291.5v-625z
M512 276q47 0 80 37t33 97v30l-113 -30q-61 -16 -61 -72q0 -62 61 -62zM389 1126l184 349h431l-256 -349h-359z" />
    <glyph glyph-name="acircumflex" unicode="&#xe2;" horiz-adv-x="1146" 
d="M1024 0h-410v113q-8 -14 -27.5 -37t-88 -59.5t-150.5 -36.5q-123 0 -210 85t-87 201q0 242 318 318l256 61q0 33 -33 57.5t-90 24.5q-49 0 -98.5 -23.5t-71.5 -46.5l-25 -22l-194 205q6 8 17 21t52 46t88 58.5t124 47t159 21.5q211 0 341 -117.5t130 -291.5v-625z
M512 276q47 0 80 37t33 97v30l-113 -30q-61 -16 -61 -72q0 -62 61 -62zM666 1126l-93 134l-92 -134h-368l286 349h349l286 -349h-368z" />
    <glyph glyph-name="atilde" unicode="&#xe3;" horiz-adv-x="1146" 
d="M1024 0h-410v113q-8 -14 -27.5 -37t-88 -59.5t-150.5 -36.5q-123 0 -210 85t-87 201q0 242 318 318l256 61q0 33 -33 57.5t-90 24.5q-49 0 -98.5 -23.5t-71.5 -46.5l-25 -22l-194 205q6 8 17 21t52 46t88 58.5t124 47t159 21.5q211 0 341 -117.5t130 -291.5v-625z
M512 276q47 0 80 37t33 97v30l-113 -30q-61 -16 -61 -72q0 -62 61 -62zM532 1188q-31 0 -51 -22.5t-20 -59.5h-246q0 369 225 369q70 0 136.5 -41t89.5 -41q31 0 51 22.5t20 59.5h246q0 -369 -225 -369q-70 0 -136.5 41t-89.5 41z" />
    <glyph glyph-name="adieresis" unicode="&#xe4;" horiz-adv-x="1146" 
d="M1024 0h-410v113q-8 -14 -27.5 -37t-88 -59.5t-150.5 -36.5q-123 0 -210 85t-87 201q0 242 318 318l256 61q0 33 -33 57.5t-90 24.5q-49 0 -98.5 -23.5t-71.5 -46.5l-25 -22l-194 205q6 8 17 21t52 46t88 58.5t124 47t159 21.5q211 0 341 -117.5t130 -291.5v-625z
M512 276q47 0 80 37t33 97v30l-113 -30q-61 -16 -61 -72q0 -62 61 -62zM143 1300.5q0 75.5 59.5 135t135.5 59.5t135 -59.5t59 -135t-59 -135t-135 -59.5t-135.5 59.5t-59.5 135zM635 1300.5q0 75.5 59.5 135t135 59.5t135 -59.5t59.5 -135t-59.5 -135t-135 -59.5t-135 59.5
t-59.5 135z" />
    <glyph glyph-name="aring" unicode="&#xe5;" horiz-adv-x="1146" 
d="M1024 0h-410v113q-8 -14 -27.5 -37t-88 -59.5t-150.5 -36.5q-123 0 -210 85t-87 201q0 242 318 318l256 61q0 33 -33 57.5t-90 24.5q-49 0 -98.5 -23.5t-71.5 -46.5l-25 -22l-194 205q6 8 17 21t52 46t88 58.5t124 47t159 21.5q211 0 341 -117.5t130 -291.5v-625z
M512 276q47 0 80 37t33 97v30l-113 -30q-61 -16 -61 -72q0 -62 61 -62zM512 1352q0 -82 82 -82t82 82t-82 82t-82 -82zM881 1351.5q0 -108.5 -83 -187.5t-204 -79t-204 79t-83 187.5t83 187.5t204 79t204 -79t83 -187.5z" />
    <glyph glyph-name="ae" unicode="&#xe6;" horiz-adv-x="1771" 
d="M522 1034q92 0 171 -38t114 -74l33 -37q4 6 14 16t44 36t71 45t96 35.5t123 16.5q215 0 368.5 -151.5t153.5 -360.5q0 -33 -5 -60.5t-9 -39.5l-6 -12h-635q37 -113 205 -113q49 0 98 17.5t72 35.5l24 19l154 -256q-6 -6 -18.5 -15.5t-52.5 -33t-84 -42t-113.5 -33
t-141.5 -14.5t-136.5 16.5t-105.5 39t-70.5 46t-41.5 40.5l-15 16q-4 -6 -13 -17.5t-44 -38t-77 -47t-113.5 -38t-151.5 -17.5q-176 0 -277.5 85t-101.5 210q0 279 338 328l246 37q0 41 -32 66.5t-91 25.5q-55 0 -103.5 -23.5t-68.5 -46.5l-23 -22l-194 205q6 8 16.5 21
t47 46t79.5 58.5t112.5 47t143.5 21.5zM502 276q55 0 94 43t39 111l-103 -10q-45 -4 -73.5 -27.5t-28.5 -54.5q0 -25 20.5 -43.5t51.5 -18.5zM1167 727q-45 0 -80.5 -32.5t-52.5 -80.5h266q-16 47 -52 80t-81 33z" />
    <glyph glyph-name="ccedilla" unicode="&#xe7;" horiz-adv-x="1116" 
d="M51 502q0 219 166 375.5t408 156.5q86 0 163.5 -22.5t128 -54t88 -62.5t54.5 -53l16 -23l-246 -246q-6 10 -19 25.5t-59 41.5t-96 26q-76 0 -125 -47.5t-49 -117t49.5 -116.5t124.5 -47q49 0 93.5 23.5t62.5 46.5l18 22l246 -246q-6 -8 -16 -21t-48 -48t-82 -62.5
t-117 -52.5t-150 -29l-27 -53q8 0 23.5 -3t54.5 -17.5t68.5 -35t54 -62.5t24.5 -97q0 -102 -74.5 -168.5t-201.5 -66.5q-78 0 -146.5 28.5t-99.5 57.5l-31 26l92 154q66 -61 133 -62q61 0 62 52q0 16 -14.5 28t-36.5 12l-51 -10l-62 82l66 148q-197 39 -321 185.5
t-124 332.5z" />
    <glyph glyph-name="egrave" unicode="&#xe8;" horiz-adv-x="1208" 
d="M1126 410h-645q18 -45 69.5 -79t135.5 -34q55 0 103.5 17.5t70.5 35.5l21 19l163 -256q-18 -16 -52 -40t-143.5 -64t-223.5 -40q-242 0 -408 157t-166 376t160 375.5t393 156.5q227 0 385 -151.5t158 -360.5q0 -33 -5 -60.5t-12 -39.5zM604 727q-45 0 -81 -32.5
t-52 -80.5h266q-16 47 -52 80t-81 33zM614 1475l185 -349h-359l-256 349h430z" />
    <glyph glyph-name="eacute" unicode="&#xe9;" horiz-adv-x="1208" 
d="M1126 410h-645q18 -45 69.5 -79t135.5 -34q55 0 103.5 17.5t70.5 35.5l21 19l163 -256q-18 -16 -52 -40t-143.5 -64t-223.5 -40q-242 0 -408 157t-166 376t160 375.5t393 156.5q227 0 385 -151.5t158 -360.5q0 -33 -5 -60.5t-12 -39.5zM604 727q-45 0 -81 -32.5
t-52 -80.5h266q-16 47 -52 80t-81 33zM420 1126l184 349h430l-256 -349h-358z" />
    <glyph glyph-name="ecircumflex" unicode="&#xea;" horiz-adv-x="1208" 
d="M1126 410h-645q18 -45 69.5 -79t135.5 -34q55 0 103.5 17.5t70.5 35.5l21 19l163 -256q-18 -16 -52 -40t-143.5 -64t-223.5 -40q-242 0 -408 157t-166 376t160 375.5t393 156.5q227 0 385 -151.5t158 -360.5q0 -33 -5 -60.5t-12 -39.5zM604 727q-45 0 -81 -32.5
t-52 -80.5h266q-16 47 -52 80t-81 33zM686 1126l-92 134l-92 -134h-369l287 349h348l287 -349h-369z" />
    <glyph glyph-name="edieresis" unicode="&#xeb;" horiz-adv-x="1208" 
d="M1126 410h-645q18 -45 69.5 -79t135.5 -34q55 0 103.5 17.5t70.5 35.5l21 19l163 -256q-18 -16 -52 -40t-143.5 -64t-223.5 -40q-242 0 -408 157t-166 376t160 375.5t393 156.5q227 0 385 -151.5t158 -360.5q0 -33 -5 -60.5t-12 -39.5zM604 727q-45 0 -81 -32.5
t-52 -80.5h266q-16 47 -52 80t-81 33zM154 1300.5q0 75.5 58 135t136 59.5t136.5 -59.5t58.5 -135t-58.5 -135t-136.5 -59.5t-136 59.5t-58 135zM645 1300.5q0 75.5 58.5 135t136.5 59.5t136 -59.5t58 -135t-58 -135t-136 -59.5t-136.5 59.5t-58.5 135z" />
    <glyph glyph-name="igrave" unicode="&#xec;" horiz-adv-x="655" 
d="M307 1475l185 -349h-359l-256 349h430zM522 1004v-1004h-409v1004h409z" />
    <glyph glyph-name="iacute" unicode="&#xed;" horiz-adv-x="655" 
d="M133 1126l184 349h431l-256 -349h-359zM522 1004v-1004h-409v1004h409z" />
    <glyph glyph-name="icircumflex" unicode="&#xee;" horiz-adv-x="675" 
d="M526 1004v-1004h-409v1004h409zM410 1126l-93 134l-92 -134h-368l286 349h349l286 -349h-368z" />
    <glyph glyph-name="idieresis" unicode="&#xef;" horiz-adv-x="655" 
d="M-123 1300.5q0 75.5 59.5 135t135 59.5t135 -59.5t59.5 -135t-59.5 -135t-135 -59.5t-135 59.5t-59.5 135zM369 1300.5q0 75.5 59 135t135 59.5t135.5 -59.5t59.5 -135t-59.5 -135t-135.5 -59.5t-135 59.5t-59 135zM522 1004v-1004h-409v1004h409z" />
    <glyph glyph-name="eth" unicode="&#xf0;" horiz-adv-x="1259" 
d="M768 870q-23 74 -67 135.5t-74 86.5l-33 24l-195 -123l-143 205l61 51q-51 20 -133 41l92 297q109 -27 201 -57.5t129 -46.5l39 -19l225 144l154 -205l-143 -103q12 -10 31.5 -29.5t68.5 -85t87 -139t68.5 -191.5t30.5 -241q0 -295 -159.5 -467t-423.5 -172
q-233 0 -388 145.5t-155 350.5q0 199 144.5 345.5t336.5 146.5q74 0 135.5 -22.5t85.5 -47.5zM727 471q0 53 -40 93t-93 40q-47 0 -85 -40t-38 -93t38 -93t85 -40q53 0 93 40t40 93z" />
    <glyph glyph-name="ntilde" unicode="&#xf1;" horiz-adv-x="1269" 
d="M512 1004v-123q10 16 30.5 39.5t92.5 63.5t153 40q158 0 258.5 -112.5t100.5 -307.5v-604h-410v512q0 53 -31.5 88t-76.5 35t-81 -44t-36 -110v-481h-410v1004h410zM563 1188q-31 0 -51 -22.5t-20 -59.5h-246q0 369 225 369q70 0 136.5 -41t88.5 -41q31 0 51.5 22.5
t20.5 59.5h246q0 -369 -226 -369q-70 0 -136 41t-89 41z" />
    <glyph glyph-name="ograve" unicode="&#xf2;" horiz-adv-x="1269" 
d="M481 501.5q0 -67.5 41 -110.5t102.5 -43t102.5 43t41 110.5t-41 110.5t-102.5 43t-102.5 -43t-41 -110.5zM1198 502q0 -219 -166 -376t-407.5 -157t-407.5 157t-166 376t166 375.5t407.5 156.5t407.5 -156.5t166 -375.5zM625 1475l184 -349h-358l-256 349h430z" />
    <glyph glyph-name="oacute" unicode="&#xf3;" horiz-adv-x="1269" 
d="M481 501.5q0 -67.5 41 -110.5t102.5 -43t102.5 43t41 110.5t-41 110.5t-102.5 43t-102.5 -43t-41 -110.5zM1198 502q0 -219 -166 -376t-407.5 -157t-407.5 157t-166 376t166 375.5t407.5 156.5t407.5 -156.5t166 -375.5zM430 1126l184 349h430l-256 -349h-358z" />
    <glyph glyph-name="ocircumflex" unicode="&#xf4;" horiz-adv-x="1269" 
d="M481 501.5q0 -67.5 41 -110.5t102.5 -43t102.5 43t41 110.5t-41 110.5t-102.5 43t-102.5 -43t-41 -110.5zM1198 502q0 -219 -166 -376t-407.5 -157t-407.5 157t-166 376t166 375.5t407.5 156.5t407.5 -156.5t166 -375.5zM707 1126l-93 134l-92 -134h-368l286 349h348
l287 -349h-368z" />
    <glyph glyph-name="otilde" unicode="&#xf5;" horiz-adv-x="1269" 
d="M481 501.5q0 -67.5 41 -110.5t102.5 -43t102.5 43t41 110.5t-41 110.5t-102.5 43t-102.5 -43t-41 -110.5zM1198 502q0 -219 -166 -376t-407.5 -157t-407.5 157t-166 376t166 375.5t407.5 156.5t407.5 -156.5t166 -375.5zM553 1188q-31 0 -51.5 -22.5t-20.5 -59.5h-245
q0 369 225 369q70 0 136.5 -41t88.5 -41q31 0 51.5 22.5t20.5 59.5h246q0 -369 -226 -369q-70 0 -136 41t-89 41z" />
    <glyph glyph-name="odieresis" unicode="&#xf6;" horiz-adv-x="1269" 
d="M481 501.5q0 -67.5 41 -110.5t102.5 -43t102.5 43t41 110.5t-41 110.5t-102.5 43t-102.5 -43t-41 -110.5zM1198 502q0 -219 -166 -376t-407.5 -157t-407.5 157t-166 376t166 375.5t407.5 156.5t407.5 -156.5t166 -375.5zM174 1300.5q0 75.5 58.5 135t136 59.5t136 -59.5
t58.5 -135t-58.5 -135t-136 -59.5t-136 59.5t-58.5 135zM666 1300.5q0 75.5 58 135t136 59.5t136.5 -59.5t58.5 -135t-58.5 -135t-136.5 -59.5t-136 59.5t-58 135z" />
    <glyph glyph-name="divide" unicode="&#xf7;" horiz-adv-x="1085" 
d="M1024 737v-266h-963v266h963zM328 1014q0 86 58 140t156.5 54t157 -54t58.5 -140t-58.5 -140.5t-157 -54.5t-156.5 54.5t-58 140.5zM1024 737h-963v-266h963v266zM328 195q0 86 58 140t156.5 54t157 -54t58.5 -140t-58.5 -140.5t-157 -54.5t-156.5 54.5t-58 140.5z" />
    <glyph glyph-name="oslash" unicode="&#xf8;" horiz-adv-x="1269" 
d="M625 -31q-82 0 -150.5 15.5t-97.5 31.5l-29 15l-112 -113l-185 184l103 103q-12 14 -28.5 38.5t-45.5 102.5t-29 156q0 219 166 375.5t408 156.5q82 0 150.5 -15t96.5 -32l29 -14l113 112l184 -184l-102 -102q12 -14 28.5 -39t45 -102.5t28.5 -155.5q0 -219 -165.5 -376
t-407.5 -157zM625 307q80 0 132 54.5t52 140.5zM625 696q-80 0 -132.5 -54t-52.5 -140z" />
    <glyph glyph-name="ugrave" unicode="&#xf9;" 
d="M737 0v113q-10 -14 -28.5 -37t-89 -59.5t-154.5 -36.5q-160 0 -261.5 111.5t-101.5 301.5v611h410v-523q0 -53 28.5 -82.5t77.5 -29.5q53 0 86 37.5t33 105.5v492h410v-1004h-410zM625 1475l184 -349h-358l-256 349h430z" />
    <glyph glyph-name="uacute" unicode="&#xfa;" 
d="M737 0v113q-10 -14 -28.5 -37t-89 -59.5t-154.5 -36.5q-160 0 -261.5 111.5t-101.5 301.5v611h410v-523q0 -53 28.5 -82.5t77.5 -29.5q53 0 86 37.5t33 105.5v492h410v-1004h-410zM430 1126l184 349h430l-256 -349h-358z" />
    <glyph glyph-name="ucircumflex" unicode="&#xfb;" 
d="M737 0v113q-10 -14 -28.5 -37t-89 -59.5t-154.5 -36.5q-160 0 -261.5 111.5t-101.5 301.5v611h410v-523q0 -53 28.5 -82.5t77.5 -29.5q53 0 86 37.5t33 105.5v492h410v-1004h-410zM707 1126l-93 134l-92 -134h-368l286 349h348l287 -349h-368z" />
    <glyph glyph-name="udieresis" unicode="&#xfc;" 
d="M737 0v113q-10 -14 -28.5 -37t-89 -59.5t-154.5 -36.5q-160 0 -261.5 111.5t-101.5 301.5v611h410v-523q0 -53 28.5 -82.5t77.5 -29.5q53 0 86 37.5t33 105.5v492h410v-1004h-410zM174 1300.5q0 75.5 58.5 135t136 59.5t136 -59.5t58.5 -135t-58.5 -135t-136 -59.5
t-136 59.5t-58.5 135zM666 1300.5q0 75.5 58 135t136 59.5t136.5 -59.5t58.5 -135t-58.5 -135t-136.5 -59.5t-136 59.5t-58 135z" />
    <glyph glyph-name="yacute" unicode="&#xfd;" horiz-adv-x="1126" 
d="M174 -51q94 0 158 92l-352 963h419l154 -533l154 533h419l-368 -1014q-152 -420 -461 -420q-57 0 -113.5 10t-85.5 21l-26 10v358q41 -20 102 -20zM379 1130l184 349h430l-256 -349h-358z" />
    <glyph glyph-name="thorn" unicode="&#xfe;" horiz-adv-x="1331" 
d="M532 501.5q0 -69.5 42 -111.5t112 -42q61 0 102 43t41 110.5t-40.5 110.5t-102.5 43q-70 0 -112 -42t-42 -111.5zM532 123v-553h-409v1864h409v-553q4 6 10.5 15t31 33.5t54 44t78 35t103.5 15.5q182 0 311 -147.5t129 -374.5q0 -229 -129 -375.5t-311 -146.5
q-55 0 -103.5 14t-79 35.5t-53 43t-32.5 36.5z" />
    <glyph glyph-name="ydieresis" unicode="&#xff;" horiz-adv-x="1126" 
d="M174 -51q94 0 158 92l-352 963h419l154 -533l154 533h419l-368 -1014q-152 -420 -461 -420q-57 0 -113.5 10t-85.5 21l-26 10v358q41 -20 102 -20zM113 1304.5q0 75.5 58 135t136 59.5t136.5 -59.5t58.5 -135t-58.5 -135t-136.5 -59.5t-136 59.5t-58 135zM604 1304.5
q0 75.5 58.5 135t136.5 59.5t136 -59.5t58 -135t-58 -135t-136 -59.5t-136.5 59.5t-58.5 135z" />
    <glyph glyph-name="Amacron" unicode="&#x100;" horiz-adv-x="1515" 
d="M860 625l-102 358l-103 -358h205zM963 276h-410l-82 -276h-491l522 1434h512l522 -1434h-492zM1106 1935v-307h-696v307h696z" />
    <glyph glyph-name="amacron" unicode="&#x101;" horiz-adv-x="1146" 
d="M1024 0h-410v113q-8 -14 -27.5 -37t-88 -59.5t-150.5 -36.5q-123 0 -210 85t-87 201q0 242 318 318l256 61q0 33 -33 57.5t-90 24.5q-49 0 -98.5 -23.5t-71.5 -46.5l-25 -22l-194 205q6 8 17 21t52 46t88 58.5t124 47t159 21.5q211 0 341 -117.5t130 -291.5v-625z
M512 276q47 0 80 37t33 97v30l-113 -30q-61 -16 -61 -72q0 -62 61 -62zM952 1485v-307h-696v307h696z" />
    <glyph glyph-name="Abreve" unicode="&#x102;" horiz-adv-x="1515" 
d="M860 625l-102 358l-103 -358h205zM963 276h-410l-82 -276h-491l522 1434h512l522 -1434h-492zM758 1587q-158 0 -263.5 100.5t-105.5 247.5h287q0 -92 82 -92t82 92h286q0 -147 -104 -247.5t-264 -100.5z" />
    <glyph glyph-name="abreve" unicode="&#x103;" horiz-adv-x="1146" 
d="M1024 0h-410v113q-8 -14 -27.5 -37t-88 -59.5t-150.5 -36.5q-123 0 -210 85t-87 201q0 242 318 318l256 61q0 33 -33 57.5t-90 24.5q-49 0 -98.5 -23.5t-71.5 -46.5l-25 -22l-194 205q6 8 17 21t52 46t88 58.5t124 47t159 21.5q211 0 341 -117.5t130 -291.5v-625z
M512 276q47 0 80 37t33 97v30l-113 -30q-61 -16 -61 -72q0 -62 61 -62zM594 1126q-158 0 -263.5 100.5t-105.5 248.5h287q0 -92 82 -92.5t82 92.5h287q0 -147 -104.5 -248t-264.5 -101z" />
    <glyph glyph-name="Aogonek" unicode="&#x104;" horiz-adv-x="1515" 
d="M1044 0l-81 276h-410l-82 -276h-491l522 1434h512l522 -1434h-328q-51 -102 -51 -205q0 -82 82 -82q23 0 46.5 8.5t33.5 16.5l12 6v-215q-72 -41 -194 -41q-113 0 -190 72.5t-77 173.5q0 72 44 138.5t87 96.5zM860 625l-102 358l-103 -358h205z" />
    <glyph glyph-name="aogonek" unicode="&#x105;" horiz-adv-x="1146" 
d="M1024 0h-246q-61 -102 -61 -205q0 -82 82 -82q23 0 46 8.5t36 16.5l10 6v-215q-72 -41 -195 -41q-113 0 -189.5 72.5t-76.5 173.5q0 45 19.5 90t46 74.5t53 54t45.5 35.5l20 12v113q-8 -14 -27.5 -37t-88 -59.5t-150.5 -36.5q-123 0 -210 85t-87 201q0 242 318 318
l256 61q0 33 -33 57.5t-90 24.5q-49 0 -98.5 -23.5t-71.5 -46.5l-25 -22l-194 205q6 8 17 21t52 46t88 58.5t124 47t159 21.5q211 0 341 -117.5t130 -291.5v-625zM512 276q47 0 80 37t33 97v30l-113 -30q-61 -16 -61 -72q0 -62 61 -62z" />
    <glyph glyph-name="Cacute" unicode="&#x106;" horiz-adv-x="1540" 
d="M532 716.5q0 -147.5 102.5 -247.5t256.5 -100q59 0 117.5 16t98.5 41t70.5 49.5t47.5 40.5l14 16l270 -286q-8 -12 -24.5 -31.5t-75.5 -69t-125.5 -87.5t-176.5 -68.5t-226 -30.5q-342 0 -575.5 223.5t-233.5 534.5t233.5 534.5t575.5 223.5q117 0 224 -30t177 -72
t123 -84t78 -72l22 -29l-276 -287q-6 6 -16.5 17.5t-44 40t-70.5 50t-93.5 39t-113.5 17.5q-154 0 -256.5 -100.5t-102.5 -248zM666 1587l184 348h430l-256 -348h-358z" />
    <glyph glyph-name="cacute" unicode="&#x107;" horiz-adv-x="1116" 
d="M51 502q0 219 166 375.5t408 156.5q86 0 163.5 -22.5t128 -54t88 -62.5t54.5 -53l16 -23l-246 -246q-6 10 -19 25.5t-59 41.5t-96 26q-76 0 -125 -47.5t-49 -117t49.5 -116.5t124.5 -47q49 0 93.5 23.5t62.5 46.5l18 22l246 -246q-6 -8 -17 -22.5t-52 -52t-89.5 -65.5
t-127 -51.5t-164.5 -23.5q-242 0 -408 157t-166 376zM420 1126l184 349h430l-256 -349h-358z" />
    <glyph glyph-name="Ccircumflex" unicode="&#x108;" horiz-adv-x="1540" 
d="M532 716.5q0 -147.5 102.5 -247.5t256.5 -100q59 0 117.5 16t98.5 41t70.5 49.5t47.5 40.5l14 16l270 -286q-8 -12 -24.5 -31.5t-75.5 -69t-125.5 -87.5t-176.5 -68.5t-226 -30.5q-342 0 -575.5 223.5t-233.5 534.5t233.5 534.5t575.5 223.5q117 0 224 -30t177 -72
t123 -84t78 -72l22 -29l-276 -287q-6 6 -16.5 17.5t-44 40t-70.5 50t-93.5 39t-113.5 17.5q-154 0 -256.5 -100.5t-102.5 -248zM942 1587l-92 133l-92 -133h-369l287 348h348l287 -348h-369z" />
    <glyph glyph-name="ccircumflex" unicode="&#x109;" horiz-adv-x="1116" 
d="M51 502q0 219 166 375.5t408 156.5q86 0 163.5 -22.5t128 -54t88 -62.5t54.5 -53l16 -23l-246 -246q-6 10 -19 25.5t-59 41.5t-96 26q-76 0 -125 -47.5t-49 -117t49.5 -116.5t124.5 -47q49 0 93.5 23.5t62.5 46.5l18 22l246 -246q-6 -8 -17 -22.5t-52 -52t-89.5 -65.5
t-127 -51.5t-164.5 -23.5q-242 0 -408 157t-166 376zM696 1126l-92 134l-92 -134h-369l287 349h348l287 -349h-369z" />
    <glyph glyph-name="Ccaron" unicode="&#x10c;" horiz-adv-x="1540" 
d="M532 716.5q0 -147.5 102.5 -247.5t256.5 -100q59 0 117.5 16t98.5 41t70.5 49.5t47.5 40.5l14 16l270 -286q-8 -12 -24.5 -31.5t-75.5 -69t-125.5 -87.5t-176.5 -68.5t-226 -30.5q-342 0 -575.5 223.5t-233.5 534.5t233.5 534.5t575.5 223.5q117 0 224 -30t177 -72
t123 -84t78 -72l22 -29l-276 -287q-6 6 -16.5 17.5t-44 40t-70.5 50t-93.5 39t-113.5 17.5q-154 0 -256.5 -100.5t-102.5 -248zM850 1802l92 133h369l-287 -348h-348l-287 348h369z" />
    <glyph glyph-name="ccaron" unicode="&#x10d;" horiz-adv-x="1116" 
d="M51 502q0 219 166 375.5t408 156.5q86 0 163.5 -22.5t128 -54t88 -62.5t54.5 -53l16 -23l-246 -246q-6 10 -19 25.5t-59 41.5t-96 26q-76 0 -125 -47.5t-49 -117t49.5 -116.5t124.5 -47q49 0 93.5 23.5t62.5 46.5l18 22l246 -246q-6 -8 -17 -22.5t-52 -52t-89.5 -65.5
t-127 -51.5t-164.5 -23.5q-242 0 -408 157t-166 376zM604 1341l92 134h369l-287 -349h-348l-287 349h369z" />
    <glyph glyph-name="Dcaron" unicode="&#x10e;" horiz-adv-x="1576" 
d="M154 1434h573q334 0 556 -210t222 -507t-222 -507t-556 -210h-573v1434zM727 1024h-113v-614h113q137 0 227 88t90 219t-90 219t-227 88zM782 1802l92 133h369l-287 -348h-348l-286 348h368z" />
    <glyph glyph-name="dcaron" unicode="&#x10f;" horiz-adv-x="1525" 
d="M778 501.5q0 69.5 -42 111.5t-111 42q-61 0 -102.5 -43t-41.5 -110.5t41 -110.5t103 -43q70 0 111.5 42t41.5 111.5zM778 881v553h410v-1434h-410v123q-4 -6 -10 -15.5t-30.5 -34t-54.5 -44t-78 -34.5t-103 -15q-182 0 -311.5 147t-129.5 375q0 229 129 375.5t312 146.5
q55 0 103 -14.5t79 -36t53.5 -43t32.5 -35.5zM1219 1085l112 349h389l-164 -349h-337z" />
    <glyph glyph-name="Dcroat" unicode="&#x110;" horiz-adv-x="1607" 
d="M184 1434h574q334 0 556 -210t222 -507t-222 -507t-556 -210h-574v553h-143v328h143v553zM758 1024h-113v-143h195v-328h-195v-143h113q137 0 227 88t90 219t-90 219t-227 88z" />
    <glyph glyph-name="dcroat" unicode="&#x111;" horiz-adv-x="1320" 
d="M553 963v348h195v123h409v-123h154v-348h-154v-963h-409v113q-10 -14 -29 -37t-89.5 -59.5t-154.5 -36.5q-174 0 -304 137t-130 333.5t129 334t301 137.5q55 0 103.5 -13.5t79 -33t53 -40t30.5 -32.5l11 -15v175h-195zM604.5 307q61.5 0 102.5 41t41 102.5t-41 102.5
t-102.5 41t-102.5 -41t-41 -102.5t41 -102.5t102.5 -41z" />
    <glyph glyph-name="Emacron" unicode="&#x112;" horiz-adv-x="1392" 
d="M614 379h697v-379h-1157v1434h1136v-379h-676v-154h512v-348h-512v-174zM1075 1935v-307h-696v307h696z" />
    <glyph glyph-name="emacron" unicode="&#x113;" horiz-adv-x="1208" 
d="M1126 410h-645q18 -45 69.5 -79t135.5 -34q55 0 103.5 17.5t70.5 35.5l21 19l163 -256q-18 -16 -52 -40t-143.5 -64t-223.5 -40q-242 0 -408 157t-166 376t160 375.5t393 156.5q227 0 385 -151.5t158 -360.5q0 -33 -5 -60.5t-12 -39.5zM604 727q-45 0 -81 -32.5
t-52 -80.5h266q-16 47 -52 80t-81 33zM952 1464v-307h-696v307h696z" />
    <glyph glyph-name="Edotaccent" unicode="&#x116;" horiz-adv-x="1392" 
d="M614 379h697v-379h-1157v1434h1136v-379h-676v-154h512v-348h-512v-174zM973 1761q0 -86 -63.5 -145.5t-162 -59.5t-162 59.5t-63.5 145.5t63.5 145.5t162 59.5t162 -59.5t63.5 -145.5z" />
    <glyph glyph-name="edotaccent" unicode="&#x117;" horiz-adv-x="1208" 
d="M1126 410h-645q18 -45 69.5 -79t135.5 -34q55 0 103.5 17.5t70.5 35.5l21 19l163 -256q-18 -16 -52 -40t-143.5 -64t-223.5 -40q-242 0 -408 157t-166 376t160 375.5t393 156.5q227 0 385 -151.5t158 -360.5q0 -33 -5 -60.5t-12 -39.5zM604 727q-45 0 -81 -32.5
t-52 -80.5h266q-16 47 -52 80t-81 33zM829 1321q0 -86 -63.5 -145.5t-161.5 -59.5t-161.5 59.5t-63.5 145.5t63.5 145.5t161.5 59.5t161.5 -59.5t63.5 -145.5z" />
    <glyph glyph-name="Eogonek" unicode="&#x118;" horiz-adv-x="1392" 
d="M1147 0h-993v1434h1136v-379h-676v-154h512v-348h-512v-174h697v-379q-51 -102 -51 -205q0 -82 81 -82q23 0 46.5 8.5t33.5 16.5l13 6v-215q-72 -41 -195 -41q-113 0 -189.5 72.5t-76.5 173.5q0 72 44 138.5t87 96.5z" />
    <glyph glyph-name="eogonek" unicode="&#x119;" horiz-adv-x="1208" 
d="M1126 410h-645q18 -45 69.5 -79t135.5 -34q55 0 103.5 17.5t70.5 35.5l21 19l163 -256q-14 -12 -39.5 -31t-107.5 -55.5t-170 -49.5q-41 -100 -41 -182t82 -82q23 0 46.5 8.5t33.5 16.5l12 6v-215q-72 -41 -194 -41q-113 0 -190 72.5t-77 173.5q0 135 140 241
q-213 29 -350.5 178.5t-137.5 348.5q0 219 160 375.5t393 156.5q227 0 385 -151.5t158 -360.5q0 -33 -5 -60.5t-12 -39.5zM604 727q-45 0 -81 -32.5t-52 -80.5h266q-16 47 -52 80t-81 33z" />
    <glyph glyph-name="Ecaron" unicode="&#x11a;" horiz-adv-x="1392" 
d="M614 379h697v-379h-1157v1434h1136v-379h-676v-154h512v-348h-512v-174zM727 1802l92 133h369l-287 -348h-348l-287 348h369z" />
    <glyph glyph-name="ecaron" unicode="&#x11b;" horiz-adv-x="1208" 
d="M1126 410h-645q18 -45 69.5 -79t135.5 -34q55 0 103.5 17.5t70.5 35.5l21 19l163 -256q-18 -16 -52 -40t-143.5 -64t-223.5 -40q-242 0 -408 157t-166 376t160 375.5t393 156.5q227 0 385 -151.5t158 -360.5q0 -33 -5 -60.5t-12 -39.5zM604 727q-45 0 -81 -32.5
t-52 -80.5h266q-16 47 -52 80t-81 33zM594 1341l92 134h369l-287 -349h-348l-287 349h369z" />
    <glyph glyph-name="Gbreve" unicode="&#x11e;" horiz-adv-x="1658" 
d="M881 -41q-342 0 -575.5 223.5t-233.5 534.5t233.5 534.5t575.5 223.5q117 0 224 -30t177 -72t123 -84t78 -72l22 -29l-276 -287q-6 6 -16.5 17.5t-44 40t-70.5 50t-93.5 39t-113.5 17.5q-154 0 -256.5 -100.5t-102.5 -247.5q0 -145 101.5 -246.5t247.5 -101.5
q59 0 107 15t69 30l18 16v123h-205v256h666v-563q-10 -12 -28.5 -31.5t-81 -69t-133 -87.5t-183 -68.5t-229.5 -30.5zM850 1587q-158 0 -263.5 100.5t-105.5 247.5h287q0 -92 82 -92t82 92h287q0 -147 -104.5 -247.5t-264.5 -100.5z" />
    <glyph glyph-name="gbreve" unicode="&#x11f;" horiz-adv-x="1290" 
d="M768 133v62l-11 -16q-7 -11 -34 -37.5t-57.5 -47t-79.5 -37t-105 -16.5q-166 0 -298 144.5t-132 347t133 347t301 144.5q84 0 155 -36t99 -70l29 -37v123h410v-871q0 -242 -170 -402.5t-441 -160.5q-92 0 -177 22.5t-138 53t-94 62.5t-60 54l-16 23l225 225
q8 -10 24.5 -25.5t75 -41t125.5 -25.5q106 0 171 60.5t65 154.5zM481 532.5q0 -61.5 41 -102.5t102.5 -41t102.5 41t41 102.5t-41 102.5t-102.5 41t-102.5 -41t-41 -102.5zM639 1130q-158 0 -263.5 100.5t-105.5 248.5h287q0 -92 82 -92.5t82 92.5h287q0 -147 -104.5 -248
t-264.5 -101z" />
    <glyph glyph-name="uni0122" unicode="&#x122;" horiz-adv-x="1658" 
d="M881 -41q-342 0 -575.5 223.5t-233.5 534.5t233.5 534.5t575.5 223.5q117 0 224 -30t177 -72t123 -84t78 -72l22 -29l-276 -287q-6 6 -16.5 17.5t-44 40t-70.5 50t-93.5 39t-113.5 17.5q-154 0 -256.5 -100.5t-102.5 -247.5q0 -145 101.5 -246.5t247.5 -101.5
q59 0 107 15t69 30l18 16v123h-205v256h666v-563q-10 -12 -28.5 -31.5t-81 -69t-133 -87.5t-183 -68.5t-229.5 -30.5zM563 -512l113 348h389l-164 -348h-338z" />
    <glyph glyph-name="uni0123" unicode="&#x123;" horiz-adv-x="1290" 
d="M768 133v62l-11 -16q-7 -11 -34 -37.5t-57.5 -47t-79.5 -37t-105 -16.5q-166 0 -298 144.5t-132 347t133 347t301 144.5q84 0 155 -36t99 -70l29 -37v123h410v-871q0 -242 -170 -402.5t-441 -160.5q-92 0 -177 22.5t-138 53t-94 62.5t-60 54l-16 23l225 225
q8 -10 24.5 -25.5t75 -41t125.5 -25.5q106 0 171 60.5t65 154.5zM481 532.5q0 -61.5 41 -102.5t102.5 -41t102.5 41t41 102.5t-41 102.5t-102.5 41t-102.5 -41t-41 -102.5zM932 1475l-113 -349h-389l164 349h338z" />
    <glyph glyph-name="Imacron" unicode="&#x12a;" horiz-adv-x="768" 
d="M154 0v1434h460v-1434h-460zM727 1933v-307h-696v307h696z" />
    <glyph glyph-name="imacron" unicode="&#x12b;" horiz-adv-x="655" 
d="M666 1464v-307h-697v307h697zM522 1004v-1004h-409v1004h409z" />
    <glyph glyph-name="Iogonek" unicode="&#x12e;" horiz-adv-x="768" 
d="M154 0v1434h460v-1434h-297q-51 -102 -51 -205q0 -82 82 -82q23 0 46.5 8.5t35.5 16.5l10 6v-215q-72 -41 -194 -41q-113 0 -189.5 72.5t-76.5 173.5q0 45 18 89t43 74.5t50.5 54t43.5 36.5z" />
    <glyph glyph-name="iogonek" unicode="&#x12f;" horiz-adv-x="655" 
d="M113 0v1004h409v-1004h-246q-51 -102 -51 -205q0 -82 82 -82q23 0 46.5 8.5t35.5 16.5l10 6v-215q-72 -41 -194 -41q-113 0 -189.5 72.5t-76.5 173.5q0 45 18 89t43 74.5t50.5 54t43.5 36.5zM543 1311q0 -86 -63.5 -145.5t-162 -59.5t-162 59.5t-63.5 145.5t63.5 145.5
t162 59.5t162 -59.5t63.5 -145.5z" />
    <glyph glyph-name="Idotaccent" unicode="&#x130;" horiz-adv-x="768" 
d="M154 0v1434h460v-1434h-460zM614 1761q0 -86 -63.5 -145.5t-161.5 -59.5t-161.5 59.5t-63.5 145.5t63.5 145.5t161.5 59.5t161.5 -59.5t63.5 -145.5z" />
    <glyph glyph-name="dotlessi" unicode="&#x131;" horiz-adv-x="655" 
d="M522 1004v-1004h-409v1004h409z" />
    <glyph glyph-name="uni0136" unicode="&#x136;" horiz-adv-x="1536" 
d="M614 1434v-492l402 492h510l-492 -594l533 -840h-512l-318 502l-123 -154v-348h-460v1434h460zM532 -512l113 348h389l-164 -348h-338z" />
    <glyph glyph-name="uni0137" unicode="&#x137;" horiz-adv-x="1218" 
d="M1208 1004l-346 -431l357 -573h-431l-194 338l-72 -82v-256h-409v1434h409v-727l236 297h450zM348 -512l113 348h389l-164 -348h-338z" />
    <glyph glyph-name="Lacute" unicode="&#x139;" horiz-adv-x="1259" 
d="M1219 0h-1065v1434h460v-1014h605v-420zM215 1587l184 348h430l-256 -348h-358z" />
    <glyph glyph-name="lacute" unicode="&#x13a;" horiz-adv-x="655" 
d="M522 1434v-1434h-409v1434h409zM154 1587l184 348h430l-256 -348h-358z" />
    <glyph glyph-name="uni013B" unicode="&#x13b;" horiz-adv-x="1259" 
d="M1219 0h-1065v1434h460v-1014h605v-420zM410 -512l112 348h389l-163 -348h-338z" />
    <glyph glyph-name="uni013C" unicode="&#x13c;" horiz-adv-x="655" 
d="M522 1434v-1434h-409v1434h409zM10 -512l113 348h389l-164 -348h-338z" />
    <glyph glyph-name="Lcaron" unicode="&#x13d;" horiz-adv-x="1259" 
d="M1219 0h-1065v1434h460v-1014h605v-420zM686 1085l113 349h389l-164 -349h-338z" />
    <glyph glyph-name="lcaron" unicode="&#x13e;" horiz-adv-x="860" 
d="M522 1434v-1434h-409v1434h409zM563 1085l113 349h389l-164 -349h-338z" />
    <glyph glyph-name="Lslash" unicode="&#x141;" horiz-adv-x="1361" 
d="M1321 0h-1065v389l-113 -61l-194 348l307 174v584h461v-369l112 61l195 -348l-307 -174v-184h604v-420z" />
    <glyph glyph-name="lslash" unicode="&#x142;" horiz-adv-x="849" 
d="M614 1434v-379l113 71l174 -317l-287 -174v-635h-409v399l-103 -61l-174 307l277 164v625h409z" />
    <glyph glyph-name="Nacute" unicode="&#x143;" horiz-adv-x="1699" 
d="M1085 1434h461v-1434h-389l-543 696v-696h-460v1434h389l542 -697v697zM655 1587l185 348h430l-256 -348h-359z" />
    <glyph glyph-name="nacute" unicode="&#x144;" horiz-adv-x="1269" 
d="M512 1004v-123q10 16 30.5 39.5t92.5 63.5t153 40q158 0 258.5 -112.5t100.5 -307.5v-604h-410v512q0 53 -31.5 88t-76.5 35t-81 -44t-36 -110v-481h-410v1004h410zM440 1126l185 349h430l-256 -349h-359z" />
    <glyph glyph-name="uni0145" unicode="&#x145;" horiz-adv-x="1699" 
d="M1085 1434h461v-1434h-389l-543 696v-696h-460v1434h389l542 -697v697zM573 -512l113 348h389l-164 -348h-338z" />
    <glyph glyph-name="uni0146" unicode="&#x146;" horiz-adv-x="1269" 
d="M512 1004v-123q10 16 30.5 39.5t92.5 63.5t153 40q158 0 258.5 -112.5t100.5 -307.5v-604h-410v512q0 53 -31.5 88t-76.5 35t-81 -44t-36 -110v-481h-410v1004h410zM317 -512l113 348h389l-164 -348h-338z" />
    <glyph glyph-name="Ncaron" unicode="&#x147;" horiz-adv-x="1699" 
d="M1085 1434h461v-1434h-389l-543 696v-696h-460v1434h389l542 -697v697zM840 1802l92 133h368l-286 -348h-348l-287 348h369z" />
    <glyph glyph-name="ncaron" unicode="&#x148;" horiz-adv-x="1269" 
d="M512 1004v-123q10 16 30.5 39.5t92.5 63.5t153 40q158 0 258.5 -112.5t100.5 -307.5v-604h-410v512q0 53 -31.5 88t-76.5 35t-81 -44t-36 -110v-481h-410v1004h410zM614 1341l93 134h368l-287 -349h-348l-286 349h368z" />
    <glyph glyph-name="Omacron" unicode="&#x14c;" horiz-adv-x="1761" 
d="M532 716.5q0 -145.5 101.5 -246.5t247 -101t247 101t101.5 246.5t-101.5 247t-247 101.5t-247 -101.5t-101.5 -247zM1690 717q0 -311 -233.5 -534.5t-575.5 -223.5t-575.5 223.5t-233.5 534.5t233.5 534.5t575.5 223.5t575.5 -223.5t233.5 -534.5zM1229 1935v-307h-697
v307h697z" />
    <glyph glyph-name="omacron" unicode="&#x14d;" horiz-adv-x="1269" 
d="M481 501.5q0 -67.5 41 -110.5t102.5 -43t102.5 43t41 110.5t-41 110.5t-102.5 43t-102.5 -43t-41 -110.5zM1198 502q0 -219 -166 -376t-407.5 -157t-407.5 157t-166 376t166 375.5t407.5 156.5t407.5 -156.5t166 -375.5zM973 1464v-307h-697v307h697z" />
    <glyph glyph-name="Ohungarumlaut" unicode="&#x150;" horiz-adv-x="1761" 
d="M532 716.5q0 -145.5 101.5 -246.5t247 -101t247 101t101.5 246.5t-101.5 247t-247 101.5t-247 -101.5t-101.5 -247zM1690 717q0 -311 -233.5 -534.5t-575.5 -223.5t-575.5 223.5t-233.5 534.5t233.5 534.5t575.5 223.5t575.5 -223.5t233.5 -534.5zM492 1587l194 348h369
l-267 -348h-296zM952 1587l195 348h369l-267 -348h-297z" />
    <glyph glyph-name="ohungarumlaut" unicode="&#x151;" horiz-adv-x="1269" 
d="M481 501.5q0 -67.5 41 -110.5t102.5 -43t102.5 43t41 110.5t-41 110.5t-102.5 43t-102.5 -43t-41 -110.5zM1198 502q0 -219 -166 -376t-407.5 -157t-407.5 157t-166 376t166 375.5t407.5 156.5t407.5 -156.5t166 -375.5zM236 1126l194 349h369l-267 -349h-296zM696 1126
l195 349h369l-267 -349h-297z" />
    <glyph glyph-name="OE" unicode="&#x152;" horiz-adv-x="2088" 
d="M1382 379h625v-379h-1147q-340 0 -564 210t-224 507t224 507t564 210h1127v-379h-605v-154h441v-348h-441v-174zM532 717q0 -133 95.5 -220t253.5 -87h41v614h-41q-158 0 -253.5 -87t-95.5 -220z" />
    <glyph glyph-name="oe" unicode="&#x153;" horiz-adv-x="1914" 
d="M1831 410h-643q18 -45 69.5 -79t135.5 -34q55 0 103 17.5t69 35.5l22 19l164 -256q-18 -16 -52 -40t-143.5 -64t-224.5 -40q-104 0 -196.5 31t-130.5 61l-41 31q-14 -14 -43 -34.5t-119 -54.5t-187 -34q-236 0 -399.5 158t-163.5 375t164 374.5t399 157.5
q96 0 183.5 -27.5t126.5 -56.5l39 -28q14 12 42.5 30.5t118.5 50t185 31.5q227 0 385.5 -151.5t158.5 -360.5q0 -33 -5 -60.5t-11 -39.5zM614.5 348q55.5 0 94.5 43t39 110.5t-39 110.5t-94.5 43t-94.5 -43t-39 -110.5t39 -110.5t94.5 -43zM1311 727q-45 0 -81 -32.5
t-52 -80.5h266q-16 47 -52 80t-81 33z" />
    <glyph glyph-name="Racute" unicode="&#x154;" horiz-adv-x="1495" 
d="M154 0v1434h706q242 0 392.5 -146.5t150.5 -365.5q0 -86 -23.5 -161t-56.5 -121t-65.5 -79t-57.5 -45l-22 -14l276 -502h-481l-215 410h-144v-410h-460zM942 921.5q0 47.5 -29.5 75t-83.5 27.5h-215v-205h215q53 0 83 27.5t30 75zM563 1587l185 348h430l-256 -348h-359z
" />
    <glyph glyph-name="racute" unicode="&#x155;" horiz-adv-x="870" 
d="M819 1018v-424q-41 20 -102 20q-94 0 -149.5 -59t-55.5 -166v-389h-410v1004h410v-123l10 15q6 9 31 32.5t52.5 42t74.5 33t98 14.5h41zM266 1126l185 349h430l-256 -349h-359z" />
    <glyph glyph-name="uni0156" unicode="&#x156;" horiz-adv-x="1495" 
d="M154 0v1434h706q242 0 392.5 -146.5t150.5 -365.5q0 -86 -23.5 -161t-56.5 -121t-65.5 -79t-57.5 -45l-22 -14l276 -502h-481l-215 410h-144v-410h-460zM942 921.5q0 47.5 -29.5 75t-83.5 27.5h-215v-205h215q53 0 83 27.5t30 75zM481 -512l113 348h389l-164 -348h-338z
" />
    <glyph glyph-name="uni0157" unicode="&#x157;" horiz-adv-x="870" 
d="M819 1018v-424q-41 20 -102 20q-94 0 -149.5 -59t-55.5 -166v-389h-410v1004h410v-123l10 15q6 9 31 32.5t52.5 42t74.5 33t98 14.5h41zM0 -512l113 348h389l-164 -348h-338z" />
    <glyph glyph-name="Rcaron" unicode="&#x158;" horiz-adv-x="1495" 
d="M154 0v1434h706q242 0 392.5 -146.5t150.5 -365.5q0 -86 -23.5 -161t-56.5 -121t-65.5 -79t-57.5 -45l-22 -14l276 -502h-481l-215 410h-144v-410h-460zM942 921.5q0 47.5 -29.5 75t-83.5 27.5h-215v-205h215q53 0 83 27.5t30 75zM737 1802l92 133h369l-287 -348h-348
l-287 348h369z" />
    <glyph glyph-name="rcaron" unicode="&#x159;" horiz-adv-x="870" 
d="M819 1018v-424q-41 20 -102 20q-94 0 -149.5 -59t-55.5 -166v-389h-410v1004h410v-123l10 15q6 9 31 32.5t52.5 42t74.5 33t98 14.5h41zM451 1341l92 134h368l-286 -349h-349l-286 349h368z" />
    <glyph glyph-name="Sacute" unicode="&#x15a;" 
d="M707 451q0 29 -35 50t-89.5 39.5t-122 40t-134 56.5t-120.5 81t-89 124t-35 176q0 184 157.5 320.5t415.5 136.5q102 0 195.5 -21.5t152 -51.5t102.5 -59.5t62 -52.5l21 -20l-266 -277q-8 12 -25.5 28.5t-71 45.5t-108.5 29q-59 0 -91 -26t-32 -66q0 -33 46 -58.5
t115.5 -42t150.5 -51.5t150.5 -79t116 -131t46.5 -202q0 -199 -161 -340t-433 -141q-109 0 -211.5 25.5t-171 61.5t-120.5 72t-77 62l-25 25l267 266q14 -14 38.5 -36.5t97.5 -59.5t140.5 -37t105.5 33t38 80zM461 1587l184 348h430l-256 -348h-358z" />
    <glyph glyph-name="sacute" unicode="&#x15b;" horiz-adv-x="1003" 
d="M922 860l-185 -194q-51 51 -112 51q-35 0 -58.5 -16.5t-23.5 -34.5q0 -20 42 -39t102.5 -40.5t120.5 -52t102 -92t42 -145.5q0 -131 -125 -229.5t-335 -98.5q-94 0 -179.5 21.5t-137.5 51.5t-92 59.5t-56 50.5l-17 22l185 195q8 -10 25.5 -25.5t65.5 -41.5t93 -26
q37 0 59.5 18.5t22.5 43.5q0 20 -42 38.5t-102.5 39t-121 51.5t-102.5 92.5t-42 147.5q0 127 125 227t326 100q84 0 157.5 -18.5t119.5 -44t80 -50t48 -42.5zM297 1126l184 349h430l-256 -349h-358z" />
    <glyph glyph-name="Scedilla" unicode="&#x15e;" 
d="M707 451q0 29 -35 50t-89.5 39.5t-122 40t-134 56.5t-120.5 81t-89 124t-35 176q0 184 157.5 320.5t415.5 136.5q102 0 195.5 -21.5t152 -51.5t102.5 -59.5t62 -52.5l21 -20l-266 -277q-8 12 -25.5 28.5t-71 45.5t-108.5 29q-59 0 -91 -26t-32 -66q0 -33 46 -58.5
t115.5 -42t150.5 -51.5t150.5 -79t116 -131t46.5 -202q0 -184 -139.5 -321t-381.5 -156l-22 -45q8 0 23.5 -3t54.5 -17.5t68.5 -35t54 -62.5t24.5 -97q0 -102 -74.5 -168.5t-201.5 -66.5q-78 0 -146.5 28.5t-99.5 57.5l-31 26l92 154q66 -61 133 -62q61 0 62 52
q0 16 -14.5 28t-36.5 12l-52 -10l-61 82l57 129q-92 10 -178 38t-143 61.5t-101.5 65.5t-64.5 54l-21 21l267 266q14 -14 38.5 -36.5t97.5 -59.5t140.5 -37t105.5 33t38 80z" />
    <glyph glyph-name="scedilla" unicode="&#x15f;" horiz-adv-x="1003" 
d="M922 860l-185 -194q-51 51 -112 51q-35 0 -58.5 -16.5t-23.5 -34.5q0 -20 42 -39t102.5 -40.5t120.5 -52t102 -92t42 -145.5q0 -121 -107.5 -216t-293.5 -110l-29 -53q8 0 23.5 -3t54.5 -17.5t68.5 -35t54.5 -62.5t25 -97q0 -102 -75 -168.5t-202 -66.5
q-78 0 -146.5 28.5t-99.5 57.5l-30 26l92 154q66 -61 133 -62q61 0 61 52q0 16 -14 28t-37 12l-51 -10l-62 82l64 141q-74 10 -138.5 35t-105.5 51.5t-70.5 52t-41.5 42.5l-15 16l185 195q8 -10 25.5 -25.5t65.5 -41.5t93 -26q37 0 59.5 18.5t22.5 43.5q0 20 -42 38.5
t-102.5 39t-121 51.5t-102.5 92.5t-42 147.5q0 127 125 227t326 100q84 0 157.5 -18.5t119.5 -44t80 -50t48 -42.5z" />
    <glyph glyph-name="Scaron" unicode="&#x160;" 
d="M707 451q0 29 -35 50t-89.5 39.5t-122 40t-134 56.5t-120.5 81t-89 124t-35 176q0 184 157.5 320.5t415.5 136.5q102 0 195.5 -21.5t152 -51.5t102.5 -59.5t62 -52.5l21 -20l-266 -277q-8 12 -25.5 28.5t-71 45.5t-108.5 29q-59 0 -91 -26t-32 -66q0 -33 46 -58.5
t115.5 -42t150.5 -51.5t150.5 -79t116 -131t46.5 -202q0 -199 -161 -340t-433 -141q-109 0 -211.5 25.5t-171 61.5t-120.5 72t-77 62l-25 25l267 266q14 -14 38.5 -36.5t97.5 -59.5t140.5 -37t105.5 33t38 80zM645 1802l92 133h369l-287 -348h-348l-287 348h369z" />
    <glyph glyph-name="scaron" unicode="&#x161;" horiz-adv-x="1003" 
d="M922 860l-185 -194q-51 51 -112 51q-35 0 -58.5 -16.5t-23.5 -34.5q0 -20 42 -39t102.5 -40.5t120.5 -52t102 -92t42 -145.5q0 -131 -125 -229.5t-335 -98.5q-94 0 -179.5 21.5t-137.5 51.5t-92 59.5t-56 50.5l-17 22l185 195q8 -10 25.5 -25.5t65.5 -41.5t93 -26
q37 0 59.5 18.5t22.5 43.5q0 20 -42 38.5t-102.5 39t-121 51.5t-102.5 92.5t-42 147.5q0 127 125 227t326 100q84 0 157.5 -18.5t119.5 -44t80 -50t48 -42.5zM502 1341l92 134h369l-287 -349h-348l-287 349h369z" />
    <glyph glyph-name="uni0162" unicode="&#x162;" horiz-adv-x="1300" 
d="M41 1434h1219v-420h-379v-1014h-461v1014h-379v420zM338 -512l113 348h389l-164 -348h-338z" />
    <glyph glyph-name="uni0163" unicode="&#x163;" horiz-adv-x="911" 
d="M225 1126v154h359v-287h204v-348h-204v-194q0 -45 27.5 -74t74.5 -29q27 0 52.5 5t37.5 12l12 4v-349q-92 -41 -225 -40q-186 0 -287.5 107.5t-101.5 311.5v246h-143v348h61q53 0 93 40t40 93zM199 -512l112 348h389l-163 -348h-338z" />
    <glyph glyph-name="Tcaron" unicode="&#x164;" horiz-adv-x="1300" 
d="M41 1434h1219v-420h-379v-1014h-461v1014h-379v420zM645 1802l92 133h369l-287 -348h-348l-287 348h369z" />
    <glyph glyph-name="tcaron" unicode="&#x165;" horiz-adv-x="983" 
d="M225 1126v154h359v-287h204v-348h-204v-194q0 -45 27.5 -74t74.5 -29q27 0 52.5 5t37.5 12l12 4v-349q-92 -41 -225 -40q-186 0 -287.5 107.5t-101.5 311.5v246h-143v348h61q53 0 93 40t40 93zM686 1085l113 349h389l-164 -349h-338z" />
    <glyph glyph-name="Umacron" unicode="&#x16a;" horiz-adv-x="1617" 
d="M809 369q86 0 150.5 68.5t64.5 166.5v830h461v-830q0 -279 -189.5 -462t-486.5 -183t-486.5 183.5t-189.5 461.5v830h461v-830q0 -98 64.5 -166.5t150.5 -68.5zM1157 1935v-307h-696v307h696z" />
    <glyph glyph-name="umacron" unicode="&#x16b;" 
d="M737 0v113q-10 -14 -28.5 -37t-89 -59.5t-154.5 -36.5q-160 0 -261.5 111.5t-101.5 301.5v611h410v-523q0 -53 28.5 -82.5t77.5 -29.5q53 0 86 37.5t33 105.5v492h410v-1004h-410zM973 1464v-307h-697v307h697z" />
    <glyph glyph-name="Uring" unicode="&#x16e;" horiz-adv-x="1617" 
d="M809 369q86 0 150.5 68.5t64.5 166.5v830h461v-830q0 -279 -189.5 -462t-486.5 -183t-486.5 183.5t-189.5 461.5v830h461v-830q0 -98 64.5 -166.5t150.5 -68.5zM727 1794q0 -82 82 -82t82 82t-82 82t-82 -82zM1096 1794.5q0 -108.5 -83 -187.5t-204 -79t-204 79
t-83 187.5t83 187t204 78.5t204 -78.5t83 -187z" />
    <glyph glyph-name="uring" unicode="&#x16f;" 
d="M737 0v113q-10 -14 -28.5 -37t-89 -59.5t-154.5 -36.5q-160 0 -261.5 111.5t-101.5 301.5v611h410v-523q0 -53 28.5 -82.5t77.5 -29.5q53 0 86 37.5t33 105.5v492h410v-1004h-410zM543 1352q0 -82 82 -82t82 82t-82 82t-82 -82zM911 1351.5q0 -108.5 -83 -187.5
t-203.5 -79t-203.5 79t-83 187.5t83 187.5t203.5 79t203.5 -79t83 -187.5z" />
    <glyph glyph-name="Uhungarumlaut" unicode="&#x170;" horiz-adv-x="1617" 
d="M809 369q86 0 150.5 68.5t64.5 166.5v830h461v-830q0 -279 -189.5 -462t-486.5 -183t-486.5 183.5t-189.5 461.5v830h461v-830q0 -98 64.5 -166.5t150.5 -68.5zM420 1587l194 348h369l-266 -348h-297zM881 1587l194 348h369l-266 -348h-297z" />
    <glyph glyph-name="uhungarumlaut" unicode="&#x171;" 
d="M737 0v113q-10 -14 -28.5 -37t-89 -59.5t-154.5 -36.5q-160 0 -261.5 111.5t-101.5 301.5v611h410v-523q0 -53 28.5 -82.5t77.5 -29.5q53 0 86 37.5t33 105.5v492h410v-1004h-410zM225 1126l195 349h368l-266 -349h-297zM686 1126l195 349h368l-266 -349h-297z" />
    <glyph glyph-name="Uogonek" unicode="&#x172;" horiz-adv-x="1617" 
d="M809 369q86 0 150.5 68.5t64.5 166.5v830h461v-830q0 -250 -153.5 -425t-403.5 -212q-37 -84 -37 -172q0 -82 82 -82q23 0 46 8.5t34 16.5l12 6v-215q-72 -41 -195 -41q-113 0 -189.5 72.5t-76.5 173.5q0 121 123 229q-264 27 -429 205t-165 436v830h461v-830
q0 -98 64.5 -166.5t150.5 -68.5z" />
    <glyph glyph-name="uogonek" unicode="&#x173;" 
d="M553 -266q0 45 19.5 89t46 74.5t53 54t45.5 36.5l20 12v117q-4 -6 -10 -15.5t-30.5 -33t-53.5 -42t-77 -32.5t-101 -14q-160 0 -261.5 111.5t-101.5 301.5v611h410v-523q0 -53 28.5 -82.5t77.5 -29.5q53 0 86 37.5t33 105.5v492h410v-1004h-246q-61 -102 -61 -205
q0 -82 82 -82q23 0 46 8.5t36 16.5l10 6v-215q-72 -41 -195 -41q-113 0 -189.5 73t-76.5 173z" />
    <glyph glyph-name="Ydieresis" unicode="&#x178;" horiz-adv-x="1443" 
d="M973 1434h491l-512 -922v-512h-460v512l-512 922h491l246 -492h10zM276 1761q0 78 58.5 136.5t136.5 58.5t136.5 -58.5t58.5 -136.5t-58.5 -136t-136.5 -58t-136.5 58t-58.5 136zM768 1761q0 78 58.5 136.5t136 58.5t136 -58.5t58.5 -136.5t-58.5 -136t-136 -58t-136 58
t-58.5 136z" />
    <glyph glyph-name="Zacute" unicode="&#x179;" horiz-adv-x="1382" 
d="M666 1014h-543v420h1147v-420l-574 -594h594v-420h-1198v420zM512 1587l184 348h430l-256 -348h-358z" />
    <glyph glyph-name="zacute" unicode="&#x17a;" horiz-adv-x="1105" 
d="M993 1004v-349l-389 -307h410v-348h-942v348l389 307h-369v349h901zM358 1126l185 349h430l-256 -349h-359z" />
    <glyph glyph-name="Zdotaccent" unicode="&#x17b;" horiz-adv-x="1382" 
d="M666 1014h-543v420h1147v-420l-574 -594h594v-420h-1198v420zM922 1761q0 -86 -63.5 -145.5t-162 -59.5t-162 59.5t-63.5 145.5t63.5 145.5t162 59.5t162 -59.5t63.5 -145.5z" />
    <glyph glyph-name="zdotaccent" unicode="&#x17c;" horiz-adv-x="1105" 
d="M993 1004v-349l-389 -307h410v-348h-942v348l389 307h-369v349h901zM768 1300q0 -86 -63.5 -145t-162 -59t-162 59t-63.5 145t63.5 145.5t162 59.5t162 -59.5t63.5 -145.5z" />
    <glyph glyph-name="Zcaron" unicode="&#x17d;" horiz-adv-x="1382" 
d="M666 1014h-543v420h1147v-420l-574 -594h594v-420h-1198v420zM686 1802l92 133h369l-287 -348h-348l-287 348h369z" />
    <glyph glyph-name="zcaron" unicode="&#x17e;" horiz-adv-x="1105" 
d="M993 1004v-349l-389 -307h410v-348h-942v348l389 307h-369v349h901zM532 1341l93 134h368l-286 -349h-349l-286 349h368z" />
    <glyph glyph-name="florin" unicode="&#x192;" horiz-adv-x="901" 
d="M276 901l21 113q45 246 140 348t280 102q55 0 108.5 -10t79.5 -20l27 -11v-338q-41 20 -103 21q-51 0 -75.5 -21.5t-36.5 -70.5l-27 -113h160v-358h-225l-93 -523q-43 -246 -139 -348t-280 -102q-55 0 -108.5 10t-80.5 21l-26 10v338q41 -20 102 -21q94 0 113 92l102 523
h-113v358h174z" />
    <glyph glyph-name="uni0218" unicode="&#x218;" 
d="M707 451q0 29 -35 50t-89.5 39.5t-122 40t-134 56.5t-120.5 81t-89 124t-35 176q0 184 157.5 320.5t415.5 136.5q102 0 195.5 -21.5t152 -51.5t102.5 -59.5t62 -52.5l21 -20l-266 -277q-8 12 -25.5 28.5t-71 45.5t-108.5 29q-59 0 -91 -26t-32 -66q0 -33 46 -58.5
t115.5 -42t150.5 -51.5t150.5 -79t116 -131t46.5 -202q0 -199 -161 -340t-433 -141q-109 0 -211.5 25.5t-171 61.5t-120.5 72t-77 62l-25 25l267 266q14 -14 38.5 -36.5t97.5 -59.5t140.5 -37t105.5 33t38 80zM338 -512l113 348h389l-164 -348h-338z" />
    <glyph glyph-name="uni0219" unicode="&#x219;" horiz-adv-x="1003" 
d="M922 860l-185 -194q-51 51 -112 51q-35 0 -58.5 -16.5t-23.5 -34.5q0 -20 42 -39t102.5 -40.5t120.5 -52t102 -92t42 -145.5q0 -131 -125 -229.5t-335 -98.5q-94 0 -179.5 21.5t-137.5 51.5t-92 59.5t-56 50.5l-17 22l185 195q8 -10 25.5 -25.5t65.5 -41.5t93 -26
q37 0 59.5 18.5t22.5 43.5q0 20 -42 38.5t-102.5 39t-121 51.5t-102.5 92.5t-42 147.5q0 127 125 227t326 100q84 0 157.5 -18.5t119.5 -44t80 -50t48 -42.5zM205 -512l112 348h390l-164 -348h-338z" />
    <glyph glyph-name="uni021A" unicode="&#x21a;" horiz-adv-x="1300" 
d="M41 1434h1219v-420h-379v-1014h-461v1014h-379v420zM338 -512l113 348h389l-164 -348h-338z" />
    <glyph glyph-name="uni021B" unicode="&#x21b;" horiz-adv-x="911" 
d="M225 1126v154h359v-287h204v-348h-204v-194q0 -45 27.5 -74t74.5 -29q27 0 52.5 5t37.5 12l12 4v-349q-92 -41 -225 -40q-186 0 -287.5 107.5t-101.5 311.5v246h-143v348h61q53 0 93 40t40 93zM199 -512l112 348h389l-163 -348h-338z" />
    <glyph glyph-name="uni02BC" unicode="&#x2bc;" horiz-adv-x="624" 
d="M61 1116l113 348h389l-164 -348h-338z" />
    <glyph glyph-name="circumflex" unicode="&#x2c6;" horiz-adv-x="1044" 
d="M614 1116l-92 133l-92 -133h-369l287 348h348l287 -348h-369z" />
    <glyph glyph-name="caron" unicode="&#x2c7;" horiz-adv-x="1044" 
d="M522 1331l92 133h369l-287 -348h-348l-287 348h369z" />
    <glyph glyph-name="breve" unicode="&#x2d8;" horiz-adv-x="860" 
d="M430 1116q-158 0 -263.5 100.5t-105.5 247.5h287q0 -92 82 -92t82 92h287q0 -147 -104.5 -247.5t-264.5 -100.5z" />
    <glyph glyph-name="dotaccent" unicode="&#x2d9;" horiz-adv-x="573" 
d="M512 1311q0 -86 -63.5 -145.5t-162 -59.5t-162 59.5t-63.5 145.5t63.5 145.5t162 59.5t162 -59.5t63.5 -145.5z" />
    <glyph glyph-name="ring" unicode="&#x2da;" horiz-adv-x="696" 
d="M266 1259.5q0 -81.5 82 -81.5t82 81.5t-82 81.5t-82 -81.5zM635 1259.5q0 -108.5 -83 -187.5t-204 -79t-204 79t-83 187.5t83 187.5t204 79t204 -79t83 -187.5z" />
    <glyph glyph-name="ogonek" unicode="&#x2db;" horiz-adv-x="583" 
d="M236 0h163q-51 -102 -51 -205q0 -82 82 -82q23 0 46.5 8.5t35.5 16.5l10 6v-215q-72 -41 -194 -41q-113 0 -190 72.5t-77 173.5q0 45 18.5 89t43 74.5t50.5 54t44 36.5z" />
    <glyph glyph-name="tilde" unicode="&#x2dc;" horiz-adv-x="890" 
d="M379 1198q-31 0 -51.5 -22.5t-20.5 -59.5h-246q0 369 226 369q70 0 136 -41t89 -41q31 0 51.5 22.5t20.5 59.5h245q0 -369 -225 -369q-70 0 -136 41t-89 41z" />
    <glyph glyph-name="hungarumlaut" unicode="&#x2dd;" horiz-adv-x="1146" 
d="M61 1116l195 348h369l-267 -348h-297zM522 1116l195 348h368l-266 -348h-297z" />
    <glyph glyph-name="uni0401" unicode="&#x401;" horiz-adv-x="1392" 
d="M614 379h697v-379h-1157v1434h1136v-379h-676v-154h512v-348h-512v-174zM285 1775.5q0 75.5 58 135t136 59.5t136.5 -59.5t58.5 -135t-58.5 -135t-136.5 -59.5t-136 59.5t-58 135zM776 1775.5q0 75.5 58.5 135t136.5 59.5t136 -59.5t58 -135t-58 -135t-136 -59.5
t-136.5 59.5t-58.5 135z" />
    <glyph glyph-name="uni0402" unicode="&#x402;" horiz-adv-x="1576" 
d="M1055 430q0 35 -37 58.5t-111 23.5q-39 0 -76.5 -12.5t-56.5 -24.5l-16 -14v-461h-461v1024h-297v410h1055v-410h-297v-164q92 61 235 62q268 0 400.5 -108.5t132.5 -373.5q0 -223 -142.5 -357t-390.5 -134h-102v399q164 0 164 82z" />
    <glyph glyph-name="uni0403" unicode="&#x403;" horiz-adv-x="1249" 
d="M492 1587l184 348h430l-256 -348h-358zM154 0v1434h1065v-410h-605v-1024h-460z" />
    <glyph glyph-name="uni0404" unicode="&#x404;" horiz-adv-x="1540" 
d="M881 1475q117 0 224 -30t177 -72t123 -84t78 -72l22 -29l-266 -277q-6 6 -16.5 17.5t-44 40t-71.5 50t-97.5 39t-118.5 17.5q-129 0 -212 -59.5t-116 -124.5h502v-348h-502q33 -66 116 -125.5t212 -59.5q100 0 189 41t128 82l41 41l260 -276q-8 -12 -24.5 -31.5
t-74.5 -69t-124.5 -87.5t-176.5 -68.5t-228 -30.5q-342 0 -575.5 223.5t-233.5 534.5t233.5 534.5t575.5 223.5z" />
    <glyph glyph-name="uni0405" unicode="&#x405;" 
d="M707 451q0 29 -35 50t-89.5 39.5t-122 40t-134 56.5t-120.5 81t-89 124t-35 176q0 184 157.5 320.5t415.5 136.5q102 0 195.5 -21.5t152 -51.5t102.5 -59.5t62 -52.5l21 -20l-266 -277q-8 12 -25.5 28.5t-71 45.5t-108.5 29q-59 0 -91 -26t-32 -66q0 -33 46 -58.5
t115.5 -42t150.5 -51.5t150.5 -79t116 -131t46.5 -202q0 -199 -161 -340t-433 -141q-109 0 -211.5 25.5t-171 61.5t-120.5 72t-77 62l-25 25l267 266q14 -14 38.5 -36.5t97.5 -59.5t140.5 -37t105.5 33t38 80z" />
    <glyph glyph-name="uni0406" unicode="&#x406;" horiz-adv-x="768" 
d="M154 0v1434h460v-1434h-460z" />
    <glyph glyph-name="uni0407" unicode="&#x407;" horiz-adv-x="768" 
d="M147 0v1434h461v-1434h-461zM-61 1730.5q0 75.5 59 135t135 59.5t135.5 -59.5t59.5 -135t-59.5 -135t-135.5 -59.5t-135 59.5t-59 135zM430 1730.5q0 75.5 59.5 135t135 59.5t135 -59.5t59.5 -135t-59.5 -135t-135 -59.5t-135 59.5t-59.5 135z" />
    <glyph glyph-name="uni0408" unicode="&#x408;" horiz-adv-x="1095" 
d="M502 1434h461v-912q0 -254 -155 -408.5t-409 -154.5q-78 0 -151.5 19.5t-123.5 46t-89 53t-58 45.5l-18 20l266 277q51 -51 123 -51q70 0 112 42t42 111v912z" />
    <glyph glyph-name="uni0409" unicode="&#x409;" horiz-adv-x="2232" 
d="M1423 1434v-1434h-460v1024h-205q0 -246 -26.5 -432t-73 -306t-116 -194t-148.5 -103.5t-179 -29.5q-59 0 -112.5 10.5t-77.5 20.5l-25 10v420q41 -10 82 -10q74 0 119 39.5t75.5 167.5t30.5 354v463h1116zM1628 0h-665v1434h460v-390h205q250 0 401.5 -147t151.5 -374.5
t-151.5 -375t-401.5 -147.5zM1423 410h174q53 0 88 32.5t35 79.5t-34.5 80t-88.5 33h-174v-225z" />
    <glyph glyph-name="uni040A" unicode="&#x40a;" horiz-adv-x="2283" 
d="M1690 0h-676v614h-400v-614h-460v1434h460v-410h400v410h461v-410h215q250 0 396 -142.5t146 -369.5t-146 -369.5t-396 -142.5zM1475 410h184q53 0 83 27.5t30 74.5t-30 74.5t-83 27.5h-184v-204z" />
    <glyph glyph-name="uni040B" unicode="&#x40b;" horiz-adv-x="1628" 
d="M1065 358q0 70 -43 112t-115 42q-39 0 -76.5 -12.5t-56.5 -24.5l-16 -14v-461h-461v1024h-297v410h1055v-410h-297v-164q92 61 235 62q256 0 394.5 -144.5t138.5 -419.5v-358h-461v358z" />
    <glyph glyph-name="uni040C" unicode="&#x40c;" horiz-adv-x="1536" 
d="M614 1434v-492l402 492h510l-492 -594l533 -840h-512l-318 502l-123 -154v-348h-460v1434h460zM614 1587l185 348h430l-256 -348h-359z" />
    <glyph glyph-name="uni040E" unicode="&#x40e;" horiz-adv-x="1392" 
d="M715 1567q-168 0 -278.5 106.5t-110.5 261.5h286q0 -53 28 -82.5t75 -29.5t74.5 29.5t27.5 82.5h287q0 -156 -110.5 -262t-278.5 -106zM492 1434l225 -543l205 543h491l-491 -1055q-82 -176 -223.5 -287.5t-329.5 -111.5q-55 0 -106.5 8t-74.5 16l-24 6v400
q51 -20 123 -21q63 0 114.5 28.5t69.5 57.5l21 27l-492 932h492z" />
    <glyph glyph-name="uni040F" unicode="&#x40f;" horiz-adv-x="1658" 
d="M1505 1434v-1434h-450v-276h-461v276h-440v1434h460v-1024h430v1024h461z" />
    <glyph glyph-name="uni0410" unicode="&#x410;" horiz-adv-x="1515" 
d="M860 625l-102 358l-103 -358h205zM963 276h-410l-82 -276h-491l522 1434h512l522 -1434h-492z" />
    <glyph glyph-name="uni0411" unicode="&#x411;" horiz-adv-x="1443" 
d="M614 369h205q45 0 74 28.5t29 73.5t-29 73.5t-74 28.5h-205v-204zM850 0h-696v1434h1095v-369h-635v-123h236q238 0 385 -139t147 -331.5t-147 -332t-385 -139.5z" />
    <glyph glyph-name="uni0412" unicode="&#x412;" horiz-adv-x="1474" 
d="M860 0h-706v1434h665q242 0 382 -112t140 -267q0 -59 -21.5 -112.5t-51 -85.5t-59 -56.5t-50.5 -34.5l-22 -8q10 -4 29.5 -11.5t66.5 -35t84 -63.5t66.5 -100.5t29.5 -137.5q0 -170 -147.5 -290t-405.5 -120zM614 348h205q53 0 88 33t35 80t-35 79.5t-88 32.5h-205v-225z
M768 1085h-154v-184h154q45 0 73.5 26.5t28.5 65.5t-28.5 65.5t-73.5 26.5z" />
    <glyph glyph-name="uni0413" unicode="&#x413;" horiz-adv-x="1249" 
d="M154 0v1434h1065v-410h-605v-1024h-460z" />
    <glyph glyph-name="uni0414" unicode="&#x414;" horiz-adv-x="1576" 
d="M0 410h72q8 6 21 19t46 63.5t58.5 110t47 158.5t21.5 212v461h1127v-1024h153v-686h-461v276h-624v-276h-461v686zM717 973q0 -113 -19.5 -211t-46 -160.5t-53.5 -107.5t-45 -64l-21 -20h400v614h-215v-51z" />
    <glyph glyph-name="uni0415" unicode="&#x415;" horiz-adv-x="1392" 
d="M614 379h697v-379h-1157v1434h1136v-379h-676v-154h512v-348h-512v-174z" />
    <glyph glyph-name="uni0416" unicode="&#x416;" horiz-adv-x="2222" 
d="M881 0v399l-82 103l-318 -502h-512l533 840l-492 594h510l361 -441v441h460v-441l361 441h510l-492 -594l533 -840h-512l-318 502l-82 -103v-399h-460z" />
    <glyph glyph-name="uni0417" unicode="&#x417;" horiz-adv-x="1290" 
d="M973 758q10 -4 28 -11q17 -8 61 -36.5t78 -65.5t61.5 -102.5t27.5 -143.5q0 -180 -163 -310t-441 -130q-113 0 -217.5 25.5t-173 61.5t-122 72t-77.5 62l-25 25l266 266q14 -14 39 -34.5t97.5 -54.5t140.5 -34q80 0 122 30t42 73q0 102 -154 102h-164v358h154
q66 0 99.5 25t33.5 63q0 37 -36 61.5t-107 24.5q-55 0 -108.5 -23.5t-80.5 -45.5l-26 -23l-256 267q6 8 20 22t63.5 52t108 65.5t155.5 51.5t206 24q256 0 409.5 -123t153.5 -287q0 -66 -22.5 -122t-54.5 -89t-62.5 -55.5t-53.5 -32.5z" />
    <glyph glyph-name="uni0418" unicode="&#x418;" horiz-adv-x="1699" 
d="M154 1434h460v-697l543 697h389v-1434h-461v696l-542 -696h-389v1434z" />
    <glyph glyph-name="uni0419" unicode="&#x419;" horiz-adv-x="1699" 
d="M854 1567q-168 0 -278.5 106.5t-110.5 261.5h287q0 -53 27.5 -82.5t74.5 -29.5t74.5 29.5t27.5 82.5h287q0 -156 -110.5 -262t-278.5 -106zM154 1434h460v-697l543 697h389v-1434h-461v696l-542 -696h-389v1434z" />
    <glyph glyph-name="uni041A" unicode="&#x41a;" horiz-adv-x="1536" 
d="M614 1434v-492l402 492h510l-492 -594l533 -840h-512l-318 502l-123 -154v-348h-460v1434h460z" />
    <glyph glyph-name="uni041B" unicode="&#x41b;" horiz-adv-x="1617" 
d="M1464 1434v-1434h-460v1024h-246q0 -246 -26.5 -432t-73 -306t-116 -194t-148.5 -103.5t-179 -29.5q-59 0 -112.5 10.5t-77.5 20.5l-25 10v420q41 -10 82 -10q74 0 119 39.5t75.5 167.5t30.5 354v463h1157z" />
    <glyph glyph-name="uni041C" unicode="&#x41c;" horiz-adv-x="1925" 
d="M1311 768l-348 -440l-349 440v-768h-460v1434h409l400 -512l399 512h410v-1434h-461v768z" />
    <glyph glyph-name="uni041D" unicode="&#x41d;" horiz-adv-x="1658" 
d="M1505 1434v-1434h-461v522h-430v-522h-460v1434h460v-502h430v502h461z" />
    <glyph glyph-name="uni041E" unicode="&#x41e;" horiz-adv-x="1761" 
d="M532 716.5q0 -145.5 101.5 -246.5t247 -101t247 101t101.5 246.5t-101.5 247t-247 101.5t-247 -101.5t-101.5 -247zM1690 717q0 -311 -233.5 -534.5t-575.5 -223.5t-575.5 223.5t-233.5 534.5t233.5 534.5t575.5 223.5t575.5 -223.5t233.5 -534.5z" />
    <glyph glyph-name="uni041F" unicode="&#x41f;" horiz-adv-x="1648" 
d="M1495 1434v-1434h-461v1024h-420v-1024h-460v1434h1341z" />
    <glyph glyph-name="uni0420" unicode="&#x420;" horiz-adv-x="1443" 
d="M154 1434h675q250 0 401.5 -147.5t151.5 -375t-151.5 -375t-401.5 -147.5h-215v-389h-460v1434zM799 1024h-185v-225h185q53 0 88 32.5t35 79.5t-35 80t-88 33z" />
    <glyph glyph-name="uni0421" unicode="&#x421;" horiz-adv-x="1540" 
d="M532 716.5q0 -147.5 102.5 -247.5t256.5 -100q59 0 117.5 16t98.5 41t70.5 49.5t47.5 40.5l14 16l270 -286q-8 -12 -24.5 -31.5t-75.5 -69t-125.5 -87.5t-176.5 -68.5t-226 -30.5q-342 0 -575.5 223.5t-233.5 534.5t233.5 534.5t575.5 223.5q117 0 224 -30t177 -72
t123 -84t78 -72l22 -29l-276 -287q-6 6 -16.5 17.5t-44 40t-70.5 50t-93.5 39t-113.5 17.5q-154 0 -256.5 -100.5t-102.5 -248z" />
    <glyph glyph-name="uni0422" unicode="&#x422;" horiz-adv-x="1300" 
d="M41 1434h1219v-420h-379v-1014h-461v1014h-379v420z" />
    <glyph glyph-name="uni0423" unicode="&#x423;" horiz-adv-x="1392" 
d="M492 1434l225 -543l205 543h491l-491 -1055q-82 -176 -223.5 -287.5t-329.5 -111.5q-55 0 -106.5 8t-74.5 16l-24 6v400q51 -20 123 -21q63 0 114.5 28.5t69.5 57.5l21 27l-492 932h492z" />
    <glyph glyph-name="uni0424" unicode="&#x424;" horiz-adv-x="1873" 
d="M512 737q0 -90 54.5 -148.5t140.5 -66.5v430q-86 -8 -140.5 -66.5t-54.5 -148.5zM1167 -41h-460v174q-287 14 -471.5 188.5t-184.5 416t184.5 415.5t471.5 188v154h460v-154q287 -14 471.5 -188t184.5 -415.5t-184.5 -416t-471.5 -188.5v-174zM1362 737q0 90 -54.5 148.5
t-140.5 66.5v-430q86 8 140.5 66.5t54.5 148.5z" />
    <glyph glyph-name="uni0425" unicode="&#x425;" horiz-adv-x="1474" 
d="M737 451l-245 -451h-502l450 748l-409 686h501l205 -390l205 390h502l-410 -686l451 -748h-502z" />
    <glyph glyph-name="uni0426" unicode="&#x426;" horiz-adv-x="1658" 
d="M154 0v1434h460v-1024h400v1024h461v-1024h153v-686h-461v276h-1013z" />
    <glyph glyph-name="uni0427" unicode="&#x427;" horiz-adv-x="1566" 
d="M594 1434v-451q0 -84 48 -134t126 -50q45 0 91 12t71 25l22 14v584h461v-1434h-461v440q-113 -51 -266 -51q-256 0 -404.5 156.5t-148.5 437.5v451h461z" />
    <glyph glyph-name="uni0428" unicode="&#x428;" horiz-adv-x="2242" 
d="M2089 1434v-1434h-1935v1434h460v-1024h277v1024h461v-1024h276v1024h461z" />
    <glyph glyph-name="uni0429" unicode="&#x429;" horiz-adv-x="2273" 
d="M2089 1434v-1024h154v-684h-461v274h-1628v1434h460v-1024h277v1024h461v-1024h276v1024h461z" />
    <glyph glyph-name="uni042A" unicode="&#x42a;" horiz-adv-x="1566" 
d="M963 0h-656v1034h-307v400h768v-390h195q250 0 401.5 -147t151.5 -374.5t-151.5 -375t-401.5 -147.5zM768 410h164q53 0 88 32.5t35 79.5t-35 80t-88 33h-164v-225z" />
    <glyph glyph-name="uni042B" unicode="&#x42b;" horiz-adv-x="2099" 
d="M1946 1434v-1434h-461v1434h461zM154 0v1434h460v-390h195q250 0 401.5 -147t151.5 -374.5t-151.5 -375t-401.5 -147.5h-655zM778 410q53 0 88 32.5t35 79.5t-35 80t-88 33h-164v-225h164z" />
    <glyph glyph-name="uni042C" unicode="&#x42c;" horiz-adv-x="1433" 
d="M829 0h-675v1434h460v-390h215q250 0 401.5 -147t151.5 -374.5t-151.5 -375t-401.5 -147.5zM614 410h185q53 0 88 32.5t35 79.5t-35 80t-88 33h-185v-225z" />
    <glyph glyph-name="uni042D" unicode="&#x42d;" horiz-adv-x="1540" 
d="M659 1475q342 0 575.5 -223.5t233.5 -534.5t-233.5 -534.5t-575.5 -223.5q-119 0 -227 29.5t-178 71.5t-123 84t-78 73l-22 29l260 276q6 -6 16 -17t45 -40t74 -50.5t99.5 -39t123.5 -17.5q129 0 212 59.5t116 125.5h-502v348h502q-33 66 -116 125t-212 59
q-59 0 -117.5 -16.5t-98.5 -41t-70.5 -49t-47.5 -40.5l-14 -17l-266 277q8 12 24.5 31.5t75 68.5t125 87t174.5 69t225 31z" />
    <glyph glyph-name="uni042E" unicode="&#x42e;" horiz-adv-x="2293" 
d="M1761 716.5q0 155.5 -84 252t-202.5 96.5t-202.5 -96.5t-84 -252t84 -251.5t202.5 -96t202.5 96t84 251.5zM758 522h-144v-522h-460v1434h460v-502h144q57 223 251.5 383t465.5 160q315 0 531 -218.5t216 -540t-216 -539.5t-531 -218q-272 0 -466 163.5t-251 399.5z" />
    <glyph glyph-name="uni042F" unicode="&#x42f;" horiz-adv-x="1495" 
d="M1341 1434v-1434h-460v410h-144l-215 -410h-481l276 502q-8 4 -23 13t-54 46t-69 80t-54.5 119t-24.5 162q0 219 150.5 365.5t392.5 146.5h706zM553 921.5q0 -47.5 29.5 -75t83.5 -27.5h215v205h-215q-53 0 -83 -27.5t-30 -75z" />
    <glyph glyph-name="uni0430" unicode="&#x430;" horiz-adv-x="1146" 
d="M1024 0h-410v113q-8 -14 -27.5 -37t-88 -59.5t-150.5 -36.5q-123 0 -210 85t-87 201q0 242 318 318l256 61q0 33 -33 57.5t-90 24.5q-49 0 -98.5 -23.5t-71.5 -46.5l-25 -22l-194 205q6 8 17 21t52 46t88 58.5t124 47t159 21.5q211 0 341 -117.5t130 -291.5v-625z
M512 276q47 0 80 37t33 97v30l-113 -30q-61 -16 -61 -72q0 -62 61 -62z" />
    <glyph glyph-name="uni0431" unicode="&#x431;" horiz-adv-x="1259" 
d="M1188 471q0 -217 -148.5 -359.5t-384.5 -142.5q-266 0 -424.5 174t-158.5 492q0 367 129 544t383 234q100 23 189 53.5t128 49.5l41 20l184 -307q-123 -72 -368 -133q-147 -37 -213 -91.5t-74 -134.5q10 10 29.5 25.5t84 41.5t132.5 26q195 0 333 -143.5t138 -348.5z
M512 471q0 -53 38 -93t85 -40q53 0 93 40t40 93t-40 93t-93 40q-47 0 -85 -40t-38 -93z" />
    <glyph glyph-name="uni0432" unicode="&#x432;" horiz-adv-x="1157" 
d="M102 1004h553q190 0 295 -81t105 -196q0 -68 -36 -119t-73 -67l-35 -19q8 -2 20.5 -6t44.5 -22.5t56.5 -42t44 -64.5t19.5 -90q0 -131 -107.5 -214t-312.5 -83h-574v1004zM625 389h-123v-123h123q61 0 61 61.5t-61 61.5zM655 686q0 51 -51 51h-102v-102h102q51 0 51 51z
" />
    <glyph glyph-name="uni0433" unicode="&#x433;" horiz-adv-x="952" 
d="M911 1004v-379h-399v-625h-410v1004h809z" />
    <glyph glyph-name="uni0434" unicode="&#x434;" horiz-adv-x="1228" 
d="M-10 358h61q6 6 15.5 16.5t34 50.5t44 86t35 124t15.5 164v205h870v-646h123v-573h-410v215h-379v-215h-409v573zM655 655h-112q0 -82 -23.5 -155.5t-46.5 -106.5l-22 -35h204v297z" />
    <glyph glyph-name="uni0435" unicode="&#x435;" horiz-adv-x="1208" 
d="M1126 410h-645q18 -45 69.5 -79t135.5 -34q55 0 103.5 17.5t70.5 35.5l21 19l163 -256q-18 -16 -52 -40t-143.5 -64t-223.5 -40q-242 0 -408 157t-166 376t160 375.5t393 156.5q227 0 385 -151.5t158 -360.5q0 -33 -5 -60.5t-12 -39.5zM604 727q-45 0 -81 -32.5
t-52 -80.5h266q-16 47 -52 80t-81 33z" />
    <glyph glyph-name="uni0436" unicode="&#x436;" horiz-adv-x="1740" 
d="M655 279l-51 59l-194 -338h-430l356 573l-346 431h450l215 -273v273h410v-273l215 273h451l-347 -431l357 -573h-430l-195 338l-51 -59v-279h-410v279z" />
    <glyph glyph-name="uni0437" unicode="&#x437;" horiz-adv-x="1013" 
d="M922 737q0 -51 -21.5 -93t-51.5 -65.5t-59.5 -40t-52.5 -22.5l-20 -4q8 -2 23.5 -6t54.5 -21.5t68.5 -41t54 -67.5t24.5 -100q0 -117 -126 -212t-335 -95q-94 0 -179 21.5t-137 51.5t-92 59.5t-57 50.5l-16 22l184 195q8 -10 23.5 -25.5t69 -41.5t112.5 -26q51 0 77 18.5
t26 43t-26 43t-77 18.5h-82v226h82q39 0 60.5 15t21.5 35.5t-21.5 36t-60.5 15.5q-41 0 -82 -15.5t-61 -31.5l-21 -14l-194 194q6 6 16 18.5t50 42t88 53t128 42t168 18.5q203 0 322 -90t119 -207z" />
    <glyph glyph-name="uni0438" unicode="&#x438;" horiz-adv-x="1269" 
d="M799 1004h348v-1004h-410v389l-286 -389h-349v1004h410v-390z" />
    <glyph glyph-name="uni0439" unicode="&#x439;" horiz-adv-x="1269" 
d="M618 1116q-158 0 -263 100.5t-105 247.5h287q0 -92 81.5 -92t81.5 92h287q0 -147 -104.5 -247.5t-264.5 -100.5zM799 1004h348v-1004h-410v389l-286 -389h-349v1004h410v-390z" />
    <glyph glyph-name="uni043A" unicode="&#x43a;" horiz-adv-x="1208" 
d="M1198 1004l-346 -431l356 -573h-430l-194 338l-72 -82v-256h-410v1004h410v-297l236 297h450z" />
    <glyph glyph-name="uni043B" unicode="&#x43b;" horiz-adv-x="1228" 
d="M205 1004h901v-1004h-410v645h-123q0 -365 -104 -520.5t-295 -155.5q-45 0 -91 8.5t-71 14.5l-22 8v369q31 -10 61 -11q51 0 82 30t51.5 129t20.5 282v205z" />
    <glyph glyph-name="uni043C" unicode="&#x43c;" horiz-adv-x="1413" 
d="M881 451l-185 -236l-184 236v-451h-410v1004h349l245 -308l246 308h348v-1004h-409v451z" />
    <glyph glyph-name="uni043D" unicode="&#x43d;" horiz-adv-x="1259" 
d="M512 328v-328h-410v1004h410v-318h215v318h410v-1004h-410v328h-215z" />
    <glyph glyph-name="uni043E" unicode="&#x43e;" horiz-adv-x="1269" 
d="M481 501.5q0 -67.5 41 -110.5t102.5 -43t102.5 43t41 110.5t-41 110.5t-102.5 43t-102.5 -43t-41 -110.5zM1198 502q0 -219 -166 -376t-407.5 -157t-407.5 157t-166 376t166 375.5t407.5 156.5t407.5 -156.5t166 -375.5z" />
    <glyph glyph-name="uni043F" unicode="&#x43f;" horiz-adv-x="1259" 
d="M512 645v-645h-410v1004h1035v-1004h-410v645h-215z" />
    <glyph glyph-name="uni0440" unicode="&#x440;" horiz-adv-x="1310" 
d="M512 501.5q0 -69.5 42 -111.5t112 -42q61 0 102 43t41 110.5t-41 110.5t-102 43q-70 0 -112 -42t-42 -111.5zM512 123v-553h-410v1434h410v-123l10 15q6 9 31 33.5t54.5 44t77.5 35t103 15.5q182 0 311.5 -147.5t129.5 -374.5q0 -229 -129 -375.5t-312 -146.5
q-55 0 -103 14t-79 35.5t-53.5 43t-32.5 36.5z" />
    <glyph glyph-name="uni0441" unicode="&#x441;" horiz-adv-x="1116" 
d="M51 502q0 219 166 375.5t408 156.5q86 0 163.5 -22.5t128 -54t88 -62.5t54.5 -53l16 -23l-246 -246q-6 10 -19 25.5t-59 41.5t-96 26q-76 0 -125 -47.5t-49 -117t49.5 -116.5t124.5 -47q49 0 93.5 23.5t62.5 46.5l18 22l246 -246q-6 -8 -17 -22.5t-52 -52t-89.5 -65.5
t-127 -51.5t-164.5 -23.5q-242 0 -408 157t-166 376z" />
    <glyph glyph-name="uni0442" unicode="&#x442;" horiz-adv-x="1044" 
d="M31 625v379h962v-379h-276v-625h-410v625h-276z" />
    <glyph glyph-name="uni0443" unicode="&#x443;" horiz-adv-x="1126" 
d="M174 -51q94 0 158 92l-352 963h419l154 -533l154 533h419l-368 -1014q-152 -420 -461 -420q-57 0 -113.5 10t-85.5 21l-26 10v358q41 -20 102 -20z" />
    <glyph glyph-name="uni0444" unicode="&#x444;" horiz-adv-x="1617" 
d="M604 311v359q-57 -4 -100 -54.5t-43 -124t43 -125t100 -55.5zM1004 -41v-389h-410v389q-229 23 -386 177.5t-157 355t157 355t386 177.5v410h410v-410q229 -23 385.5 -177.5t156.5 -355t-156.5 -355t-385.5 -177.5zM993 670v-359q57 4 100.5 55.5t43.5 125t-43.5 124
t-100.5 54.5z" />
    <glyph glyph-name="uni0445" unicode="&#x445;" horiz-adv-x="1126" 
d="M676 0l-133 256l-133 -256h-430l296 512l-286 492h440l113 -236l112 236h441l-287 -492l297 -512h-430z" />
    <glyph glyph-name="uni0446" unicode="&#x446;" horiz-adv-x="1259" 
d="M102 0v1004h410v-646h174v646h410v-646h123v-573h-410v215h-707z" />
    <glyph glyph-name="uni0447" unicode="&#x447;" horiz-adv-x="1187" 
d="M655 0v274q-92 -49 -204 -49q-164 0 -266.5 109.5t-102.5 294.5v375h410v-318q0 -92 81 -92q23 0 43.5 8t30.5 16l8 7v379h410v-1004h-410z" />
    <glyph glyph-name="uni0448" unicode="&#x448;" horiz-adv-x="1730" 
d="M102 0v1004h410v-646h143v646h400v-646h143v646h410v-1004h-1506z" />
    <glyph glyph-name="uni0449" unicode="&#x449;" horiz-adv-x="1771" 
d="M102 0v1004h410v-646h143v646h400v-646h143v646h410v-646h123v-573h-410v215h-1219z" />
    <glyph glyph-name="uni044A" unicode="&#x44a;" horiz-adv-x="1198" 
d="M1137 369q0 -164 -112 -266.5t-308 -102.5h-512v625h-205v379h614v-277h103q195 0 307.5 -100t112.5 -258zM604 297h51q31 0 51.5 20.5t20.5 51t-20.5 51t-51.5 20.5h-51v-143z" />
    <glyph glyph-name="uni044B" unicode="&#x44b;" horiz-adv-x="1669" 
d="M1546 1004v-1004h-409v1004h409zM502 297h51q31 0 51.5 20.5t20.5 51t-20.5 51t-51.5 20.5h-51v-143zM1034 369q0 -164 -111.5 -266.5t-308.5 -102.5h-512v1004h410v-277h102q195 0 307.5 -100t112.5 -258z" />
    <glyph glyph-name="uni044C" unicode="&#x44c;" horiz-adv-x="1116" 
d="M502 297h71q31 0 51.5 20.5t20.5 51t-20.5 51t-51.5 20.5h-71v-143zM1055 369q0 -164 -112 -266.5t-308 -102.5h-533v1004h410v-277h123q195 0 307.5 -100t112.5 -258z" />
    <glyph glyph-name="uni044D" unicode="&#x44d;" horiz-adv-x="1116" 
d="M1044 502q0 -219 -165.5 -376t-407.5 -157q-86 0 -164 22.5t-128 54.5t-88 62.5t-54 53.5l-17 22l195 205q2 -4 8 -12t26.5 -27.5t45 -34t63.5 -27t82 -12.5q55 0 101.5 26t64.5 50l19 27h-308v246h308q-6 12 -20.5 28.5t-61.5 45t-103 28.5q-68 0 -124 -27.5t-78 -56.5
l-23 -29l-195 205q6 8 17.5 22.5t52.5 52.5t89 65.5t127 51t165 23.5q242 0 407.5 -156.5t165.5 -375.5z" />
    <glyph glyph-name="uni044E" unicode="&#x44e;" horiz-adv-x="1751" 
d="M1679 502q0 -221 -159.5 -377t-393.5 -156q-186 0 -318 101.5t-190 246.5h-106v-317h-410v1004h410v-328h102q51 145 188.5 251.5t323.5 106.5q233 0 393 -156.5t160 -375.5zM1260 501.5q0 73.5 -39 119t-94.5 45.5t-94.5 -45.5t-39 -119t39 -118.5t94.5 -45t94.5 45
t39 118.5z" />
    <glyph glyph-name="uni044F" unicode="&#x44f;" horiz-adv-x="1157" 
d="M492 1004h542v-1004h-409v266h-31l-154 -266h-420l216 358q-6 4 -17.5 10.5t-40 31t-50.5 54t-39 78t-17 103.5q0 158 116 263.5t304 105.5zM635 707h-82q-31 0 -51.5 -20.5t-20.5 -51.5t20.5 -51.5t51.5 -20.5h82v144z" />
    <glyph glyph-name="uni0451" unicode="&#x451;" horiz-adv-x="1208" 
d="M1126 410h-645q18 -45 69.5 -79t135.5 -34q55 0 103.5 17.5t70.5 35.5l21 19l163 -256q-18 -16 -52 -40t-143.5 -64t-223.5 -40q-242 0 -408 157t-166 376t160 375.5t393 156.5q227 0 385 -151.5t158 -360.5q0 -33 -5 -60.5t-12 -39.5zM604 727q-45 0 -81 -32.5
t-52 -80.5h266q-16 47 -52 80t-81 33zM156 1311q0 78 59 136t135 58t135.5 -58t59.5 -136t-59.5 -136.5t-135.5 -58.5t-135 58.5t-59 136.5zM647 1311q0 78 59.5 136t135.5 58t135 -58t59 -136t-59 -136.5t-135 -58.5t-135.5 58.5t-59.5 136.5z" />
    <glyph glyph-name="uni0452" unicode="&#x452;" horiz-adv-x="1269" 
d="M543 1434v-113h194v-358h-194v-195q10 16 30.5 39.5t92 63.5t153.5 40q160 0 259.5 -115.5t99.5 -324.5q0 -262 -130 -387t-413 -125v389q133 0 133 103q0 31 -22.5 51t-59.5 20q-61 0 -102 -43t-41 -110v-369h-410v963h-143v358h143v113h410z" />
    <glyph glyph-name="uni0453" unicode="&#x453;" horiz-adv-x="952" 
d="M317 1116l185 348h430l-256 -348h-359zM911 1004v-379h-399v-625h-410v1004h809z" />
    <glyph glyph-name="uni0454" unicode="&#x454;" horiz-adv-x="1116" 
d="M51 502q0 219 166 375.5t408 156.5q86 0 163.5 -22.5t128 -54t88 -62.5t54.5 -53l16 -23l-194 -205q-2 4 -8.5 12.5t-27 28t-45 33.5t-63.5 26.5t-82 12.5q-55 0 -101 -25.5t-65 -50.5l-18 -26h307v-246h-307q6 -12 20.5 -28.5t61.5 -45.5t102 -29q68 0 124.5 28t78.5 56
l23 29l194 -205q-6 -8 -17 -22.5t-52 -52t-89.5 -65.5t-127 -51.5t-164.5 -23.5q-242 0 -408 157t-166 376z" />
    <glyph glyph-name="uni0455" unicode="&#x455;" horiz-adv-x="1003" 
d="M922 860l-185 -194q-51 51 -112 51q-35 0 -58.5 -16.5t-23.5 -34.5q0 -20 42 -39t102.5 -40.5t120.5 -52t102 -92t42 -145.5q0 -131 -125 -229.5t-335 -98.5q-94 0 -179.5 21.5t-137.5 51.5t-92 59.5t-56 50.5l-17 22l185 195q8 -10 25.5 -25.5t65.5 -41.5t93 -26
q37 0 59.5 18.5t22.5 43.5q0 20 -42 38.5t-102.5 39t-121 51.5t-102.5 92.5t-42 147.5q0 127 125 227t326 100q84 0 157.5 -18.5t119.5 -44t80 -50t48 -42.5z" />
    <glyph glyph-name="uni0456" unicode="&#x456;" horiz-adv-x="655" 
d="M522 1004v-1004h-409v1004h409zM543 1311q0 -86 -63.5 -145.5t-162 -59.5t-162 59.5t-63.5 145.5t63.5 145.5t162 59.5t162 -59.5t63.5 -145.5z" />
    <glyph glyph-name="uni0457" unicode="&#x457;" horiz-adv-x="655" 
d="M-123 1294.5q0 77.5 59.5 136t135 58.5t135 -58.5t59.5 -136t-59.5 -136t-135 -58.5t-135 58.5t-59.5 136zM369 1294.5q0 77.5 59 136t135 58.5t135.5 -58.5t59.5 -136t-59.5 -136t-135.5 -58.5t-135 58.5t-59 136zM522 1004v-1004h-409v1004h409z" />
    <glyph glyph-name="uni0458" unicode="&#x458;" horiz-adv-x="655" 
d="M113 51v953h409v-943q0 -492 -389 -491q-59 0 -115.5 10t-83.5 21l-26 10v358q47 -20 102 -20q47 0 75 27.5t28 74.5zM543 1311q0 -86 -63.5 -145.5t-162 -59.5t-160 59.5t-61.5 145.5t61.5 145.5t160 59.5t162 -59.5t63.5 -145.5z" />
    <glyph glyph-name="uni0459" unicode="&#x459;" horiz-adv-x="1679" 
d="M1065 287h72q31 0 51 20.5t20 51t-20.5 51t-50.5 20.5h-72v-143zM205 1004h880v-287h113q195 0 307.5 -100.5t112.5 -258t-112.5 -258t-307.5 -100.5h-522v645h-103q0 -365 -104 -520.5t-295 -155.5q-45 0 -91 8.5t-71 14.5l-22 8v369q31 -10 61 -11q51 0 82 30t51.5 129
t20.5 282v205z" />
    <glyph glyph-name="uni045A" unicode="&#x45a;" horiz-adv-x="1699" 
d="M1638 358.5q0 -157.5 -112.5 -258t-306.5 -100.5h-523v369h-184v-369h-410v1004h410v-287h184v287h410v-287h113q195 0 307 -100.5t112 -258zM1085 287h72q31 0 51.5 20.5t20.5 51t-20.5 51t-51.5 20.5h-72v-143z" />
    <glyph glyph-name="uni045B" unicode="&#x45b;" horiz-adv-x="1300" 
d="M543 1434v-113h194v-358h-194v-195q10 16 30.5 39.5t92 63.5t153.5 40q158 0 258.5 -112.5t100.5 -306.5v-492h-410v399q0 53 -31.5 88t-77 35t-81 -44t-35.5 -109v-369h-410v963h-143v358h143v113h410z" />
    <glyph glyph-name="uni045C" unicode="&#x45c;" horiz-adv-x="1208" 
d="M440 1116l185 348h430l-256 -348h-359zM1198 1004l-346 -431l356 -573h-430l-194 338l-72 -82v-256h-410v1004h410v-297l236 297h450z" />
    <glyph glyph-name="uni045E" unicode="&#x45e;" horiz-adv-x="1126" 
d="M174 -51q94 0 158 92l-352 963h419l154 -533l154 533h419l-368 -1014q-152 -420 -461 -420q-57 0 -113.5 10t-85.5 21l-26 10v358q41 -20 102 -20zM567 1116q-158 0 -263 100.5t-105 247.5h286q0 -92 82 -92t82 92h287q0 -147 -104.5 -247.5t-264.5 -100.5z" />
    <glyph glyph-name="uni045F" unicode="&#x45f;" horiz-adv-x="1259" 
d="M512 1004v-646h215v646h410v-1004h-318v-215h-409v215h-308v1004h410z" />
    <glyph glyph-name="uni0490" unicode="&#x490;" horiz-adv-x="1249" 
d="M154 0v1434h614v256h451v-666h-605v-1024h-460z" />
    <glyph glyph-name="uni0491" unicode="&#x491;" horiz-adv-x="952" 
d="M911 625h-399v-625h-410v1004h410v194h399v-573z" />
    <glyph glyph-name="uni1E9E" unicode="&#x1e9e;" horiz-adv-x="1443" 
d="M1300 1065l-184 -256q10 -2 28.5 -9t64.5 -36t81 -65.5t63.5 -105.5t28.5 -153q0 -182 -147.5 -311t-388.5 -129h-139v348h61q133 0 133 112.5t-133 112.5h-61v287l143 195h-102q-70 0 -112 -42t-42 -112v-901h-461v911q0 225 156.5 374t406.5 149h604v-369z" />
    <glyph glyph-name="endash" unicode="&#x2013;" horiz-adv-x="1095" 
d="M1034 768v-338h-973v338h973z" />
    <glyph glyph-name="emdash" unicode="&#x2014;" horiz-adv-x="1587" 
d="M1526 768v-338h-1465v338h1465z" />
    <glyph glyph-name="quoteleft" unicode="&#x2018;" horiz-adv-x="645" 
d="M358 809l-317 184l307 482l256 -144z" />
    <glyph glyph-name="quoteright" unicode="&#x2019;" horiz-adv-x="645" 
d="M287 1475l317 -185l-307 -481l-256 143z" />
    <glyph glyph-name="quotesinglbase" unicode="&#x201a;" horiz-adv-x="614" 
d="M236 399l317 -184l-307 -481l-256 143z" />
    <glyph glyph-name="quotedblleft" unicode="&#x201c;" horiz-adv-x="1105" 
d="M829 819l-297 174l308 482l225 -134zM338 819l-297 174l307 482l225 -134z" />
    <glyph glyph-name="quotedblright" unicode="&#x201d;" horiz-adv-x="1105" 
d="M276 1475l297 -175l-307 -481l-225 133zM768 1475l297 -175l-307 -481l-226 133z" />
    <glyph glyph-name="quotedblbase" unicode="&#x201e;" horiz-adv-x="1054" 
d="M205 389l297 -174l-307 -481l-226 133zM696 389l297 -174l-307 -481l-225 133z" />
    <glyph glyph-name="dagger" unicode="&#x2020;" horiz-adv-x="1034" 
d="M338 1178v256h358v-256h246v-318h-246v-624h-358v624h-246v318h246z" />
    <glyph glyph-name="daggerdbl" unicode="&#x2021;" horiz-adv-x="1034" 
d="M338 1229v205h358v-205h246v-318h-246v-153h246v-318h-246v-204h-358v204h-246v318h246v153h-246v318h246z" />
    <glyph glyph-name="bullet" unicode="&#x2022;" horiz-adv-x="921" 
d="M154 491.5q0 131.5 88 219.5t219 88t219 -88t88 -219.5t-88 -219.5t-219 -88t-219 88t-88 219.5z" />
    <glyph glyph-name="ellipsis" unicode="&#x2026;" horiz-adv-x="1781" 
d="M72 184q0 86 63.5 145.5t161.5 59.5t161.5 -59.5t63.5 -145.5t-63.5 -145t-161.5 -59t-161.5 59t-63.5 145zM666 184q0 86 63.5 145.5t161.5 59.5t161.5 -59.5t63.5 -145.5t-63.5 -145t-161.5 -59t-161.5 59t-63.5 145zM1260 184q0 86 63 145.5t161.5 59.5t162 -59.5
t63.5 -145.5t-63.5 -145t-162 -59t-161.5 59t-63 145z" />
    <glyph glyph-name="perthousand" unicode="&#x2030;" horiz-adv-x="2652" 
d="M276 0l902 1434h389l-901 -1434h-390zM317 1096q0 -47 28 -75t75 -28t74.5 28t27.5 75t-27.5 74.5t-74.5 27.5t-75 -27.5t-28 -74.5zM809 1095.5q0 -147.5 -114.5 -258t-274.5 -110.5t-274.5 110.5t-114.5 258t114.5 258t274.5 110.5t274.5 -110.5t114.5 -258zM1526 338
q0 47 -28 74.5t-75 27.5t-74.5 -27.5t-27.5 -74.5t27.5 -74.5t74.5 -27.5t75 27.5t28 74.5zM1034 337.5q0 147.5 115 258.5t274.5 111t274 -111t114.5 -258.5t-114.5 -258t-274 -110.5t-274.5 110.5t-115 258zM2335 338q0 47 -29 74.5t-74 27.5t-73.5 -27.5t-28.5 -74.5
t28.5 -74.5t73.5 -27.5t74 27.5t29 74.5zM1843 337.5q0 147.5 115 258.5t274.5 111t274 -111t114.5 -258.5t-114.5 -258t-274 -110.5t-274.5 110.5t-115 258z" />
    <glyph glyph-name="guilsinglleft" unicode="&#x2039;" horiz-adv-x="808" 
d="M748 870l-277 -378l277 -379h-410l-277 379l277 378h410z" />
    <glyph glyph-name="guilsinglright" unicode="&#x203a;" horiz-adv-x="808" 
d="M338 492l-277 378h410l277 -378l-277 -379h-410z" />
    <glyph glyph-name="fraction" unicode="&#x2044;" horiz-adv-x="522" 
d="M-379 0l891 1434h389l-891 -1434h-389z" />
    <glyph glyph-name="uni2070" unicode="&#x2070;" horiz-adv-x="778" 
d="M317 1269.5q0 -67.5 20.5 -100t51.5 -32.5q72 0 72 133t-72 133q-29 0 -50.5 -33t-21.5 -100.5zM737 1270q0 -166 -100 -272.5t-247.5 -106.5t-248 106.5t-100.5 272.5t100.5 272.5t248 106.5t247.5 -106.5t100 -272.5z" />
    <glyph glyph-name="uni2074" unicode="&#x2074;" horiz-adv-x="716" 
d="M614 1638v-378h72v-246h-72v-113h-276v113h-318v225l328 399h266zM246 1239h102v133z" />
    <glyph glyph-name="uni2075" unicode="&#x2075;" horiz-adv-x="686" 
d="M430 1382q92 0 158.5 -66.5t66.5 -158.5q0 -119 -84 -192.5t-233 -73.5q-66 0 -123 11t-91 27.5t-58.5 34t-34.5 27.5l-11 13l134 143q51 -51 122 -51q31 0 51.5 20.5t20.5 50.5q0 61 -61 62q-14 0 -29.5 -5t-24.5 -12l-8 -4h-153l51 430h481v-204h-246l-10 -62
q31 10 82 10z" />
    <glyph glyph-name="uni2076" unicode="&#x2076;" horiz-adv-x="686" 
d="M604 1638l-164 -204q8 -2 23.5 -6.5t54.5 -24t68.5 -46t54.5 -76.5t25 -114q0 -119 -87 -197.5t-230.5 -78.5t-230.5 78t-87 198q0 55 17.5 106.5t35.5 74.5l18 24l205 266h297zM410 1167.5q0 61.5 -61.5 61.5t-61.5 -61.5t61.5 -61.5t61.5 61.5z" />
    <glyph glyph-name="uni2077" unicode="&#x2077;" horiz-adv-x="624" 
d="M20 1638h584v-256l-215 -481h-297l215 481h-287v256z" />
    <glyph glyph-name="uni2078" unicode="&#x2078;" horiz-adv-x="696" 
d="M348.5 1096q61.5 0 61.5 51t-61.5 51t-61.5 -51t61.5 -51zM348.5 1362q22.5 0 36.5 12t14 28.5t-14 29t-36.5 12.5t-37 -12.5t-14.5 -29t14.5 -28.5t37 -12zM348.5 1649q147.5 0 227 -59.5t79.5 -145.5q0 -49 -30.5 -88t-61.5 -53l-31 -13q6 -2 15.5 -5t34 -17.5
t44 -32.5t35 -50t15.5 -69q0 -90 -87 -157.5t-240.5 -67.5t-241 67.5t-87.5 157.5q0 59 36 102.5t71 57.5l37 14q-4 2 -13.5 5t-30 16.5t-36.5 30t-29.5 44t-13.5 58.5q0 86 80 145.5t227.5 59.5z" />
    <glyph glyph-name="uni2079" unicode="&#x2079;" horiz-adv-x="686" 
d="M82 901l164 205q-8 2 -23.5 6t-54.5 23.5t-68.5 46t-54.5 77t-25 113.5q0 119 87.5 198t230.5 79t230 -78t87 -199q0 -55 -18.5 -106.5t-34.5 -73.5l-18 -25l-205 -266h-297zM276 1372.5q0 -61.5 61.5 -61.5t61.5 61.5t-61.5 61.5t-61.5 -61.5z" />
    <glyph glyph-name="uni2080" unicode="&#x2080;" horiz-adv-x="778" 
d="M317 163.5q0 -67.5 20.5 -100t51.5 -32.5q72 0 72 133t-72 133q-29 0 -50.5 -33t-21.5 -100.5zM737 164q0 -166 -100 -272.5t-247.5 -106.5t-248 106.5t-100.5 272.5t100.5 272.5t248 106.5t247.5 -106.5t100 -272.5z" />
    <glyph glyph-name="uni2081" unicode="&#x2081;" horiz-adv-x="512" 
d="M184 532h256v-737h-286v430h-123v205q49 6 88 31.5t53 48.5z" />
    <glyph glyph-name="uni2082" unicode="&#x2082;" horiz-adv-x="706" 
d="M655 307q0 -53 -26.5 -100t-56 -71.5t-76.5 -56.5t-62 -44h211v-240h-594q0 100 32 177t77 118t90 70.5t76.5 52.5t31.5 43q0 16 -14 28.5t-37 12.5q-18 0 -32.5 -11.5t-20.5 -23.5l-4 -12l-219 88q4 8 10 22.5t33.5 49t61.5 61.5t93.5 49.5t128.5 22.5q141 0 219 -66
t78 -170z" />
    <glyph glyph-name="uni2083" unicode="&#x2083;" horiz-adv-x="716" 
d="M532 174q6 -2 14.5 -4t32 -14.5t41 -28.5t32 -46t14.5 -67q0 -92 -84 -160.5t-224 -68.5q-109 0 -190.5 30.5t-110.5 61.5l-26 31l133 143q55 -61 133 -61q61 0 61 51t-71 51h-72v164h72q23 0 37 12.5t14 28.5t-14.5 28.5t-36.5 12.5q-25 0 -50.5 -13.5t-39.5 -25.5
l-13 -12l-133 143q8 12 27.5 30.5t98.5 50.5t179 32q135 0 214 -61.5t79 -143.5q0 -49 -29.5 -90t-58.5 -58z" />
    <glyph glyph-name="uni2084" unicode="&#x2084;" horiz-adv-x="716" 
d="M614 532v-378h72v-246h-72v-113h-276v113h-318v225l328 399h266zM246 133h102v133z" />
    <glyph glyph-name="uni2085" unicode="&#x2085;" horiz-adv-x="686" 
d="M430 276q92 0 158.5 -66.5t66.5 -158.5q0 -119 -84 -192.5t-233 -73.5q-66 0 -123 11t-91 27.5t-58.5 34t-34.5 27.5l-11 13l134 143q51 -51 122 -51q31 0 51.5 20.5t20.5 50.5q0 61 -61 62q-14 0 -29.5 -5t-24.5 -12l-8 -4h-153l51 430h481v-204h-246l-10 -62
q31 10 82 10z" />
    <glyph glyph-name="uni2086" unicode="&#x2086;" horiz-adv-x="686" 
d="M604 532l-164 -204q8 -2 23.5 -6.5t54.5 -23.5t68.5 -46t54.5 -77t25 -114q0 -119 -87 -197.5t-230.5 -78.5t-230.5 78t-87 198q0 55 17.5 106.5t35.5 74.5l18 24l205 266h297zM410 61.5q0 61.5 -61.5 61.5t-61.5 -61.5t61.5 -61.5t61.5 61.5z" />
    <glyph glyph-name="uni2087" unicode="&#x2087;" horiz-adv-x="624" 
d="M20 532h584v-256l-215 -481h-297l215 481h-287v256z" />
    <glyph glyph-name="uni2088" unicode="&#x2088;" horiz-adv-x="696" 
d="M348.5 -10q61.5 0 61.5 51t-61.5 51t-61.5 -51t61.5 -51zM348.5 256q22.5 0 36.5 12.5t14 28.5t-14 28.5t-36.5 12.5t-37 -12.5t-14.5 -28.5t14.5 -28.5t37 -12.5zM348.5 543q147.5 0 227 -59.5t79.5 -145.5q0 -49 -30.5 -88t-61.5 -53l-31 -13q6 -2 15.5 -5t34 -17.5
t44 -32.5t35 -50t15.5 -69q0 -90 -87 -157.5t-240.5 -67.5t-241 67.5t-87.5 157.5q0 59 36 102.5t71 57.5l37 14q-4 2 -13.5 5.5t-30 16.5t-36.5 29.5t-29.5 44t-13.5 58.5q0 86 80 145.5t227.5 59.5z" />
    <glyph glyph-name="uni2089" unicode="&#x2089;" horiz-adv-x="686" 
d="M82 -205l164 205q-8 2 -23.5 6t-54.5 23.5t-68.5 46t-54.5 77t-25 113.5q0 119 87.5 198t230.5 79t230 -78t87 -199q0 -55 -18.5 -106t-34.5 -74l-18 -25l-205 -266h-297zM276 266.5q0 -61.5 61.5 -61.5t61.5 61.5t-61.5 61.5t-61.5 -61.5z" />
    <glyph glyph-name="Euro" unicode="&#x20ac;" horiz-adv-x="1546" 
d="M1034 451h-317q4 -4 10 -13.5t30.5 -30t54.5 -37t78 -29.5t103 -13q74 0 142.5 32.5t101.5 65.5l33 35l246 -256q-6 -10 -20.5 -26.5t-65 -58.5t-108.5 -75t-155.5 -59.5t-203.5 -26.5q-156 0 -288 50t-212 123t-136.5 145.5t-78.5 123.5l-23 50h-174v215h144v102h-144
v215h174q8 20 23.5 53t77 118t138.5 149.5t210 118t289 53.5q106 0 203.5 -26t157.5 -61.5t106.5 -71.5t64.5 -63l21 -24l-246 -256q-12 14 -36 36.5t-95.5 59.5t-145.5 37q-86 0 -155.5 -31t-96.5 -61l-24 -31h317v-215h-389v-102h389v-215z" />
    <glyph glyph-name="uni20B4" unicode="&#x20b4;" horiz-adv-x="1382" 
d="M72 768v215h665q0 55 -41 94t-102 39q-55 0 -116.5 -20.5t-96.5 -40.5l-33 -21l-225 236q6 8 19.5 22.5t61.5 49t104.5 61.5t150.5 49.5t196 22.5q260 0 417 -142.5t157 -349.5h82v-215h-1239zM1311 666v-215h-666q0 -55 41 -94.5t102 -39.5q55 0 117 20.5t94 41.5l35 20
l226 -235q-6 -8 -19.5 -22.5t-62 -49.5t-104.5 -61.5t-150.5 -49t-196.5 -22.5q-260 0 -416.5 142.5t-156.5 349.5h-82v215h1239z" />
    <glyph glyph-name="uni20BD" unicode="&#x20bd;" horiz-adv-x="1474" 
d="M666 840h184q53 0 88 32.5t35 79.5t-35 80t-88 33h-184v-225zM881 532h-215v-71h389v-307h-389v-154h-461v154h-133v307h133v71h-133v308h133v594h672q256 0 406.5 -130t150.5 -320.5t-149.5 -321t-403.5 -130.5z" />
    <glyph glyph-name="uni2116" unicode="&#x2116;" horiz-adv-x="2478" 
d="M2396 358v-358h-717v358h717zM1085 1434h461v-1434h-389l-543 696v-696h-460v1434h389l542 -697v697zM2140 840q0 45 -27.5 73.5t-74.5 28.5t-75 -28.5t-28 -73.5t28 -74t75 -29t74.5 29t27.5 74zM1649 839.5q0 147.5 114.5 258t274.5 110.5t274.5 -110.5t114.5 -258
t-114.5 -258t-274.5 -110.5t-274.5 110.5t-114.5 258z" />
    <glyph glyph-name="trademark" unicode="&#x2122;" horiz-adv-x="1669" 
d="M1137 860l-154 195v-297h-276v676h256l174 -226l174 226h256v-676h-277v297zM31 1167v267h604v-267h-164v-409h-276v409h-164z" />
    <glyph glyph-name="minus" unicode="&#x2212;" horiz-adv-x="1095" 
d="M1034 788v-368h-973v368h973z" />
    <glyph glyph-name="approxequal" unicode="&#x2248;" horiz-adv-x="1198" 
d="M481 707q-49 0 -93 -24t-62 -46l-19 -23l-266 195q2 10 9 27.5t33 61.5t59.5 78t94 61.5t132.5 27.5q92 0 189 -51t159 -51q49 0 93 22.5t62 46.5l19 23l266 -195q-2 -10 -9 -27.5t-32.5 -61.5t-59.5 -78t-94.5 -61.5t-132.5 -27.5q-92 0 -189.5 51.5t-158.5 51.5z
M481 236q-49 0 -93 -24t-62 -46l-19 -23l-266 195q2 10 9 27.5t33 61.5t59.5 78t94 61.5t132.5 27.5q92 0 189 -51t159 -51q49 0 93 22.5t62 46.5l19 23l266 -195q-2 -10 -9 -27.5t-32.5 -61.5t-59.5 -78t-94.5 -61.5t-132.5 -27.5q-92 0 -189.5 51.5t-158.5 51.5z" />
    <glyph glyph-name="notequal" unicode="&#x2260;" horiz-adv-x="1013" 
d="M952 543v-328h-420l-51 -143h-368l51 143h-103v328h236l51 123h-287v327h410l61 144h369l-61 -144h112v-327h-235l-51 -123h286z" />
    <glyph glyph-name="lessequal" unicode="&#x2264;" horiz-adv-x="1075" 
d="M563 819l451 -133v-348l-953 348v266l953 348v-348zM61 0v307h953v-307h-953z" />
    <glyph glyph-name="greaterequal" unicode="&#x2265;" horiz-adv-x="1075" 
d="M61 686l451 133l-451 133v348l953 -348v-266l-953 -348v348zM1014 307v-307h-953v307h953z" />
    <glyph glyph-name="uniF6C3" unicode="&#xf6c3;" horiz-adv-x="624" 
d="M61 -512l113 348h389l-164 -348h-338z" />
    <glyph glyph-name="uniF6D1" unicode="&#xf6d1;" horiz-adv-x="901" 
d="M450.5 1567q-167.5 0 -278.5 106.5t-111 261.5h287q0 -53 27.5 -82.5t75 -29.5t75 29.5t27.5 82.5h287q0 -156 -111 -262t-278.5 -106z" />
    <glyph glyph-name="uniF6D4" unicode="&#xf6d4;" horiz-adv-x="860" 
d="M430 1116q-158 0 -263.5 100.5t-105.5 247.5h287q0 -92 82 -92t82 92h287q0 -147 -104.5 -247.5t-264.5 -100.5z" />
    <glyph glyph-name="glyph2" horiz-adv-x="681" 
 />
    <glyph glyph-name="lslash.salt" horiz-adv-x="911" 
d="M625 1434v-379l102 61l174 -307l-276 -164v-184q0 -53 27.5 -83t74.5 -30q27 0 52.5 5t37.5 12l12 4v-359q-92 -31 -215 -30q-193 0 -296 106.5t-103 312.5l-102 -61l-174 307l276 164v625h410z" />
    <glyph glyph-name="glyph444" horiz-adv-x="1443" 
d="M1300 1065l-184 -256q10 -2 28.5 -9t64.5 -36t81 -65.5t63.5 -105.5t28.5 -153q0 -182 -147.5 -311t-388.5 -129h-139v348h61q133 0 133 112.5t-133 112.5h-61v287l143 195h-102q-70 0 -112 -42t-42 -112v-901h-461v911q0 225 156.5 374t406.5 149h604v-369z" />
    <glyph glyph-name="uni045E.salt" horiz-adv-x="1126" 
d="M553 1116q-158 0 -263.5 100.5t-105.5 247.5h287q0 -92 82 -92t82 92h287q0 -147 -104.5 -247.5t-264.5 -100.5zM184 -430l164 430l-368 1004h419l154 -533l154 533h419l-522 -1434h-420z" />
    <glyph glyph-name="agrave.salt" horiz-adv-x="1157" 
d="M963 -20q-100 0 -169 38.5t-89 75.5l-19 39q-4 -6 -12 -16.5t-38 -37t-63.5 -47t-89 -36.5t-114.5 -16q-135 0 -226.5 85t-91.5 201q0 242 318 318l256 61q0 33 -33 57.5t-90 24.5q-49 0 -98.5 -23.5t-71.5 -46.5l-25 -22l-194 205q6 8 17 21t52 46t88 58.5t124 47
t159 21.5q211 0 341 -117.5t130 -291.5v-205q0 -61 51 -62l41 11v-359q-51 -30 -153 -30zM512 276q47 0 80 37t33 97v30l-113 -30q-61 -16 -61 -72q0 -62 61 -62zM625 1475l184 -349h-358l-256 349h430z" />
    <glyph glyph-name="aacute.salt" horiz-adv-x="1157" 
d="M963 -20q-100 0 -169 38.5t-89 75.5l-19 39q-4 -6 -12 -16.5t-38 -37t-63.5 -47t-89 -36.5t-114.5 -16q-135 0 -226.5 85t-91.5 201q0 242 318 318l256 61q0 33 -33 57.5t-90 24.5q-49 0 -98.5 -23.5t-71.5 -46.5l-25 -22l-194 205q6 8 17 21t52 46t88 58.5t124 47
t159 21.5q211 0 341 -117.5t130 -291.5v-205q0 -61 51 -62l41 11v-359q-51 -30 -153 -30zM512 276q47 0 80 37t33 97v30l-113 -30q-61 -16 -61 -72q0 -62 61 -62zM410 1126l184 349h430l-256 -349h-358z" />
    <glyph glyph-name="abreve.salt" horiz-adv-x="1157" 
d="M963 -20q-100 0 -169 38.5t-89 75.5l-19 39q-4 -6 -12 -16.5t-38 -37t-63.5 -47t-89 -36.5t-114.5 -16q-135 0 -226.5 85t-91.5 201q0 242 318 318l256 61q0 33 -33 57.5t-90 24.5q-49 0 -98.5 -23.5t-71.5 -46.5l-25 -22l-194 205q6 8 17 21t52 46t88 58.5t124 47
t159 21.5q211 0 341 -117.5t130 -291.5v-205q0 -61 51 -62l41 11v-359q-51 -30 -153 -30zM512 276q47 0 80 37t33 97v30l-113 -30q-61 -16 -61 -72q0 -62 61 -62zM614 1126q-158 0 -263 100.5t-105 248.5h286q0 -92 82 -92.5t82 92.5h287q0 -147 -104.5 -248t-264.5 -101z
" />
    <glyph glyph-name="acircumflex.salt" horiz-adv-x="1157" 
d="M963 -20q-100 0 -169 38.5t-89 75.5l-19 39q-4 -6 -12 -16.5t-38 -37t-63.5 -47t-89 -36.5t-114.5 -16q-135 0 -226.5 85t-91.5 201q0 242 318 318l256 61q0 33 -33 57.5t-90 24.5q-49 0 -98.5 -23.5t-71.5 -46.5l-25 -22l-194 205q6 8 17 21t52 46t88 58.5t124 47
t159 21.5q211 0 341 -117.5t130 -291.5v-205q0 -61 51 -62l41 11v-359q-51 -30 -153 -30zM512 276q47 0 80 37t33 97v30l-113 -30q-61 -16 -61 -72q0 -62 61 -62zM696 1126l-92 134l-92 -134h-369l287 349h348l287 -349h-369z" />
    <glyph glyph-name="adieresis.salt" horiz-adv-x="1157" 
d="M963 -20q-100 0 -169 38.5t-89 75.5l-19 39q-4 -6 -12 -16.5t-38 -37t-63.5 -47t-89 -36.5t-114.5 -16q-135 0 -226.5 85t-91.5 201q0 242 318 318l256 61q0 33 -33 57.5t-90 24.5q-49 0 -98.5 -23.5t-71.5 -46.5l-25 -22l-194 205q6 8 17 21t52 46t88 58.5t124 47
t159 21.5q211 0 341 -117.5t130 -291.5v-205q0 -61 51 -62l41 11v-359q-51 -30 -153 -30zM512 276q47 0 80 37t33 97v30l-113 -30q-61 -16 -61 -72q0 -62 61 -62zM154 1300.5q0 75.5 58 135t136 59.5t136.5 -59.5t58.5 -135t-58.5 -135t-136.5 -59.5t-136 59.5t-58 135z
M645 1300.5q0 75.5 58.5 135t136.5 59.5t136 -59.5t58 -135t-58 -135t-136 -59.5t-136.5 59.5t-58.5 135z" />
    <glyph glyph-name="amacron.salt" horiz-adv-x="1157" 
d="M963 -20q-100 0 -169 38.5t-89 75.5l-19 39q-4 -6 -12 -16.5t-38 -37t-63.5 -47t-89 -36.5t-114.5 -16q-135 0 -226.5 85t-91.5 201q0 242 318 318l256 61q0 33 -33 57.5t-90 24.5q-49 0 -98.5 -23.5t-71.5 -46.5l-25 -22l-194 205q6 8 17 21t52 46t88 58.5t124 47
t159 21.5q211 0 341 -117.5t130 -291.5v-205q0 -61 51 -62l41 11v-359q-51 -30 -153 -30zM512 276q47 0 80 37t33 97v30l-113 -30q-61 -16 -61 -72q0 -62 61 -62zM963 1485v-307h-697v307h697z" />
    <glyph glyph-name="aogonek.salt" horiz-adv-x="1157" 
d="M1116 10q-51 -31 -153 -30q-41 -94 -41 -185q0 -82 82 -82q23 0 46 8.5t35 16.5l11 6v-215q-72 -41 -195 -41q-113 0 -189.5 72.5t-76.5 173.5q0 66 42 130t76.5 94t63.5 48q-47 18 -79.5 50t-41.5 55l-10 22q-4 -6 -12 -16.5t-38 -37t-63.5 -47t-89 -36.5t-114.5 -16
q-135 0 -226.5 85t-91.5 201q0 242 318 318l256 61q0 33 -33 57.5t-90 24.5q-49 0 -98.5 -23.5t-71.5 -46.5l-25 -22l-194 205q6 8 17 21t52 46t88 58.5t124 47t159 21.5q211 0 341 -117.5t130 -291.5v-205q0 -61 51 -62l41 11v-359zM512 276q47 0 80 37t33 97v30l-113 -30
q-61 -16 -61 -72q0 -62 61 -62z" />
    <glyph glyph-name="aring.salt" horiz-adv-x="1157" 
d="M532 1352q0 -82 82 -82t82 82t-82 82t-82 -82zM901 1351.5q0 -108.5 -83 -187.5t-203.5 -79t-203.5 79t-83 187.5t83 187.5t203.5 79t203.5 -79t83 -187.5zM963 -20q-100 0 -169 38.5t-89 75.5l-19 39q-4 -6 -12 -16.5t-38 -37t-63.5 -47t-89 -36.5t-114.5 -16
q-135 0 -226.5 85t-91.5 201q0 242 318 318l256 61q0 33 -33 57.5t-90 24.5q-49 0 -98.5 -23.5t-71.5 -46.5l-25 -22l-194 205q6 8 17 21t52 46t88 58.5t124 47t159 21.5q211 0 341 -117.5t130 -291.5v-205q0 -61 51 -62l41 11v-359q-51 -30 -153 -30zM512 276q47 0 80 37
t33 97v30l-113 -30q-61 -16 -61 -72q0 -62 61 -62z" />
    <glyph glyph-name="atilde.salt" horiz-adv-x="1157" 
d="M963 -20q-100 0 -169 38.5t-89 75.5l-19 39q-4 -6 -12 -16.5t-38 -37t-63.5 -47t-89 -36.5t-114.5 -16q-135 0 -226.5 85t-91.5 201q0 242 318 318l256 61q0 33 -33 57.5t-90 24.5q-49 0 -98.5 -23.5t-71.5 -46.5l-25 -22l-194 205q6 8 17 21t52 46t88 58.5t124 47
t159 21.5q211 0 341 -117.5t130 -291.5v-205q0 -61 51 -62l41 11v-359q-51 -30 -153 -30zM512 276q47 0 80 37t33 97v30l-113 -30q-61 -16 -61 -72q0 -62 61 -62zM553 1188q-31 0 -51.5 -22.5t-20.5 -59.5h-245q0 369 225 369q70 0 136.5 -41t88.5 -41q31 0 51.5 22.5
t20.5 59.5h246q0 -369 -226 -369q-70 0 -136 41t-89 41z" />
    <glyph glyph-name="lacute.salt" horiz-adv-x="778" 
d="M143 1587l185 348h430l-256 -348h-359zM522 1434v-973q0 -53 28 -83t75 -30q27 0 52 5t38 12l12 4v-359q-92 -31 -215 -30q-193 0 -296 106.5t-103 312.5v1035h409z" />
    <glyph glyph-name="lcaron.salt" horiz-adv-x="860" 
d="M522 1434v-973q0 -53 28 -83t75 -30q27 0 52 5t38 12l12 4v-359q-92 -31 -215 -30q-193 0 -296 106.5t-103 312.5v1035h409zM563 1085l113 349h389l-164 -349h-338z" />
    <glyph glyph-name="uni013C.salt" horiz-adv-x="778" 
d="M522 1434v-973q0 -53 28 -83t75 -30q27 0 52 5t38 12l12 4v-359q-92 -31 -215 -30q-193 0 -296 106.5t-103 312.5v1035h409zM133 -512l113 348h389l-164 -348h-338z" />
    <glyph glyph-name="Igrave.salt" horiz-adv-x="972" 
d="M82 1014v420h809v-420h-174v-594h174v-420h-809v420h174v594h-174zM471 1935l184 -348h-358l-256 348h430z" />
    <glyph glyph-name="Iacute.salt" horiz-adv-x="972" 
d="M82 1014v420h809v-420h-174v-594h174v-420h-809v420h174v594h-174zM297 1587l184 348h430l-256 -348h-358z" />
    <glyph glyph-name="Icircumflex.salt" horiz-adv-x="972" 
d="M82 1014v420h809v-420h-174v-594h174v-420h-809v420h174v594h-174zM573 1587l-92 133l-92 -133h-369l287 348h348l287 -348h-369z" />
    <glyph glyph-name="Idieresis.salt" horiz-adv-x="972" 
d="M82 1014v420h809v-420h-174v-594h174v-420h-809v420h174v594h-174zM41 1761q0 78 59.5 136.5t135 58.5t135 -58.5t59.5 -136.5t-59.5 -136t-135 -58t-135 58t-59.5 136zM532 1761q0 78 59.5 136.5t135.5 58.5t135.5 -58.5t59.5 -136.5t-59.5 -136t-135.5 -58t-135.5 58
t-59.5 136z" />
    <glyph glyph-name="Idotaccent.salt" horiz-adv-x="972" 
d="M82 1014v420h809v-420h-174v-594h174v-420h-809v420h174v594h-174zM707 1761q0 -86 -63.5 -145.5t-162 -59.5t-162 59.5t-63.5 145.5t63.5 145.5t162 59.5t162 -59.5t63.5 -145.5z" />
    <glyph glyph-name="Imacron.salt" horiz-adv-x="972" 
d="M82 1014v420h809v-420h-174v-594h174v-420h-809v420h174v594h-174zM829 1935v-307h-696v307h696z" />
    <glyph glyph-name="Iogonek.salt" horiz-adv-x="972" 
d="M727 0h-645v420h174v594h-174v420h809v-420h-174v-594h174v-420q-61 -102 -62 -205q0 -82 82 -82q23 0 46.5 8.5t33.5 16.5l13 6v-215q-72 -41 -195 -41q-113 0 -189.5 72.5t-76.5 173.5q0 45 19.5 89t46 74.5t53 54t47.5 36.5z" />
    <glyph glyph-name="yacute.salt" 
d="M451 1116l184 348h430l-256 -348h-358zM748 1004h409v-887q0 -244 -158.5 -395.5t-425.5 -151.5q-92 0 -174 22.5t-134 53t-91 62.5t-55 54l-17 23l215 225q8 -12 26.5 -28.5t77 -45t122.5 -28.5q205 0 205 205v71q-4 -6 -10.5 -15t-31 -33.5t-54 -44t-78 -35
t-103.5 -15.5q-150 0 -254 114.5t-104 295.5v553h409v-451q0 -53 33 -88t80 -35t80 38t33 105v431z" />
    <glyph glyph-name="ydieresis.salt" 
d="M748 1004h409v-887q0 -244 -158.5 -395.5t-425.5 -151.5q-92 0 -174 22.5t-134 53t-91 62.5t-55 54l-17 23l215 225q8 -12 26.5 -28.5t77 -45t122.5 -28.5q205 0 205 205v71q-4 -6 -10.5 -15t-31 -33.5t-54 -44t-78 -35t-103.5 -15.5q-150 0 -254 114.5t-104 295.5v553
h409v-451q0 -53 33 -88t80 -35t80 38t33 105v431zM195 1290q0 78 58 136.5t136 58.5t136.5 -58.5t58.5 -136.5t-58.5 -136t-136.5 -58t-136 58t-58 136zM686 1290q0 78 58.5 136.5t136 58.5t136 -58.5t58.5 -136.5t-58.5 -136t-136 -58t-136 58t-58.5 136z" />
    <glyph glyph-name="ugrave.salt" 
d="M625 1464l184 -348h-358l-256 348h430zM1137 1004v-584q0 -61 51 -62l41 11v-359q-51 -31 -154 -30q-100 0 -168.5 38.5t-87.5 75.5l-20 39q-4 -6 -12.5 -16.5t-38 -37t-64.5 -47t-92 -36.5t-121 -16q-164 0 -266.5 111.5t-102.5 307.5v605h410v-512q0 -123 102 -123
q47 0 80 37.5t33 105.5v492h410z" />
    <glyph glyph-name="uacute.salt" 
d="M430 1116l184 348h430l-256 -348h-358zM1137 1004v-584q0 -61 51 -62l41 11v-359q-51 -31 -154 -30q-100 0 -168.5 38.5t-87.5 75.5l-20 39q-4 -6 -12.5 -16.5t-38 -37t-64.5 -47t-92 -36.5t-121 -16q-164 0 -266.5 111.5t-102.5 307.5v605h410v-512q0 -123 102 -123
q47 0 80 37.5t33 105.5v492h410z" />
    <glyph glyph-name="ucircumflex.salt" 
d="M1137 1004v-584q0 -61 51 -62l41 11v-359q-51 -31 -154 -30q-100 0 -168.5 38.5t-87.5 75.5l-20 39q-4 -6 -12.5 -16.5t-38 -37t-64.5 -47t-92 -36.5t-121 -16q-164 0 -266.5 111.5t-102.5 307.5v605h410v-512q0 -123 102 -123q47 0 80 37.5t33 105.5v492h410zM707 1116
l-93 133l-92 -133h-368l286 348h348l287 -348h-368z" />
    <glyph glyph-name="udieresis.salt" 
d="M1137 1004v-584q0 -61 51 -62l41 11v-359q-51 -31 -154 -30q-100 0 -168.5 38.5t-87.5 75.5l-20 39q-4 -6 -12.5 -16.5t-38 -37t-64.5 -47t-92 -36.5t-121 -16q-164 0 -266.5 111.5t-102.5 307.5v605h410v-512q0 -123 102 -123q47 0 80 37.5t33 105.5v492h410zM174 1290
q0 78 58.5 136.5t136 58.5t136 -58.5t58.5 -136.5t-58.5 -136t-136 -58t-136 58t-58.5 136zM666 1290q0 78 58 136.5t136 58.5t136.5 -58.5t58.5 -136.5t-58.5 -136t-136.5 -58t-136 58t-58 136z" />
    <glyph glyph-name="uhungarumlaut.salt" 
d="M1137 1004v-584q0 -61 51 -62l41 11v-359q-51 -31 -154 -30q-100 0 -168.5 38.5t-87.5 75.5l-20 39q-4 -6 -12.5 -16.5t-38 -37t-64.5 -47t-92 -36.5t-121 -16q-164 0 -266.5 111.5t-102.5 307.5v605h410v-512q0 -123 102 -123q47 0 80 37.5t33 105.5v492h410zM225 1116
l195 348h368l-266 -348h-297zM686 1116l195 348h368l-266 -348h-297z" />
    <glyph glyph-name="umacron.salt" 
d="M1137 1004v-584q0 -61 51 -62l41 11v-359q-51 -31 -154 -30q-100 0 -168.5 38.5t-87.5 75.5l-20 39q-4 -6 -12.5 -16.5t-38 -37t-64.5 -47t-92 -36.5t-121 -16q-164 0 -266.5 111.5t-102.5 307.5v605h410v-512q0 -123 102 -123q47 0 80 37.5t33 105.5v492h410zM973 1464
v-307h-697v307h697z" />
    <glyph glyph-name="uogonek.salt" 
d="M1137 1004v-584q0 -61 51 -62l41 11v-359q-51 -31 -154 -30q-41 -94 -41 -185q0 -82 82 -82q23 0 46.5 8.5t33.5 16.5l12 6v-215q-72 -41 -194 -41q-113 0 -189.5 72.5t-76.5 173.5q0 68 45 134t78.5 95t58.5 43q-47 18 -80 50t-43 55l-8 22q-4 -6 -12.5 -16.5t-38 -37
t-64.5 -47t-92 -36.5t-121 -16q-164 0 -266.5 111.5t-102.5 307.5v605h410v-512q0 -123 102 -123q47 0 80 37.5t33 105.5v492h410z" />
    <glyph glyph-name="uring.salt" 
d="M543 1341.5q0 -81.5 82 -81.5t82 81.5t-82 81.5t-82 -81.5zM911 1341.5q0 -108.5 -83 -187.5t-203.5 -79t-203.5 79t-83 187.5t83 187.5t203.5 79t203.5 -79t83 -187.5zM1137 1004v-584q0 -61 51 -62l41 11v-359q-51 -31 -154 -30q-100 0 -168.5 38.5t-87.5 75.5l-20 39
q-4 -6 -12.5 -16.5t-38 -37t-64.5 -47t-92 -36.5t-121 -16q-164 0 -266.5 111.5t-102.5 307.5v605h410v-512q0 -123 102 -123q47 0 80 37.5t33 105.5v492h410z" />
    <glyph glyph-name="a.salt" horiz-adv-x="1157" 
d="M963 -20q-100 0 -169 38.5t-89 75.5l-19 39q-4 -6 -12 -16.5t-38 -37t-63.5 -47t-89 -36.5t-114.5 -16q-135 0 -226.5 85t-91.5 201q0 242 318 318l256 61q0 33 -33 57.5t-90 24.5q-49 0 -98.5 -23.5t-71.5 -46.5l-25 -22l-194 205q6 8 17 21t52 46t88 58.5t124 47
t159 21.5q211 0 341 -117.5t130 -291.5v-205q0 -61 51 -62l41 11v-359q-51 -30 -153 -30zM512 276q47 0 80 37t33 97v30l-113 -30q-61 -16 -61 -72q0 -62 61 -62z" />
    <glyph glyph-name="l.salt" horiz-adv-x="778" 
d="M522 1434v-973q0 -53 28 -83t75 -30q27 0 52 5t38 12l12 4v-359q-92 -31 -215 -30q-193 0 -296 106.5t-103 312.5v1035h409z" />
    <glyph glyph-name="uni0443.salt" horiz-adv-x="1126" 
d="M184 -430l164 430l-368 1004h419l154 -533l154 533h419l-522 -1434h-420z" />
    <glyph glyph-name="y.salt" 
d="M748 1004h409v-887q0 -244 -158.5 -395.5t-425.5 -151.5q-92 0 -174 22.5t-134 53t-91 62.5t-55 54l-17 23l215 225q8 -12 26.5 -28.5t77 -45t122.5 -28.5q205 0 205 205v71q-4 -6 -10.5 -15t-31 -33.5t-54 -44t-78 -35t-103.5 -15.5q-150 0 -254 114.5t-104 295.5v553
h409v-451q0 -53 33 -88t80 -35t80 38t33 105v431z" />
    <glyph glyph-name="I.salt" horiz-adv-x="972" 
d="M82 1014v420h809v-420h-174v-594h174v-420h-809v420h174v594h-174z" />
    <glyph glyph-name="u.salt" 
d="M1137 1004v-584q0 -61 51 -62l41 11v-359q-51 -31 -154 -30q-100 0 -168.5 38.5t-87.5 75.5l-20 39q-4 -6 -12.5 -16.5t-38 -37t-64.5 -47t-92 -36.5t-121 -16q-164 0 -266.5 111.5t-102.5 307.5v605h410v-512q0 -123 102 -123q47 0 80 37.5t33 105.5v492h410z" />
    <glyph glyph-name="uni0430.salt" horiz-adv-x="1157" 
d="M963 -20q-100 0 -169 38.5t-89 75.5l-19 39q-4 -6 -12 -16.5t-38 -37t-63.5 -47t-89 -36.5t-114.5 -16q-135 0 -226.5 85t-91.5 201q0 242 318 318l256 61q0 33 -33 57.5t-90 24.5q-49 0 -98.5 -23.5t-71.5 -46.5l-25 -22l-194 205q6 8 17 21t52 46t88 58.5t124 47
t159 21.5q211 0 341 -117.5t130 -291.5v-205q0 -61 51 -62l41 11v-359q-51 -30 -153 -30zM512 276q47 0 80 37t33 97v30l-113 -30q-61 -16 -61 -72q0 -62 61 -62z" />
    <glyph glyph-name="at.case" horiz-adv-x="1832" 
d="M901 819q-39 0 -70.5 -33.5t-31.5 -78.5t31.5 -79t70.5 -34t71 34t32 79t-32 78.5t-71 33.5zM840 1085q45 0 84 -15t55 -30l14 -16v51h277v-389q0 -45 26.5 -73.5t65.5 -28.5q49 0 81 43t32 131q0 217 -161 369.5t-403 152.5q-223 0 -388 -167t-165 -396.5t165 -396
t388 -166.5q96 0 185.5 30.5t132.5 61.5l41 30l164 -194q-8 -8 -23.5 -20.5t-67 -44t-107.5 -56t-144 -44t-181 -19.5q-344 0 -586.5 241.5t-242.5 577.5t242.5 577.5t586.5 241.5q356 0 598 -228.5t242 -549.5q0 -203 -101.5 -316.5t-267.5 -113.5q-78 0 -141 30.5
t-90 61.5l-25 31q-4 -4 -10 -13.5t-29.5 -30t-51 -37t-71.5 -29.5t-94 -13q-150 0 -249 104.5t-99 274.5q0 164 95.5 271t222.5 107z" />
    <glyph glyph-name="parenleft.case" horiz-adv-x="839" 
d="M532 717q0 -201 70 -402.5t139 -304.5l68 -102l-317 -184q-16 16 -42 46.5t-93.5 131t-119 209t-93.5 274.5t-42 332t40 329.5t97.5 278.5t115 205t96.5 135l41 45l317 -184q-10 -14 -29.5 -41t-66.5 -113t-84 -176t-67 -221t-30 -258z" />
    <glyph glyph-name="parenright.case" horiz-adv-x="839" 
d="M307 717q0 201 -69.5 402.5t-139.5 303.5l-67 103l317 184q16 -16 42 -47t93.5 -131t118.5 -209t93 -274.5t42 -331.5t-40 -330t-97 -278.5t-114.5 -204.5t-96.5 -135l-41 -45l-317 184q10 14 29.5 40.5t66.5 112.5t84 176.5t66.5 221.5t29.5 258z" />
    <glyph glyph-name="bracketleft.case" horiz-adv-x="870" 
d="M594 1280v-1126h205v-379h-635v1884h635v-379h-205z" />
    <glyph glyph-name="bracketright.case" horiz-adv-x="870" 
d="M276 156v1126h-204v379h635v-1884h-635v379h204z" />
    <glyph glyph-name="braceleft.case" horiz-adv-x="942" 
d="M481 717q8 -2 21.5 -6t46.5 -22.5t58.5 -44.5t47 -75t21.5 -108v-185q0 -47 32.5 -79.5t79.5 -32.5h72v-389h-225q-178 0 -283.5 109.5t-105.5 299.5v205q0 61 -43 102t-111 41v369q68 0 111 41t43 102v205q0 190 105.5 300t283.5 110h225v-389h-72q-47 0 -79.5 -33
t-32.5 -80v-184q0 -96 -49 -159.5t-99 -80.5z" />
    <glyph glyph-name="braceright.case" horiz-adv-x="942" 
d="M461 717q-8 2 -21.5 6t-46.5 22.5t-58.5 44t-47 74.5t-21.5 109v184q0 47 -32.5 80t-79.5 33h-72v389h225q178 0 283.5 -109.5t105.5 -300.5v-205q0 -61 43 -102t111 -41v-369q-68 0 -111 -40.5t-43 -102.5v-205q0 -190 -105.5 -299.5t-283.5 -109.5h-225v389h72
q47 0 79.5 32.5t32.5 79.5v185q0 96 49.5 159.5t98.5 79.5z" />
    <glyph glyph-name="exclamdown.case" horiz-adv-x="716" 
d="M184 952h348l72 -952h-491zM133 1249q0 86 63.5 145.5t162 59.5t162 -59.5t63.5 -145.5t-63.5 -145.5t-162 -59.5t-162 59.5t-63.5 145.5z" />
    <glyph glyph-name="questiondown.case" horiz-adv-x="1177" 
d="M829 860q0 -72 -29.5 -127t-71.5 -89t-84 -60.5t-71.5 -54t-29.5 -58.5q0 -82 92 -82q49 0 88 22.5t51 47.5l14 22l390 -174q-6 -14 -18.5 -37.5t-60.5 -83t-108.5 -105.5t-167 -84t-229.5 -38q-252 0 -407.5 131t-155.5 309q0 92 32.5 165t83 119t102.5 85t98 86t63 98
h399q20 -51 20 -92zM850 1249q0 -86 -63.5 -145.5t-162 -59.5t-162 59.5t-63.5 145.5t63.5 145.5t162 59.5t162 -59.5t63.5 -145.5z" />
    <glyph glyph-name="guillemotleft.case" horiz-adv-x="1300" 
d="M717 1096l-277 -379l277 -379h-379l-277 379l277 379h379zM1239 1096l-276 -379l276 -379h-379l-276 379l276 379h379z" />
    <glyph glyph-name="guillemotright.case" horiz-adv-x="1300" 
d="M860 717l-276 379h379l276 -379l-276 -379h-379zM338 717l-277 379h379l277 -379l-277 -379h-379z" />
    <glyph glyph-name="guilsinglleft.case" horiz-adv-x="808" 
d="M748 1096l-277 -379l277 -379h-410l-277 379l277 379h410z" />
    <glyph glyph-name="guilsinglright.case" horiz-adv-x="808" 
d="M338 717l-277 379h410l277 -379l-277 -379h-410z" />
    <glyph glyph-name="hyphen.case" horiz-adv-x="890" 
d="M829 893v-369h-768v369h768z" />
    <glyph glyph-name="endash.case" horiz-adv-x="1095" 
d="M1034 879v-338h-973v338h973z" />
    <glyph glyph-name="emdash.case" horiz-adv-x="1587" 
d="M1526 879v-338h-1465v338h1465z" />
    <glyph glyph-name="periodcentered.case" horiz-adv-x="450" 
d="M0 709q0 86 63.5 145t162 59t162 -59t63.5 -145t-63.5 -145.5t-162 -59.5t-162 59.5t-63.5 145.5z" />
    <glyph glyph-name="zero.tnum" horiz-adv-x="1392" 
d="M512 717q0 -178 53 -263t131 -85t131.5 85t53.5 263t-53.5 263t-131.5 85t-131 -85t-53 -263zM1341 717q0 -336 -188 -547t-456.5 -211t-457 211t-188.5 547t188.5 547t457 211t456.5 -211t188 -547z" />
    <glyph glyph-name="one.tnum" horiz-adv-x="1392" 
d="M594 1434h410v-1434h-461v963h-226v276q57 8 106.5 31.5t79 50.5t52.5 52.5t31 43.5z" />
    <glyph glyph-name="two.tnum" horiz-adv-x="1392" 
d="M1239 0h-1116q0 199 64.5 351.5t156.5 236.5t183 144.5t156 113.5t65 106q0 39 -31 65.5t-82 26.5q-41 0 -77 -22.5t-50 -46.5l-16 -23l-390 174q6 14 19.5 38t64 83.5t111.5 105.5t168.5 84t230.5 38q248 0 400.5 -136.5t152.5 -334.5q0 -98 -35.5 -178.5t-95 -134.5
t-120 -96t-125 -85t-95.5 -80h461v-430z" />
    <glyph glyph-name="three.tnum" horiz-adv-x="1392" 
d="M1014 758q10 -4 26.5 -11.5t58.5 -36t74.5 -65.5t59.5 -102.5t27 -143.5q0 -178 -160 -309t-424 -131q-109 0 -208 24.5t-162.5 59.5t-112 68.5t-70.5 58.5l-21 25l256 266q12 -14 35 -34.5t90.5 -54.5t130.5 -34q68 0 106 32.5t38 80.5q0 102 -144 102h-143v348h143
q51 0 82 26.5t31 65.5t-36 71t-87 32q-49 0 -98 -23.5t-72 -46.5l-24 -22l-267 266q6 8 19.5 22.5t62.5 49t106.5 61.5t153 49.5t201.5 22.5q242 0 392.5 -124t150.5 -286q0 -63 -22.5 -117.5t-53.5 -88.5t-62.5 -57.5t-54.5 -33.5z" />
    <glyph glyph-name="four.tnum" horiz-adv-x="1402" 
d="M1178 584h133v-379h-133v-205h-461v205h-625v409l594 820h492v-850zM717 584v317l-215 -317h215z" />
    <glyph glyph-name="five.tnum" horiz-adv-x="1392" 
d="M819 942q201 0 331 -133t130 -338q0 -219 -159.5 -365.5t-424.5 -146.5q-109 0 -209 24.5t-165.5 59.5t-114.5 68.5t-72 58.5l-22 25l266 276q12 -12 32.5 -30.5t85 -50.5t128.5 -32q68 0 110.5 37t42.5 86q0 55 -41 94t-102 39q-41 0 -77 -15t-50 -30l-16 -16l-314 61
l58 820h962v-379h-553l-20 -154q81 41 194 41z" />
    <glyph glyph-name="six.tnum" horiz-adv-x="1392" 
d="M1106 1434l-297 -451q20 -2 53 -10t118 -44t149.5 -87t117.5 -149.5t53 -221.5q0 -213 -167.5 -362.5t-436 -149.5t-436.5 149.5t-168 362.5q0 96 38 195.5t77 152.5l39 51l368 564h492zM829 471q0 61 -38.5 102t-94 41t-94.5 -41t-39 -102q0 -53 40 -93t93.5 -40t93 40
t39.5 93z" />
    <glyph glyph-name="seven.tnum" horiz-adv-x="1392" 
d="M174 1434h1045v-369l-512 -1065h-492l492 1014h-533v420z" />
    <glyph glyph-name="eight.tnum" horiz-adv-x="1392" 
d="M696.5 317q59.5 0 101.5 38t42 85t-42 85t-101.5 38t-101.5 -38t-42 -85t42 -85t101.5 -38zM696.5 911q51.5 0 87 32t35.5 71t-35.5 70.5t-87 31.5t-87.5 -31.5t-36 -70.5t36 -71t87.5 -32zM696.5 -41q-272.5 0 -433.5 132t-161 319q0 74 25 137t59.5 100t68.5 63.5
t58 37.5l25 10q-8 4 -20.5 11t-44 34.5t-56 60.5t-44 87.5t-19.5 113.5q0 162 150.5 286t392 124t392 -124t150.5 -286q0 -59 -19.5 -113.5t-46 -88.5t-53 -58.5t-47.5 -34.5l-18 -12q10 -4 25.5 -11.5t56.5 -35t71.5 -63.5t56 -100.5t25.5 -137.5q0 -186 -160.5 -318.5
t-433 -132.5z" />
    <glyph glyph-name="nine.tnum" horiz-adv-x="1392" 
d="M287 0l297 451q-20 2 -53 10t-118 44t-149.5 87t-118 149.5t-53.5 221.5q0 213 168 362.5t436.5 149.5t436 -149.5t167.5 -362.5q0 -96 -37.5 -195.5t-76.5 -153.5l-39 -51l-369 -563h-491zM563 963q0 -61 39 -102.5t94.5 -41.5t94 41t38.5 103q0 53 -39.5 93t-93 40
t-93.5 -40t-40 -93z" />
    <glyph glyph-name="zero.frac" horiz-adv-x="778" 
d="M317 1065q0 -68 20.5 -100.5t51.5 -32.5q72 0 72 133t-72 133q-29 0 -50.5 -32.5t-21.5 -100.5zM737 1065q0 -166 -100 -272.5t-247.5 -106.5t-248 106.5t-100.5 272.5t100.5 272.5t248 106.5t247.5 -106.5t100 -272.5z" />
    <glyph glyph-name="one.frac" horiz-adv-x="512" 
d="M184 1434h256v-738h-286v430h-123v205q49 6 88 32t53 48z" />
    <glyph glyph-name="two.frac" horiz-adv-x="706" 
d="M655 1208q0 -53 -26.5 -100t-56 -71.5t-76.5 -56.5t-62 -44h211v-240h-594q0 100 32 177t77 118t90 71t76.5 52.5t31.5 42.5q0 16 -14 28.5t-37 12.5q-18 0 -32.5 -11t-20.5 -24l-4 -12l-219 88q4 8 10 22.5t33.5 49.5t61.5 61.5t93.5 49t128.5 22.5q141 0 219 -66
t78 -170z" />
    <glyph glyph-name="three.frac" horiz-adv-x="716" 
d="M532 1075q6 -2 14.5 -4t32 -14.5t41 -28.5t32 -46t14.5 -67q0 -92 -84 -160.5t-224 -68.5q-109 0 -190.5 31t-110.5 61l-26 31l133 143q55 -61 133 -61q61 0 61 51t-71 51h-72v164h72q23 0 37 12.5t14 28.5t-14.5 28.5t-36.5 12.5q-25 0 -50.5 -13.5t-39.5 -25.5l-13 -12
l-133 143q8 12 27.5 30.5t98.5 50.5t179 32q135 0 214 -61.5t79 -143.5q0 -49 -29.5 -90t-58.5 -57z" />
    <glyph glyph-name="four.frac" horiz-adv-x="716" 
d="M614 1434v-379h72v-246h-72v-113h-276v113h-318v225l328 400h266zM246 1034h102v133z" />
    <glyph glyph-name="five.frac" horiz-adv-x="686" 
d="M430 1178q92 0 158.5 -67t66.5 -159q0 -119 -84 -192.5t-233 -73.5q-66 0 -123 11.5t-91 27.5t-58.5 33.5t-34.5 27.5l-11 13l134 143q51 -51 122 -51q31 0 51.5 20.5t20.5 51.5q0 61 -61 61q-14 0 -29.5 -5t-24.5 -11l-8 -4h-153l51 430h481v-205h-246l-10 -62
q31 11 82 11z" />
    <glyph glyph-name="six.frac" horiz-adv-x="686" 
d="M604 1434l-164 -205q8 -2 23.5 -6t54.5 -23.5t68.5 -46.5t54.5 -77t25 -113q0 -119 -87 -198t-230.5 -79t-230.5 78t-87 199q0 55 17.5 106t35.5 74l18 24l205 267h297zM410 962.5q0 61.5 -61.5 61.5t-61.5 -61.5t61.5 -61.5t61.5 61.5z" />
    <glyph glyph-name="seven.frac" horiz-adv-x="624" 
d="M20 1434h584v-256l-215 -482h-297l215 482h-287v256z" />
    <glyph glyph-name="eight.frac" horiz-adv-x="696" 
d="M348.5 891q61.5 0 61.5 51t-61.5 51t-61.5 -51t61.5 -51zM348.5 1157q22.5 0 36.5 12.5t14 28.5t-14 28.5t-36.5 12.5t-37 -12.5t-14.5 -28.5t14.5 -28.5t37 -12.5zM348.5 1444q147.5 0 227 -59.5t79.5 -145.5q0 -49 -30.5 -88t-61.5 -53l-31 -13q6 -2 15.5 -5t34 -17
t44 -32.5t35 -50.5t15.5 -69q0 -90 -87 -157.5t-240.5 -67.5t-241 67.5t-87.5 157.5q0 59 36 102.5t71 57.5l37 14q-4 2 -13.5 5.5t-30 16.5t-36.5 29.5t-29.5 44t-13.5 58.5q0 86 80 145.5t227.5 59.5z" />
    <glyph glyph-name="nine.frac" horiz-adv-x="686" 
d="M82 696l164 205q-8 2 -23.5 6t-54.5 23.5t-68.5 46.5t-54.5 77t-25 113q0 119 87.5 198t230.5 79t230 -78t87 -199q0 -55 -18.5 -106t-34.5 -74l-18 -24l-205 -267h-297zM276 1167.5q0 -61.5 61.5 -61.5t61.5 61.5t-61.5 61.5t-61.5 -61.5z" />
    <glyph glyph-name="zero.dnom" horiz-adv-x="778" 
d="M317 348.5q0 -67.5 20.5 -100.5t51.5 -33q72 0 72 133t-72 133q-29 0 -50.5 -32.5t-21.5 -100zM737 348q0 -166 -100 -272.5t-247.5 -106.5t-248 106.5t-100.5 272.5t100.5 272.5t248 106.5t247.5 -106.5t100 -272.5z" />
    <glyph glyph-name="one.dnom" horiz-adv-x="512" 
d="M184 717h256v-737h-286v430h-123v204q49 6 88 32t53 48z" />
    <glyph glyph-name="two.dnom" horiz-adv-x="706" 
d="M655 492q0 -53 -26.5 -100.5t-56 -72t-76.5 -56.5t-62 -44h211v-239h-594q0 100 32 176.5t77 117.5t90 71t76.5 52.5t31.5 42.5q0 16 -14 28.5t-37 12.5q-18 0 -32.5 -11t-20.5 -24l-4 -12l-219 88q4 8 10 22.5t33.5 49.5t61.5 61.5t93.5 49t128.5 22.5q141 0 219 -65.5
t78 -169.5z" />
    <glyph glyph-name="three.dnom" horiz-adv-x="716" 
d="M532 358q6 -2 14.5 -4t32 -14t41 -28.5t32 -46t14.5 -66.5q0 -92 -84 -161t-224 -69q-109 0 -190.5 31t-110.5 61l-26 31l133 144q55 -61 133 -62q61 0 61 51t-71 51h-72v164h72q23 0 37 12.5t14 29t-14.5 28.5t-36.5 12q-25 0 -50.5 -13t-39.5 -26l-13 -12l-133 143
q8 12 27.5 31t98.5 50.5t179 31.5q135 0 214 -61.5t79 -143.5q0 -49 -29.5 -90t-58.5 -57z" />
    <glyph glyph-name="four.dnom" horiz-adv-x="716" 
d="M614 717v-379h72v-246h-72v-112h-276v112h-318v225l328 400h266zM246 317h102v134z" />
    <glyph glyph-name="five.dnom" horiz-adv-x="686" 
d="M430 461q92 0 158.5 -66.5t66.5 -158.5q0 -119 -84 -193t-233 -74q-66 0 -123 11.5t-91 28t-58.5 33.5t-34.5 28l-11 12l134 143q51 -51 122 -51q31 0 51.5 20.5t20.5 51.5q0 61 -61 61q-14 0 -29.5 -5t-24.5 -11l-8 -4h-153l51 430h481v-205h-246l-10 -61q31 10 82 10z
" />
    <glyph glyph-name="six.dnom" horiz-adv-x="686" 
d="M604 717l-164 -205q8 -2 23.5 -6t54.5 -23.5t68.5 -46t54.5 -77t25 -113.5q0 -119 -87 -198t-230.5 -79t-230.5 78t-87 199q0 55 17.5 106t35.5 74l18 25l205 266h297zM410 245.5q0 61.5 -61.5 61.5t-61.5 -61.5t61.5 -61.5t61.5 61.5z" />
    <glyph glyph-name="seven.dnom" horiz-adv-x="624" 
d="M20 717h584v-256l-215 -481h-297l215 481h-287v256z" />
    <glyph glyph-name="eight.dnom" horiz-adv-x="696" 
d="M348.5 174q61.5 0 61.5 51t-61.5 51t-61.5 -51t61.5 -51zM348.5 440q22.5 0 36.5 12.5t14 29t-14 28.5t-36.5 12t-37 -12t-14.5 -28.5t14.5 -29t37 -12.5zM348.5 727q147.5 0 227 -59.5t79.5 -145.5q0 -49 -30.5 -88t-61.5 -53l-31 -12q6 -2 15.5 -5.5t34 -17.5t44 -32.5
t35 -50.5t15.5 -68q0 -90 -87 -158t-240.5 -68t-241 67.5t-87.5 158.5q0 59 36 102t71 57l37 15q-4 2 -13.5 5t-30 16t-36.5 29.5t-29.5 44.5t-13.5 58q0 86 80 145.5t227.5 59.5z" />
    <glyph glyph-name="nine.dnom" horiz-adv-x="686" 
d="M82 -20l164 204q-8 2 -23.5 6.5t-54.5 23.5t-68.5 46t-54.5 77t-25 114q0 119 87.5 197.5t230.5 78.5t230 -78t87 -198q0 -55 -18.5 -106.5t-34.5 -74.5l-18 -24l-205 -266h-297zM276 450.5q0 -61.5 61.5 -61.5t61.5 61.5t-61.5 61.5t-61.5 -61.5z" />
    <glyph glyph-name="glyph532" horiz-adv-x="3149" 
d="M569 942v-63h-147v-408h-72v408h-145v63h364zM1063 811q66 0 112 -51t46 -121q0 -74 -46.5 -124t-111.5 -50q-59 0 -96 43v-162h-70v459h49l19 -39q39 45 98 45zM1057 528q39 0 67.5 33t28.5 78q0 43 -28.5 74.5t-67.5 31.5t-67.5 -31.5t-28.5 -74.5q0 -45 27.5 -78
t68.5 -33zM682 567l90 238h76l-158 -389q-33 -70 -100 -70q-14 0 -21 2v58q47 0 64 40l12 33l-129 326h76zM1435.5 811q65.5 0 110.5 -50t45 -120l-2 -31h-243q4 -35 29.5 -59.5t60.5 -24.5q55 0 75 35h72q-18 -45 -58 -70.5t-89 -25.5q-66 0 -113 50t-47 124q0 72 47 122
t112.5 50zM1346 666h180q-2 35 -30 58.5t-60.5 23.5t-59 -22.5t-30.5 -59.5zM1923 942v-63h-147v-408h-72v408h-145v63h364zM2417 811q66 0 111.5 -51t45.5 -121q0 -74 -46 -124t-111 -50q-59 0 -97 43v-162h-69v459h49l18 -39q40 45 99 45zM2410 528q39 0 68 33t29 78
q0 43 -29 74.5t-67.5 31.5t-67.5 -31.5t-29 -74.5q0 -45 27.5 -78t68.5 -33zM2036 567l90 238h76l-158 -389q-33 -70 -100 -70q-14 0 -21 2v58q47 0 64 40l12 33l-129 326h76zM2789.5 811q65.5 0 110.5 -50t45 -120l-2 -31h-244q4 -35 30 -59.5t60 -24.5q55 0 76 35h72
q-18 -45 -58 -70.5t-90 -25.5q-66 0 -112.5 50t-46.5 124q0 72 47 122t112.5 50zM2699 666h180q-2 35 -29.5 58.5t-60 23.5t-59.5 -22.5t-31 -59.5z" />
    </font>
</defs>
</svg>
