<svg xmlns="http://www.w3.org/2000/svg" width="50" height="50" fill="none"><g fill="#FFB74B" clip-path="url(#a)"><path d="M16.7 36.328c0-9.154 7.447-16.601 16.6-16.601v-2.149h4.395a1.465 1.465 0 0 0 .97-2.563L22.062.366a1.465 1.465 0 0 0-1.938 0L3.523 15.015a1.465 1.465 0 0 0 .97 2.563h4.394v30.957c0 .81.656 1.465 1.464 1.465h13.544c-4.343-2.997-7.196-8.007-7.196-13.672ZM34.428 37.412V42c.87-.422 1.386-1.263 1.52-2.06.073-.437.178-1.901-1.52-2.527Z"/><path d="M31.076 31.916c-.114.6.035 1.162.38 1.432.157.123.336.243.531.36v-3.156c-.535.317-.82.883-.911 1.364Z"/><path d="M33.3 22.656c-7.538 0-13.671 6.134-13.671 13.672C19.629 43.867 25.762 50 33.3 50c7.539 0 13.672-6.133 13.672-13.672 0-7.539-6.133-13.672-13.672-13.672Zm5.055 17.688a5.313 5.313 0 0 1-1.636 3.018 5.067 5.067 0 0 1-2.29 1.214v1.03a1.22 1.22 0 0 1-2.442 0v-.92c-1.097-.083-1.987-.36-3.262-1.194a1.22 1.22 0 1 1 1.337-2.043c.772.505 1.252.708 1.925.785v-5.782c-.869-.394-1.513-.771-2.038-1.183-1.07-.839-1.557-2.296-1.273-3.804.31-1.648 1.456-2.958 2.99-3.42.108-.032.215-.06.321-.087v-.907a1.22 1.22 0 0 1 2.442 0v.793c1.53.252 2.576 1.07 2.828 1.562a1.22 1.22 0 0 1-2.011 1.354 2.553 2.553 0 0 0-.817-.41v4.465c.258.096.517.19.77.28 2.316.818 3.555 2.879 3.156 5.25Z"/></g><defs><clipPath id="a"><path fill="#fff" d="M0 0h50v50H0z"/></clipPath></defs></svg>