<svg width="90" height="90" viewBox="0 0 90 90" fill="none" xmlns="http://www.w3.org/2000/svg">
<path d="M45 51.3238C44.6738 51.3238 44.3477 51.2573 44.0437 51.1243L24.252 42.416C23.3907 42.0328 22.8333 41.1842 22.8333 40.2405C22.8333 39.2968 23.3907 38.4482 24.252 38.065L44.0437 29.3567C44.6517 29.0907 45.3483 29.0907 45.9563 29.3567L65.748 38.065C66.6093 38.4482 67.1667 39.2968 67.1667 40.2405C67.1667 41.1842 66.6093 42.0328 65.748 42.416L45.9563 51.1243C45.6523 51.2573 45.3262 51.3238 45 51.3238Z" fill="#6B8DB6"/>
<path d="M47.869 55.4722C46.9475 55.8743 45.988 56.0738 45 56.0738C44.012 56.0738 43.0525 55.8743 42.1437 55.4785L29.1667 49.7658V51.9445C29.1667 53.8762 30.1768 55.6938 31.8013 56.6787C36.3645 59.4495 40.6838 60.8333 45 60.8333C49.3162 60.8333 53.6355 59.4463 58.1987 56.6787C59.8232 55.6938 60.8333 53.8793 60.8333 51.9445V49.7658L47.869 55.4722Z" fill="#6B8DB6"/>
<path d="M11.75 44.9998C11.75 26.6648 26.665 11.7498 45 11.7498C51.5835 11.7498 57.8408 13.672 63.1513 17.1553L58.3633 21.9465C57.6825 22.6241 57.483 23.647 57.8472 24.5336C58.2145 25.4203 59.079 25.9998 60.0417 25.9998H74.2917C75.6027 25.9998 76.6667 24.9358 76.6667 23.6248V9.37482C76.6667 8.41532 76.0872 7.54765 75.2005 7.18032C74.3138 6.80982 73.291 7.01565 72.6133 7.69648L66.5523 13.7575C60.3108 9.41915 52.866 6.99982 45 6.99982C24.0462 6.99982 7 24.046 7 44.9998C7 48.7143 7.54783 52.4066 8.6245 55.9755C9.00133 57.2263 10.3155 57.942 11.5853 57.5652C12.8393 57.1852 13.5518 55.8615 13.1718 54.6043C12.2282 51.4788 11.75 48.2488 11.75 44.9998V44.9998Z" fill="#6B8DB6"/>
<path d="M81.3755 34.0243C80.9987 32.7703 79.6782 32.0578 78.4147 32.4347C77.1607 32.8147 76.4482 34.1383 76.8282 35.3955C77.7718 38.521 78.25 41.751 78.25 45C78.25 63.335 63.335 78.25 45 78.25C38.4165 78.25 32.1592 76.3278 26.8487 72.8445L31.6367 68.0533C32.3175 67.3757 32.517 66.3528 32.1528 65.4662C31.7855 64.5795 30.921 64 29.9583 64H15.7083C14.3973 64 13.3333 65.064 13.3333 66.375V80.625C13.3333 81.5845 13.9128 82.4522 14.7995 82.8195C15.6608 83.1773 16.69 83 17.3867 82.3033L23.4477 76.2423C29.6892 80.5807 37.134 83 45 83C65.9538 83 83 65.9538 83 45C83 41.2855 82.4522 37.5932 81.3755 34.0243V34.0243Z" fill="#FFB74B"/>
</svg>
