<svg width="90" height="90" viewBox="0 0 90 90" fill="none" xmlns="http://www.w3.org/2000/svg">
<path d="M82.1359 65.534C82.1359 74.703 74.703 82.1359 65.534 82.1359C56.365 82.1359 48.932 74.703 48.932 65.534C48.932 56.365 56.365 48.932 65.534 48.932C74.703 48.932 82.1359 56.365 82.1359 65.534Z" fill="#FFB74B"/>
<path d="M28.125 29.8631L41.5238 36.5625L28.125 43.2619V29.8631ZM39.375 64.6875C39.3777 65.6274 39.4331 66.5663 39.5409 67.5H14.0625C11.8247 67.5 9.67863 66.6111 8.09629 65.0287C6.51395 63.4464 5.625 61.3003 5.625 59.0625V14.0625C5.625 11.8247 6.51395 9.67863 8.09629 8.09629C9.67863 6.51395 11.8247 5.625 14.0625 5.625H59.0625C61.3003 5.625 63.4464 6.51395 65.0287 8.09629C66.6111 9.67863 67.5 11.8247 67.5 14.0625V39.5409C63.9591 39.1325 60.3718 39.4789 56.9744 40.5573C53.5771 41.6356 50.4467 43.4215 47.7895 45.7973C45.1324 48.1731 43.0087 51.0849 41.5583 54.3408C40.1079 57.5968 39.3638 61.1231 39.375 64.6875ZM26.5697 50.3438L49.0697 39.0938C49.5377 38.8605 49.9314 38.5014 50.2066 38.0567C50.4818 37.6121 50.6276 37.0995 50.6276 36.5766C50.6276 36.0536 50.4818 35.5411 50.2066 35.0964C49.9314 34.6518 49.5377 34.2926 49.0697 34.0594L26.5697 22.8094C26.1419 22.5956 25.6666 22.4944 25.1888 22.5155C24.7109 22.5365 24.2464 22.679 23.839 22.9296C23.4316 23.1802 23.0949 23.5305 22.8606 23.9475C22.6263 24.3644 22.5022 24.8342 22.5 25.3125V47.8125C22.4998 48.292 22.6221 48.7635 22.8554 49.1824C23.0888 49.6013 23.4253 49.9535 23.833 50.2057C24.2408 50.458 24.7063 50.6017 25.1853 50.6234C25.6642 50.6451 26.1408 50.544 26.5697 50.3297V50.3438ZM84.375 64.6875C84.375 68.5813 83.2204 72.3877 81.0571 75.6253C78.8938 78.8629 75.819 81.3863 72.2216 82.8764C68.6242 84.3665 64.6657 84.7564 60.8467 83.9967C57.0277 83.2371 53.5197 81.362 50.7663 78.6087C48.013 75.8553 46.1379 72.3473 45.3783 68.5283C44.6186 64.7093 45.0085 60.7508 46.4986 57.1534C47.9887 53.556 50.5121 50.4812 53.7497 48.3179C56.9873 46.1547 60.7937 45 64.6875 45C69.9071 45.006 74.9112 47.0821 78.6021 50.7729C82.2929 54.4637 84.369 59.4679 84.375 64.6875ZM72.3009 64.1053C71.7735 63.578 71.0583 63.2818 70.3125 63.2818C69.5667 63.2818 68.8515 63.578 68.3241 64.1053L67.5 64.9294V57.6563C67.5 56.9103 67.2037 56.195 66.6762 55.6675C66.1488 55.1401 65.4334 54.8438 64.6875 54.8438C63.9416 54.8438 63.2262 55.1401 62.6988 55.6675C62.1713 56.195 61.875 56.9103 61.875 57.6563V64.9294L61.0509 64.1053C60.5205 63.593 59.8101 63.3095 59.0726 63.3159C58.3352 63.3223 57.6298 63.6181 57.1083 64.1396C56.5869 64.661 56.2911 65.3664 56.2847 66.1039C56.2783 66.8413 56.5617 67.5517 57.0741 68.0822L62.6991 73.7072C63.2265 74.2345 63.9417 74.5306 64.6875 74.5306C65.4333 74.5306 66.1485 74.2345 66.6759 73.7072L72.3009 68.0822C72.8282 67.5548 73.1244 66.8395 73.1244 66.0937C73.1244 65.348 72.8282 64.6327 72.3009 64.1053Z" fill="#6B8DB6"/>
</svg>
