<svg xmlns="http://www.w3.org/2000/svg" width="50" height="50" fill="none"><g fill="#FFB74B" clip-path="url(#a)"><path d="M14.583 8.333c8.054 0 14.584-1.865 14.584-4.166C29.167 1.865 22.637 0 14.583 0 6.53 0 0 1.865 0 4.167c0 2.3 6.53 4.166 14.583 4.166ZM14.583 17.708c8.054 0 14.584-1.864 14.584-4.166V8.819c-4.592 2.46-12.492 2.64-14.584 2.64-2.091 0-9.991-.18-14.583-2.64v4.723c0 2.302 6.53 4.166 14.583 4.166ZM19.792 39.313v6.229a45.343 45.343 0 0 1-5.209.291C6.521 45.833 0 43.958 0 41.667v-4.73c4.583 2.459 12.5 2.646 14.583 2.646.896 0 2.875-.041 5.209-.27ZM20.02 29.917c-.062.187-.103.416-.145.625l-.083-.063v5.688a45.343 45.343 0 0 1-5.209.291C6.521 36.458 0 34.583 0 32.292v-4.73c4.583 2.459 12.5 2.646 14.583 2.646.917 0 3-.041 5.438-.291ZM14.583 20.833c-2.091 0-9.991-.179-14.583-2.64v4.724c0 2.302 6.53 4.166 14.583 4.166 8.054 0 14.584-1.864 14.584-4.166v-4.723c-4.592 2.46-12.492 2.64-14.584 2.64ZM36.458 35.417C43.938 35.417 50 33.55 50 31.25c0-2.301-6.063-4.167-13.542-4.167-7.478 0-13.541 1.866-13.541 4.167 0 2.301 6.063 4.167 13.541 4.167ZM36.458 42.708c7.48 0 13.542-1.864 13.542-4.166v-2.64c-4.263 2.463-11.6 2.64-13.542 2.64-1.941 0-9.279-.18-13.541-2.64v2.64c0 2.302 6.062 4.166 13.541 4.166ZM36.458 45.833c-1.941 0-9.279-.179-13.541-2.64v2.64c0 2.302 6.062 4.167 13.541 4.167C43.938 50 50 48.135 50 45.833v-2.64c-4.263 2.461-11.6 2.64-13.542 2.64Z"/></g><defs><clipPath id="a"><path fill="#fff" d="M0 0h50v50H0z"/></clipPath></defs></svg>