<svg xmlns="http://www.w3.org/2000/svg" width="50" height="50" fill="none"><path fill="#FFB13C" d="M44 20.32 25 6.437 6 20.321l1.82 1.364 16.72-12.16a.781.781 0 0 1 .92 0l16.72 12.16L44 20.321Z"/><path fill="#FFB13C" d="M41.406 23.054 25 11.122 8.594 23.054v22.259H25.78v-17.97a.781.781 0 0 1 .782-.78H37.5a.781.781 0 0 1 .781.78v17.97h3.125V23.053Zm-18.75 15.227a.781.781 0 0 1-.781.782H12.5a.781.781 0 0 1-.781-.782V27.344a.781.781 0 0 1 .781-.782h9.375a.781.781 0 0 1 .781.782V38.28Z"/><path fill="#FFB13C" d="M17.969 28.125h3.125v3.906h-3.125v-3.906ZM45.336 42.188h-.002c-.04.005-.08.01-.12.012a.78.78 0 0 1-.784-1.046c.065-.169.099-.348.101-.529a1.564 1.564 0 0 0-1.562-1.563v6.25h2.343a1.562 1.562 0 1 0 .024-3.124ZM32.739 10.156l4.761 3.48V6.25h-4.688v3.906h-.073ZM36.719 28.125h-9.375v17.188h9.375V28.125Zm-7.032 8.594a.781.781 0 1 1 0-1.563.781.781 0 0 1 0 1.563ZM32.031 3.125h6.25v1.563h-6.25V3.125ZM13.281 33.594h3.125V37.5h-3.125v-3.906ZM17.969 33.594h3.125V37.5h-3.125v-3.906ZM13.281 28.125h3.125v3.906h-3.125v-3.906ZM4.787 42.2a1.654 1.654 0 0 1-.121-.012h-.002a1.562 1.562 0 0 0 .024 3.124H7.03v-6.25a1.564 1.564 0 0 0-1.562 1.563c.002.181.036.36.101.53a.781.781 0 0 1-.783 1.046Z"/></svg>