<svg xmlns="http://www.w3.org/2000/svg" width="50" height="50" fill="none"><g fill="#FFB74B" clip-path="url(#a)"><path d="M39.746 34.863a5.622 5.622 0 0 1-5.615-5.615 5.622 5.622 0 0 1 5.615-5.615 5.622 5.622 0 0 1 5.615 5.615 5.622 5.622 0 0 1-5.615 5.615ZM10.254 34.863a5.622 5.622 0 0 1-5.615-5.615 5.622 5.622 0 0 1 5.615-5.615 5.622 5.622 0 0 1 5.615 5.615 5.622 5.622 0 0 1-5.615 5.615ZM34.766 3.906a4.83 4.83 0 0 1-4.343-2.684L30.217.81a1.465 1.465 0 0 0-1.31-.81h-7.813c-.555 0-1.062.313-1.31.81l-.207.412a4.829 4.829 0 0 1-4.343 2.684c-.809 0-1.464.656-1.464 1.465v8.36a15.06 15.06 0 0 0 2.998 9.054 15.06 15.06 0 0 0 7.811 5.474 1.464 1.464 0 0 0 .842 0 15.06 15.06 0 0 0 7.81-5.474 15.06 15.06 0 0 0 3-9.055V5.371c0-.809-.656-1.465-1.465-1.465Zm-4.587 8.528-5.524 5.524a1.46 1.46 0 0 1-2.072 0l-2.762-2.762a1.465 1.465 0 1 1 2.072-2.072l1.726 1.727 4.489-4.489a1.465 1.465 0 1 1 2.071 2.072ZM45.736 35.335a8.516 8.516 0 0 1-5.99 2.458 8.516 8.516 0 0 1-5.998-2.465c-.82.59-1.548 1.298-2.161 2.102l.805.705a11.233 11.233 0 0 1 3.838 8.447V50h12.305c.81 0 1.465-.656 1.465-1.465v-4.883c0-3.42-1.683-6.453-4.264-8.317ZM4.264 35.335A10.247 10.247 0 0 0 0 43.652v4.883C0 49.345.656 50 1.465 50H13.77v-3.418c0-3.231 1.399-6.31 3.838-8.447l.805-.705a10.263 10.263 0 0 0-2.161-2.102 8.517 8.517 0 0 1-5.998 2.465 8.516 8.516 0 0 1-5.99-2.458ZM30.461 40.339A7.546 7.546 0 0 1 25 42.676a7.546 7.546 0 0 1-5.461-2.337 8.281 8.281 0 0 0-2.84 6.243V50h16.602v-3.418a8.281 8.281 0 0 0-2.84-6.243ZM25 39.746a4.644 4.644 0 0 1-4.639-4.639A4.644 4.644 0 0 1 25 30.47a4.644 4.644 0 0 1 4.639 4.638A4.644 4.644 0 0 1 25 39.747Z"/></g><defs><clipPath id="a"><path fill="#fff" d="M0 0h50v50H0z"/></clipPath></defs></svg>