<svg width="20" height="20" viewBox="0 0 20 20" fill="none" xmlns="http://www.w3.org/2000/svg">
<path d="M14.1379 2.96552H5.86205C3.37929 2.96552 1.72412 4.20689 1.72412 7.10345V12.8965C1.72412 15.7931 3.37929 17.0345 5.86205 17.0345H14.1379C16.6207 17.0345 18.2758 15.7931 18.2758 12.8965V7.10345C18.2758 4.20689 16.6207 2.96552 14.1379 2.96552ZM14.5269 8.00552L11.9365 10.0745C11.3903 10.5131 10.6952 10.7283 9.99998 10.7283C9.30481 10.7283 8.60136 10.5131 8.06343 10.0745L5.47309 8.00552C5.20826 7.79034 5.16688 7.3931 5.37378 7.12827C5.58895 6.86345 5.97791 6.81379 6.24274 7.02896L8.83309 9.09793C9.46205 9.60276 10.5296 9.60276 11.1586 9.09793L13.7489 7.02896C14.0138 6.81379 14.411 6.85517 14.6179 7.12827C14.8331 7.3931 14.7917 7.79034 14.5269 8.00552Z" fill="#FFB13C"/>
</svg>
