<svg width="90" height="90" viewBox="0 0 90 90" fill="none" xmlns="http://www.w3.org/2000/svg">
<path d="M66.4856 26.9597L61.2881 18.3497C60.4825 16.9992 59.1992 16.0003 57.6923 15.5506C56.1854 15.101 54.5646 15.2334 53.1506 15.9216C52.9669 16.0003 35.2744 26.9597 35.2744 26.9597H66.4856Z" fill="#FFB74B"/>
<path d="M30.3 26.9597C30.3 26.9597 51.4574 13.7997 51.9169 13.5985L48.8587 10.5797C47.7229 9.43784 46.1817 8.79148 44.5711 8.78165C42.9606 8.77181 41.4115 9.3993 40.2619 10.5272L23.2256 26.9597H30.3Z" fill="#FFB74B"/>
<path d="M78.2325 47.1328H61.3406C59.2138 47.1328 57.174 47.9777 55.6701 49.4817C54.1661 50.9856 53.3213 53.0253 53.3213 55.1522C53.3213 57.2791 54.1661 59.3188 55.6701 60.8228C57.174 62.3267 59.2138 63.1716 61.3406 63.1716H78.2325C79.1654 63.1715 80.06 62.8009 80.7197 62.1413C81.3793 61.4816 81.75 60.587 81.75 59.6541V50.6635C81.7505 49.7292 81.3804 48.8329 80.7211 48.1711C80.0617 47.5092 79.1667 47.1359 78.2325 47.1328V47.1328ZM64.8713 54.1941C65.2148 54.201 65.542 54.3423 65.7825 54.5877C66.023 54.833 66.1578 55.163 66.1578 55.5066C66.1578 55.8502 66.023 56.1801 65.7825 56.4255C65.542 56.6709 65.2148 56.8122 64.8713 56.8191C64.5277 56.8122 64.2005 56.6709 63.96 56.4255C63.7195 56.1801 63.5847 55.8502 63.5847 55.5066C63.5847 55.163 63.7195 54.833 63.96 54.5877C64.2005 54.3423 64.5277 54.201 64.8713 54.1941Z" fill="#6B8DB6"/>
<path d="M61.3406 65.7966C47.2514 65.2703 47.2623 45.037 61.3408 44.5078H72.3394H74.9644V36.1472C74.9638 34.4069 74.2722 32.7381 73.0416 31.5075C71.811 30.277 70.1422 29.5853 68.4019 29.5847H14.8125C13.0722 29.5853 11.4034 30.277 10.1728 31.5075C8.94224 32.7381 8.25063 34.4069 8.25 36.1472V74.656C8.25063 76.3963 8.94224 78.0651 10.1728 79.2957C11.4034 80.5262 13.0722 81.2178 14.8125 81.2185H68.4019C70.1422 81.2178 71.811 80.5262 73.0416 79.2957C74.2721 78.0651 74.9637 76.3963 74.9644 74.656V65.7966C73.3761 65.7853 63.1788 65.8047 61.3406 65.7966Z" fill="#6B8DB6"/>
</svg>
