<svg width="20" height="20" viewBox="0 0 20 20" fill="none" xmlns="http://www.w3.org/2000/svg">
<path opacity="0.4" d="M10.0001 1.72412C7.83185 1.72412 6.06909 3.48688 6.06909 5.65516C6.06909 7.78205 7.73254 9.50343 9.90082 9.57791C9.96702 9.56964 10.0332 9.56964 10.0829 9.57791C10.0994 9.57791 10.1077 9.57791 10.1243 9.57791C10.1325 9.57791 10.1325 9.57791 10.1408 9.57791C12.2594 9.50343 13.9229 7.78205 13.9312 5.65516C13.9312 3.48688 12.1684 1.72412 10.0001 1.72412Z" fill="#FFB13C"/>
<path d="M14.2042 11.7793C11.8952 10.24 8.12969 10.24 5.80417 11.7793C4.75314 12.4827 4.17383 13.4345 4.17383 14.4524C4.17383 15.4703 4.75314 16.4138 5.7959 17.109C6.95452 17.8869 8.47728 18.2759 10 18.2759C11.5228 18.2759 13.0456 17.8869 14.2042 17.109C15.2469 16.4055 15.8262 15.4621 15.8262 14.4359C15.818 13.4179 15.2469 12.4745 14.2042 11.7793Z" fill="#FFB13C"/>
</svg>
